M48
;Layer_Color=9474304
;FILE_FORMAT=2:5
INCH,LZ
;TYPE=PLATED
T01F00S00C0.01181
T02F00S00C0.01575
T03F00S00C0.01968
T04F00S00C0.02362
T06F00S00C0.03150
T07F00S00C0.04921
;TYPE=NON_PLATED
T08F00S00C0.02756
T09F00S00C0.03543
T10F00S00C0.07283
T11F00S00C0.09400
T12F00S00C0.12598
T13F00S00C0.13583
%
T01
X-0078318Y0032992
X-00615Y0023
X-00575Y00255
X-0054441Y0027514
X-0057649Y0019212
X-0064538Y0060551
X-0078318
X-0105877
X-0036979
X-0034Y00635
X-00275Y0058
X-0031Y00535
Y0048
X-00315Y0039
X-00275
X-0026Y00425
X-00355Y00395
X-0037Y0035
X-0020577Y0034405
X-0011Y00425
X-0009449Y0045551
X0003Y0045
X0005Y0042
X0001
X0009Y0044
X0013Y0042
X00175Y0043
X0017Y00335
X00105
X0007Y0034
X0003Y0033
X-0001Y0034
X00145Y00285
X00255Y002
X00325Y00195
X0052588Y0019212
X0046Y00125
X0045698Y0005432
X004Y00065
X0038808Y-0008347
X0025029
X0011249
X-000253
X-001631
X-003009
X-00232Y0005432
X-0036979
X-0050759
X-00435Y00135
X-00475Y0018
X-00525Y00195
X-00135Y0012
X-00085Y00065
X-000942Y-0022127
X0004359
X0018139
X0011249Y-0035906
X-00232Y-0022127
X00265Y00385
X003
X0034
X0031918Y0060551
X00285Y00605
Y00575
X0041Y0063
X0047Y00625
X00535Y00635
X0059477Y0060551
X0073257
X0087037
X0100816
X0093926Y0046771
X0080147
X0066367
X0052588
X0059477Y0032992
X0073257
X0066367Y0019212
X0107706Y007433
X0121485
X0128375Y008811
X0114595
X0121485Y0101889
X0135265
X0149044
X0155934Y0115669
X0142155
X0128375
X0114595
X0121485Y0129448
X0135265
X0149044
X0162824
X0176603
X0183493Y0143228
X0169714
X0155934
X0142155
X0135265Y0157007
X0149044
X0162824
X0176603
X0190383
X0204163
X0211052Y0170787
X0197273
X0183493
X0169714
X0155934
X0142155
X0128375
X0114595
X0107706Y0184566
X0121485
X0135265
X0149044
X0162824
X0176603
X0190383
X0204163
X0217942
X0231721
X0238611Y0198346
X0224832
X0211052
X0197273
X0183493
X0169714
X0155934
X0142155
X0128375
X0114595
X0107706Y0212125
X0121485
X0135265
X0149044
X0162824
X0176603
X0190383
X0204163
X0217942
X0231721
X0245501
X0259281
X0121485Y0157007
X0114595Y0143228
X0093926Y0129448
X0080147
X0087037Y0115669
X0073257
X0059477
X0045698
X0031918
X0018139
X0025029Y0129448
Y0101889
X0038808
X0052588
X0059477Y008811
X0073257
X0087037
X0080147Y007433
X0093926
Y0101889
X0066367Y007433
X0052588
X00535Y0067
X0041Y0066
X0038808Y007433
X0025029
X0011249
X00055Y0076
X0004359Y008811
X-0004208Y0084775
X-00165Y00695
X-00265Y00735
X-00305Y0074
X-00385Y0078
X-0043Y0087
X-00485Y0083
X-005Y009
X-0043869Y0101889
X-00415Y0113
X-0031Y0116
X-003009Y0101889
X-0030941Y0092003
X-0043869Y0129448
X-0052727Y0147976
X-0043869Y0157007
X-003009
X-001631
X-0010035Y0162232
X0004359Y0170787
X0018139
X0031918
X0045698
X0046216Y0161232
X0045698Y0143228
X0059477Y0170787
X0052588Y0184566
X0038808
X0025029
X0031918Y0198346
X0045698
X0059477
X0052588Y0212125
X0038808
X0025029
X0011249
X-000253
X-001631
X-0012Y0221
X-003009Y0212125
X-00232Y0198346
X-0036979
X-0044227Y0185976
X-003009Y0184566
X-0046727Y0172476
X0018139Y0198346
X0087037
X0100816
X0093926Y0212125
X0080147
Y0184566
X0093926
X0100816Y0170787
X0087037
X0045698Y008811
X0031918
X-0054369Y0075739
X-00575Y0068
X-006175Y007925
X-00925Y0076
X-0101Y00855
X-01125Y0083
X-012
X-0119657Y008811
X-0125531Y0102469
X-01195Y01085
X-011Y01115
X-0098987Y0101889
X-0085208
X-0078318Y0115669
X-0064538
X-00685Y01215
X-0062Y0132
X-0085208Y0129448
X-00825Y01375
X-0095727Y0131976
X-00925Y01195
X-00945Y0151
X-0112767Y0157007
X-0111727Y0140976
X-0105877Y0170787
X-0119657
X-0112767Y0184566
X-0098987
X-0105877Y0198346
X-0114883Y0207883
X-0112767Y0212125
X-0085208
X-0071428
X-0057649
X-00565Y01865
X-0078318Y0198346
X-00825Y01755
X-0144727Y0176976
X-0152227Y0167976
X-0155227Y0169476
X-0159727Y0182976
X-0164727Y0185976
X-0157727Y0190976
X-0149227Y0191476
X-016Y0205
X-0154105Y0212125
X-0167885
X-0181664
X-0195444
X-0188554Y0198346
X-0174775
X-0181664Y0184566
X-0195444
X-0188554Y0170787
X-0195444Y0157007
X-0179727Y0142976
X-0160995Y0143228
X-0167885Y0129448
X-0154105
X-0147215Y0115669
X-0133436
X-0160995
X-0114Y0072
X-0202334Y0198346
X-0216113
X-0229893
X-0243672
X-0250562Y0212125
X-0236783
X-0223003
X-0209223
Y0184566
X-0223003
X-0216113Y0170787
Y0225905
X-0229893
X-0243672
X-0257452
X-0271231
X-0278121Y0239685
X-0264341
X-0250562
X-0236783
X-0223003
X-0209223
X-0216113Y0253464
X-0229893
X-0243672
X-0257452
X-0271231
X-0278121Y0267244
X-0264341
X-0250562
X-0236783
X-0223003
X-0209223
X-0216113Y0281023
X-0229893
X-0243672
X-0257452
X-0271231
X-0278121Y0294803
X-0264341
X-0250562
X-0236783
X-0223003
X-0209223
X-0216113Y0308582
X-0229893
X-0243672
X-0257452
X-0271231
X-0278121Y0322362
X-0264341
X-0250562
X-0236783
X-0223003
X-0209223
X-0216113Y0336141
X-0229893
X-0243672
X-0257452
X-0271231
X-0278121Y0349921
X-0264341
X-0250562
X-0236783
X-0223003
X-0209223
X-0216113Y03637
X-0229893
X-0243672
X-0257452
X-0271231
X-0278121Y037748
X-0264341
X-0250562
X-0236783
X-0223003
X-0209223
X-0195444
X-0181664
X-0175154Y037711
X-0174775Y03637
X-0160995
X-0147215
X-0154677Y0373466
X-0154105Y0349921
X-0167885
X-0181664
X-0174775Y0336141
X-0188554
X-0202334
X-0195444Y0322362
X-0181664
X-0174775Y0308582
X-0160995
X-0147215
X-0133436
X-0119657
X-0105877
X-0092097
X-0098987Y0322362
X-0085208
X-0092097Y0336141
X-0105877
X-0119657
X-0133436
X-0126546Y0322362
X-0112767
Y0349921
X-0098987
X-0085208
X-0092097Y03637
X-0105877
X-0064538
X-0055Y03635
X-0057649Y0349921
X-0064538Y0336141
X-0057649Y0322362
X-0064538Y0308582
X-0057649Y0294803
X-0064538Y0281023
X-0057649Y0267244
Y0239685
X-0064538Y0225905
X-0078318
X-0085208Y0239685
X-0098987
X-01055Y0236
X-0105877Y0225905
X-0119657
X-0133436
X-0147215
X-0160995
X-0174775
X-0188554
X-0202334
X-0195444Y0239685
X-0181664
X-0167885
X-0160995Y0253464
X-0147215
X-0154105Y0267244
X-0140326
X-0126546
X-0112767
X-0098987
X-0085208
X-0092097Y0281023
X-0105877
X-0119657
X-0133436
X-0147215
X-0160995
X-0174775
X-0188554
X-0202334
X-0195444Y0294803
X-0181664
X-0167885
X-0154105
X-0140326
X-0126546
X-0098987
X-0085208
X-0167885Y0267244
X-0181664
X-0195444
X-0188554Y0253464
X-0174775
X-0202334
Y0308582
X-0188554
X-0050759
X-0036979
X-00232
X-003009Y0322362
X-001631
X-000253
X0004359Y0336141
X-000942
X-00232
X-0036979
X-0050759
X-0043869Y0349921
X-003009
X-001631
X-000253
X0011249
X0017273Y0366976
X0054273
X0052588Y0349921
X0066367
X0080147
X0093926
X0088Y03635
X0087037Y0336141
X0100816
X0093926Y0322362
X0080147
X0066367
X0052588
X0038808
X0025029
X0018139Y0308582
X0004359
X-000253Y0294803
X0011249
X0025029
X0038808
X0052588
X0066367
X0080147
X0093926
X0100816Y0308582
X0087037
X0073257
X0059477
X0045698
Y0336141
X0059477
X0073257
X0038808Y0349921
X0032773Y0286976
X0031918Y0281023
X0045698
X0059477
X0073257
X0087037
X0100816
X0093926Y0267244
X0080147
X0066367
X0052588
X0038808
X0025029
Y0239685
X0038808
X0052588
X0059477Y0225905
X0045698
X0031918
X0018139
X0011249Y0239685
X-000253
X-0008227Y0236976
X-0011227Y0241976
X-003009Y0239685
X-0043869
X-0050759Y0225905
Y0281023
X-0043869Y0294803
X-003009
X-00232Y0281023
X-000942
X0004359
X-000253Y0267244
X-001631
X-003009
X-0043869Y0322362
X0080147Y0239685
X0087037Y0225905
X0100816
X0114595
X0106773Y0236976
X0107706Y0239685
X0106773Y0242976
X0121485Y0239685
X0128375Y0253464
X0142155
X0155934
X0169714
X0183493
X0197273
X0211052
X0224832
X0238611
X0252391
X0245501Y0267244
X0259281
X0252391Y0281023
X0238611
X0224832
X0211052
X0197273
X0183493
X0169714
X0155934
X0142155
X0128375
X0121773Y0285976
X0114595Y0281023
X0107706Y0294803
X0114595Y0308582
X0128375
X0142155
X0155934
X0169714
X0183493
X0197273
X0211052
X0224832
X0238611
X0252391
X0245501Y0322362
X0259281
X0252391Y0336141
X0238611
X0224832
X0211052
X0197273
X0183493
X0176603Y0322362
X0190383
X0204163
X0217942
X0231721
Y0349921
X0245501
X0259281
X0252391Y03637
X0238611
X0224832
X0211052
X0204163Y037748
X0217942
X0231721
X0245501
X0259281
X0217942Y0349921
X0204163
X0190383Y037748
X0149044
X0143Y0374
X0142155Y03637
X0155934
X0149044Y0349921
X0135265
X0128375Y03637
Y0336141
X0114595
X0107706Y0349921
Y0322362
X0135265
Y0294803
X0149044
X0162824
X0176603
X0190383
X0204163
X0217942
X0231721
X0245501
X0259281
Y0239685
X0245501
X0231721
X0217942
X0204163
X0190383
X0176603
X0183493Y0225905
X0197273
X0211052
X0224832
X0238611
X0252391
X0231721Y0267244
X0217942
X0204163
X0190383
X0176603
X0162824
X0149044
X0135265
X0121485
X0107706
X0114595Y0253464
X0142155Y0225905
X0155934
X0169714
X026617
X027306Y0239685
X027995Y0253464
X026617
X027306Y0267244
X027995Y0281023
X026617
X027306Y0294803
X027995Y0308582
X026617
X027306Y0322362
X027995Y0336141
X026617
X027306Y0349921
X027995Y03637
X026617
X027306Y037748
X027995Y0391259
X026617
X027306Y0405039
X027995Y0418818
X026617
X027306Y0432598
X027995Y0446378
X026617
X027306Y0460157
X0259281
X0245501
X0231721
X0217942
X0204163
X0190383
X0176603
X0162824
X0149044
X0135265
X0121485
X0107706
X0114595Y0446378
X0128375
X0142155
X0155934
X0169714
X0183493
X0197273
X0211052
X0224832
X0238611
X0252391
X0245501Y0432598
X0259281
X0252391Y0418818
X0238611
X0224832
X0211052
X0204163Y0405039
X0217942
X0231721
X0245501
X0259281
X0252391Y0391259
X0238611
X0224832
X0211052
X0197273
X0190383Y0405039
X0183493Y0418818
X0176603Y0432598
X0217942
X0231721
X0135265
X0121485
X0107706
Y0405039
X0121485
X012503Y0421133
X01295Y0418
X01375Y0421
X0128375Y0391259
X0114595
X0100816
X0093926Y0405039
X0080147
X0066367
X0073257Y0418818
X0087037
X0100816
X0093926Y0432598
X0080147
X0066367
X0052588
X0059477Y0446378
X0073257
X0066367Y0460157
X0080147
X0093926
X0100816Y0446378
X0045698
X0038808Y0460157
X0052588
X0011249
X-000253
X-001631
X-003009
X-0043869
X-0036979Y0446378
X-00232
X-003009Y0432598
X-0039727Y0429976
X-0050759Y0418818
X-0043869Y0405039
X-003009
X-00232Y0391259
X-000942
X-0036979
X-0050759
Y0446378
X-0003815Y0436388
X0002657Y043715
X000842
X0016273Y0435976
X0025029Y0432598
X0018139Y0418818
X0017273Y0413976
X0025029Y0405039
X0029273Y0391976
Y0386476
X0023Y0388
X00205Y03915
X0059477Y0391259
X0073257
X0059477Y0418818
X0045698
X0037273Y0413976
X-0057649Y0405039
X-0064538Y0391259
X-0057649Y0432598
X-0055Y0435
X-0064538Y0446378
X-0078318
X-0092097
X-0105877
X-011Y0432
X-00995Y04305
Y04275
X-0096
Y04305
X-0085208Y0432598
Y0460157
X-0071428
X-0057649
X-0126546
X-0140326
X-0154105
X-0167885
X-0181664
X-0195444
X-0188554Y0446378
X-0174775
X-0160995
X-0147215
X-0156973Y0430476
X-0168485Y043074
X-0160995Y0418818
X-0167885Y0405039
X-0154105
X-0181664
X-0195444
X-0188554Y0391259
X-0202334
Y0418818
Y0446378
X-0133436Y0391259
X-0112767Y0405039
X-0209223
X-0223003
X-0236783
X-0250562
X-0264341
X-0278121
X-0271231Y0418818
X-0257452
X-0243672
X-0229893
X-0216113
X-0223003Y0432598
X-0209223
X-0216113Y0446378
X-0229893
X-0243672
X-0257452
X-0271231
X-0278121Y0460157
X-0264341
X-0250562
X-0236783
X-0223003
X-0209223
X-0236783Y0432598
X-0250562
X-0264341
X-0278121
X-0271231Y0391259
X-0257452
X-0243672
X-0229893
X-0216113
T02
X-0001748Y0058733
X-0002Y0063
X0011Y0065
X00115Y00575
X0015273Y0055476
X01045Y00895
X01085
Y00935
X01045
X0113273Y0130976
X0116222Y013422
X0120773Y0134476
X0124773Y0133976
Y0139476
X0126273Y0143976
X0130273
Y0147976
X0125773
X0118773Y0147476
X0118273Y0152476
X0116773Y0157476
X0135273Y0147976
X0134273Y0143976
X0094773Y0155476
X0085273Y0160476
X0080773Y0158976
Y0162976
X0082273Y0144476
Y0139976
X0081773Y0136476
X0086273
X0086773Y0139976
X0037273Y0136976
X0032273
Y0141476
X0037273Y0131976
X0036273Y0156976
X0029273Y0162976
X0020273Y0162476
X-0019227Y0166976
X-0019727Y0157476
X-0024727Y0162476
Y0145976
X-0024227Y0140976
X-0019727
X-00425Y0139
X-0046727Y0139476
X-004Y0136
X-0035227Y0182476
X-0035Y0085
X-0017Y00805
X0002065Y0086302
X0010773Y0080976
X0015273Y0084976
Y0076976
X0019773Y0098976
X-00055Y00655
X01005Y00895
Y00935
X-0123227Y0094476
X-0127227Y0097976
Y0083976
X-0124227Y0081476
X-0121227Y0078976
X-0140727Y0105476
X-0143227Y0107976
X-0149227Y0107476
X-0146727Y0104976
X-0144227Y0101976
X-0141227Y0128476
X-0138227Y0131476
X-0144227Y0131976
X-0141727Y0134976
X-0143727Y0137976
X-0138227
X-0140727Y0141476
X-0145727Y0141976
X-0142727Y0144976
X-0137227
X-0134727Y0141976
X-0131227Y0138976
X-0134727Y0134976
X-0147227Y0135476
X-0149727Y0138976
X-0139727Y0147976
X-0179727Y0137476
X-0177227Y0134976
X-0182727Y0139976
X-0192227Y0149476
X-0195227Y0152476
X-0198227Y0155476
X-0160227Y0197976
X-014Y02375
Y02425
X-0126727Y0242976
Y0237476
X-0131227Y0252976
Y0257476
X-0165Y0356
X0126773Y0242476
Y0237476
X01405Y02375
Y02425
X0130273Y0226976
Y0222476
X0049273Y0381976
X0039273Y0435976
X0027773Y0435476
X0020773Y0426976
X0016273
X-0003727Y0419476
X-0007227Y0415476
X-0021227Y0410476
Y0404476
X-0021727Y0397976
X-0040727Y0411476
X-0018727Y0435476
X-0061227Y0418976
Y0412976
X-0065727Y0408476
X-0068227Y0423976
X-0071727
X-0088735Y0419079
X-0092041
X-0095331Y0419181
X-0091855Y0415654
X-0087306Y0413373
X-0082822Y0410122
X-0171Y0391
Y0386
T03
X-009Y00555
X-0022Y00935
X00205Y0093
X00425
X00705Y0172
X0003Y02005
X-00125Y02
X-0128Y03735
X00115Y02295
X00705Y02485
X0152457Y04245
X0156391Y0421333
X0156812Y0438027
X0153Y0441
T04
X-0086Y02485
X-0077081Y0248742
X0098273Y0249476
T06
X-0012227Y0106476
X-0002227
X0007773
X0017773
Y0182976
X0007773
X-0002227
X-0012227
X-0157Y02355
Y02455
X016
Y02355
T07
X0109115Y039337
Y0442582
X008943
Y039337
T08
X-0004855Y0447606
X00179
T09
X-0112318Y0459389
X-0100507
T10
X0116989Y0417976
X0081556
T11
X-0140692Y0362188
T12
X0066929Y0102338
X-0066929
X-0192294Y0359413
X0192351
Y0430279
X-0192294
T13
X-0108292Y0299188
X0109208Y0362188
M30
