G04*
G04 #@! TF.GenerationSoftware,Altium Limited,Altium Designer,23.8.1 (32)*
G04*
G04 Layer_Color=16711935*
%FSLAX25Y25*%
%MOIN*%
G70*
G04*
G04 #@! TF.SameCoordinates,36DDD1C1-7BD6-4DAF-97DA-8CC6A3F3F012*
G04*
G04*
G04 #@! TF.FilePolarity,Positive*
G04*
G01*
G75*
%ADD12C,0.00787*%
G36*
X-6278Y380426D02*
Y407526D01*
X20823D01*
Y380426D01*
X-6278D01*
D02*
G37*
G36*
X105387Y105497D02*
X105423D01*
X105463Y105493D01*
X105506Y105487D01*
X105555Y105480D01*
X105607Y105474D01*
X105663Y105464D01*
X105778Y105438D01*
X105893Y105402D01*
X105951Y105379D01*
X106007Y105352D01*
X106011Y105349D01*
X106020Y105346D01*
X106037Y105336D01*
X106056Y105323D01*
X106079Y105310D01*
X106109Y105290D01*
X106139Y105267D01*
X106175Y105241D01*
X106247Y105182D01*
X106319Y105106D01*
X106391Y105021D01*
X106424Y104972D01*
X106453Y104923D01*
X106457Y104920D01*
X106460Y104910D01*
X106466Y104893D01*
X106476Y104874D01*
X106490Y104847D01*
X106503Y104818D01*
X106516Y104782D01*
X106532Y104742D01*
X106545Y104696D01*
X106558Y104650D01*
X106585Y104546D01*
X106601Y104431D01*
X106607Y104372D01*
Y104273D01*
X106604Y104247D01*
X106601Y104214D01*
X106598Y104175D01*
X106591Y104132D01*
X106585Y104086D01*
X106562Y103988D01*
X106545Y103936D01*
X106526Y103880D01*
X106503Y103827D01*
X106480Y103775D01*
X106447Y103722D01*
X106414Y103673D01*
X106411Y103670D01*
X106404Y103663D01*
X106394Y103647D01*
X106378Y103630D01*
X106358Y103611D01*
X106335Y103585D01*
X106306Y103558D01*
X106273Y103529D01*
X106237Y103499D01*
X106198Y103470D01*
X106152Y103440D01*
X106106Y103411D01*
X106053Y103381D01*
X105998Y103355D01*
X105935Y103329D01*
X105873Y103309D01*
X105794Y103637D01*
X105797D01*
X105807Y103640D01*
X105820Y103647D01*
X105840Y103653D01*
X105863Y103663D01*
X105889Y103673D01*
X105948Y103703D01*
X106014Y103739D01*
X106079Y103781D01*
X106142Y103834D01*
X106168Y103863D01*
X106194Y103893D01*
Y103896D01*
X106201Y103899D01*
X106207Y103909D01*
X106214Y103922D01*
X106224Y103939D01*
X106234Y103958D01*
X106260Y104008D01*
X106283Y104070D01*
X106302Y104142D01*
X106316Y104224D01*
X106322Y104316D01*
Y104346D01*
X106319Y104365D01*
Y104388D01*
X106316Y104418D01*
X106309Y104450D01*
X106306Y104487D01*
X106289Y104562D01*
X106263Y104644D01*
X106227Y104726D01*
X106207Y104765D01*
X106181Y104805D01*
Y104808D01*
X106175Y104815D01*
X106168Y104824D01*
X106155Y104838D01*
X106125Y104870D01*
X106083Y104910D01*
X106030Y104955D01*
X105965Y105001D01*
X105893Y105044D01*
X105807Y105077D01*
X105804D01*
X105797Y105080D01*
X105784Y105084D01*
X105768Y105090D01*
X105745Y105097D01*
X105719Y105103D01*
X105689Y105110D01*
X105660Y105116D01*
X105584Y105129D01*
X105502Y105142D01*
X105414Y105152D01*
X105322Y105156D01*
X105318D01*
X105309D01*
X105292D01*
X105269D01*
X105240Y105152D01*
X105207Y105149D01*
X105171D01*
X105131Y105142D01*
X105043Y105133D01*
X104951Y105116D01*
X104853Y105093D01*
X104761Y105064D01*
X104758D01*
X104751Y105061D01*
X104738Y105054D01*
X104722Y105044D01*
X104702Y105034D01*
X104679Y105024D01*
X104626Y104992D01*
X104567Y104949D01*
X104508Y104900D01*
X104453Y104841D01*
X104403Y104772D01*
Y104769D01*
X104397Y104762D01*
X104394Y104752D01*
X104384Y104736D01*
X104377Y104719D01*
X104367Y104696D01*
X104344Y104644D01*
X104321Y104578D01*
X104305Y104506D01*
X104292Y104428D01*
X104285Y104342D01*
Y104316D01*
X104289Y104296D01*
X104292Y104270D01*
X104295Y104244D01*
X104298Y104211D01*
X104305Y104178D01*
X104325Y104103D01*
X104354Y104024D01*
X104371Y103981D01*
X104394Y103942D01*
X104417Y103903D01*
X104446Y103867D01*
X104449Y103863D01*
X104453Y103857D01*
X104462Y103847D01*
X104475Y103834D01*
X104492Y103821D01*
X104515Y103801D01*
X104538Y103781D01*
X104567Y103762D01*
X104597Y103739D01*
X104633Y103716D01*
X104672Y103696D01*
X104715Y103673D01*
X104764Y103653D01*
X104813Y103634D01*
X104866Y103617D01*
X104925Y103601D01*
X104840Y103266D01*
X104836D01*
X104823Y103273D01*
X104800Y103279D01*
X104771Y103286D01*
X104738Y103299D01*
X104699Y103316D01*
X104656Y103332D01*
X104607Y103355D01*
X104558Y103378D01*
X104505Y103407D01*
X104456Y103437D01*
X104403Y103473D01*
X104351Y103509D01*
X104302Y103552D01*
X104256Y103598D01*
X104213Y103647D01*
X104210Y103650D01*
X104203Y103660D01*
X104193Y103673D01*
X104180Y103696D01*
X104164Y103722D01*
X104144Y103755D01*
X104128Y103791D01*
X104108Y103831D01*
X104085Y103880D01*
X104069Y103929D01*
X104049Y103985D01*
X104033Y104044D01*
X104020Y104106D01*
X104010Y104172D01*
X104003Y104241D01*
X104000Y104313D01*
Y104352D01*
X104003Y104382D01*
X104007Y104414D01*
X104010Y104457D01*
X104013Y104500D01*
X104020Y104549D01*
X104039Y104654D01*
X104069Y104765D01*
X104088Y104821D01*
X104112Y104877D01*
X104134Y104929D01*
X104164Y104979D01*
X104167Y104982D01*
X104171Y104988D01*
X104180Y105001D01*
X104197Y105021D01*
X104213Y105041D01*
X104233Y105067D01*
X104259Y105093D01*
X104289Y105123D01*
X104318Y105156D01*
X104354Y105185D01*
X104394Y105218D01*
X104439Y105251D01*
X104485Y105283D01*
X104535Y105313D01*
X104590Y105343D01*
X104646Y105369D01*
X104649D01*
X104659Y105375D01*
X104679Y105382D01*
X104702Y105388D01*
X104731Y105398D01*
X104764Y105412D01*
X104804Y105421D01*
X104850Y105434D01*
X104899Y105448D01*
X104951Y105457D01*
X105007Y105471D01*
X105063Y105480D01*
X105191Y105493D01*
X105322Y105500D01*
X105325D01*
X105338D01*
X105361D01*
X105387Y105497D01*
D02*
G37*
G36*
X106565Y101935D02*
Y101682D01*
X104931D01*
Y101341D01*
X104646D01*
Y101682D01*
X104043D01*
Y101990D01*
X104646D01*
Y103086D01*
X104931D01*
X106565Y101935D01*
D02*
G37*
G36*
X105784Y101020D02*
X105817Y101016D01*
X105856Y101010D01*
X105899Y101003D01*
X105942Y100993D01*
X106040Y100967D01*
X106093Y100951D01*
X106145Y100928D01*
X106194Y100901D01*
X106247Y100872D01*
X106293Y100839D01*
X106339Y100800D01*
X106342Y100796D01*
X106348Y100790D01*
X106362Y100777D01*
X106375Y100760D01*
X106394Y100738D01*
X106414Y100711D01*
X106434Y100678D01*
X106457Y100642D01*
X106480Y100606D01*
X106499Y100560D01*
X106519Y100514D01*
X106539Y100465D01*
X106552Y100413D01*
X106565Y100354D01*
X106571Y100295D01*
X106575Y100232D01*
Y100209D01*
X106571Y100190D01*
Y100170D01*
X106568Y100144D01*
X106558Y100085D01*
X106542Y100016D01*
X106519Y99940D01*
X106486Y99862D01*
X106440Y99783D01*
Y99780D01*
X106434Y99773D01*
X106427Y99763D01*
X106417Y99750D01*
X106385Y99714D01*
X106345Y99668D01*
X106289Y99619D01*
X106227Y99567D01*
X106152Y99517D01*
X106063Y99475D01*
X106060D01*
X106053Y99471D01*
X106037Y99465D01*
X106017Y99458D01*
X105991Y99448D01*
X105961Y99442D01*
X105925Y99432D01*
X105883Y99419D01*
X105833Y99409D01*
X105781Y99399D01*
X105725Y99393D01*
X105660Y99383D01*
X105591Y99376D01*
X105519Y99370D01*
X105440Y99366D01*
X105355D01*
X105348D01*
X105335D01*
X105309D01*
X105276D01*
X105233Y99370D01*
X105187Y99373D01*
X105135Y99376D01*
X105076Y99379D01*
X105017Y99386D01*
X104954Y99393D01*
X104823Y99409D01*
X104699Y99435D01*
X104640Y99452D01*
X104584Y99471D01*
X104580D01*
X104571Y99475D01*
X104558Y99481D01*
X104538Y99491D01*
X104512Y99501D01*
X104485Y99514D01*
X104423Y99550D01*
X104351Y99593D01*
X104279Y99648D01*
X104210Y99711D01*
X104148Y99786D01*
Y99790D01*
X104141Y99796D01*
X104134Y99806D01*
X104125Y99822D01*
X104115Y99842D01*
X104102Y99865D01*
X104088Y99894D01*
X104075Y99924D01*
X104046Y99996D01*
X104023Y100078D01*
X104007Y100170D01*
X104003Y100219D01*
X104000Y100272D01*
Y100301D01*
X104003Y100321D01*
X104007Y100347D01*
X104010Y100373D01*
X104013Y100406D01*
X104020Y100442D01*
X104039Y100518D01*
X104069Y100600D01*
X104088Y100639D01*
X104112Y100678D01*
X104134Y100718D01*
X104164Y100754D01*
X104167Y100757D01*
X104171Y100760D01*
X104180Y100770D01*
X104193Y100783D01*
X104210Y100800D01*
X104233Y100816D01*
X104256Y100833D01*
X104282Y100852D01*
X104315Y100872D01*
X104348Y100892D01*
X104387Y100908D01*
X104430Y100928D01*
X104472Y100944D01*
X104522Y100957D01*
X104571Y100967D01*
X104626Y100977D01*
X104649Y100678D01*
X104646D01*
X104640Y100675D01*
X104630D01*
X104617Y100672D01*
X104577Y100662D01*
X104535Y100646D01*
X104482Y100629D01*
X104433Y100603D01*
X104387Y100574D01*
X104348Y100537D01*
X104344Y100531D01*
X104334Y100518D01*
X104318Y100495D01*
X104302Y100462D01*
X104285Y100423D01*
X104269Y100377D01*
X104259Y100321D01*
X104256Y100262D01*
Y100239D01*
X104259Y100213D01*
X104262Y100177D01*
X104272Y100141D01*
X104282Y100098D01*
X104298Y100055D01*
X104318Y100013D01*
X104321Y100009D01*
X104331Y99993D01*
X104344Y99973D01*
X104364Y99950D01*
X104390Y99921D01*
X104420Y99891D01*
X104453Y99862D01*
X104492Y99835D01*
X104499Y99832D01*
X104512Y99822D01*
X104538Y99813D01*
X104571Y99796D01*
X104613Y99776D01*
X104663Y99757D01*
X104722Y99737D01*
X104787Y99721D01*
X104790D01*
X104797Y99717D01*
X104807D01*
X104820Y99714D01*
X104836Y99711D01*
X104856Y99708D01*
X104905Y99698D01*
X104961Y99688D01*
X105027Y99681D01*
X105096Y99678D01*
X105168Y99675D01*
X105171D01*
X105184D01*
X105204D01*
X105230D01*
X105223Y99678D01*
X105207Y99691D01*
X105177Y99714D01*
X105145Y99744D01*
X105105Y99780D01*
X105066Y99822D01*
X105027Y99875D01*
X104990Y99931D01*
Y99934D01*
X104987Y99937D01*
X104981Y99947D01*
X104977Y99960D01*
X104961Y99990D01*
X104945Y100036D01*
X104928Y100085D01*
X104912Y100144D01*
X104902Y100209D01*
X104899Y100278D01*
Y100308D01*
X104902Y100331D01*
X104905Y100357D01*
X104912Y100390D01*
X104918Y100423D01*
X104928Y100462D01*
X104938Y100501D01*
X104954Y100544D01*
X104971Y100587D01*
X104994Y100633D01*
X105020Y100678D01*
X105050Y100721D01*
X105086Y100764D01*
X105125Y100806D01*
X105128Y100810D01*
X105135Y100816D01*
X105148Y100826D01*
X105168Y100839D01*
X105187Y100856D01*
X105217Y100875D01*
X105250Y100895D01*
X105286Y100915D01*
X105325Y100934D01*
X105371Y100954D01*
X105420Y100974D01*
X105473Y100990D01*
X105528Y101003D01*
X105591Y101013D01*
X105653Y101020D01*
X105722Y101023D01*
X105725D01*
X105738D01*
X105758D01*
X105784Y101020D01*
D02*
G37*
G36*
X458Y328907D02*
X-536D01*
X-559Y328910D01*
X-589D01*
X-654Y328917D01*
X-727Y328927D01*
X-805Y328940D01*
X-881Y328960D01*
X-950Y328986D01*
X-953D01*
X-956Y328989D01*
X-966Y328993D01*
X-979Y328999D01*
X-1009Y329019D01*
X-1048Y329045D01*
X-1094Y329078D01*
X-1137Y329117D01*
X-1182Y329166D01*
X-1222Y329222D01*
Y329225D01*
X-1225Y329229D01*
X-1238Y329248D01*
X-1255Y329281D01*
X-1274Y329324D01*
X-1291Y329373D01*
X-1307Y329429D01*
X-1320Y329488D01*
X-1323Y329553D01*
Y329557D01*
Y329560D01*
Y329570D01*
Y329580D01*
X-1320Y329612D01*
X-1314Y329652D01*
X-1300Y329701D01*
X-1287Y329753D01*
X-1264Y329806D01*
X-1235Y329862D01*
X-1232Y329868D01*
X-1218Y329885D01*
X-1199Y329911D01*
X-1169Y329944D01*
X-1130Y329980D01*
X-1084Y330016D01*
X-1032Y330055D01*
X-969Y330088D01*
X-972D01*
X-979Y330091D01*
X-992Y330095D01*
X-1009Y330101D01*
X-1025Y330108D01*
X-1048Y330118D01*
X-1100Y330144D01*
X-1156Y330177D01*
X-1215Y330216D01*
X-1271Y330265D01*
X-1320Y330321D01*
Y330324D01*
X-1327Y330327D01*
X-1333Y330337D01*
X-1340Y330350D01*
X-1359Y330383D01*
X-1383Y330429D01*
X-1405Y330485D01*
X-1425Y330551D01*
X-1438Y330623D01*
X-1445Y330701D01*
Y330705D01*
Y330708D01*
Y330718D01*
Y330731D01*
X-1441Y330764D01*
X-1435Y330810D01*
X-1425Y330859D01*
X-1412Y330915D01*
X-1396Y330970D01*
X-1369Y331029D01*
X-1366Y331036D01*
X-1356Y331056D01*
X-1340Y331082D01*
X-1317Y331115D01*
X-1291Y331154D01*
X-1258Y331193D01*
X-1222Y331229D01*
X-1182Y331265D01*
X-1179Y331269D01*
X-1163Y331279D01*
X-1140Y331295D01*
X-1107Y331311D01*
X-1068Y331331D01*
X-1022Y331354D01*
X-966Y331374D01*
X-907Y331390D01*
X-900D01*
X-891Y331393D01*
X-877Y331397D01*
X-861Y331400D01*
X-841Y331403D01*
X-795Y331410D01*
X-736Y331416D01*
X-667Y331423D01*
X-589Y331426D01*
X-500Y331430D01*
X458D01*
Y328907D01*
D02*
G37*
G36*
X-2544Y329206D02*
X-1714D01*
Y328907D01*
X-3708D01*
Y329206D01*
X-2878D01*
Y331430D01*
X-2544D01*
Y329206D01*
D02*
G37*
G36*
X-4787Y329458D02*
X-4781Y329462D01*
X-4767Y329475D01*
X-4741Y329498D01*
X-4708Y329524D01*
X-4666Y329557D01*
X-4613Y329593D01*
X-4558Y329632D01*
X-4492Y329671D01*
X-4489D01*
X-4485Y329675D01*
X-4476Y329681D01*
X-4462Y329688D01*
X-4426Y329708D01*
X-4384Y329731D01*
X-4335Y329757D01*
X-4279Y329783D01*
X-4223Y329809D01*
X-4167Y329832D01*
Y329530D01*
X-4171D01*
X-4180Y329524D01*
X-4193Y329517D01*
X-4210Y329507D01*
X-4233Y329498D01*
X-4259Y329481D01*
X-4321Y329448D01*
X-4390Y329406D01*
X-4469Y329353D01*
X-4544Y329297D01*
X-4620Y329235D01*
X-4623Y329232D01*
X-4630Y329229D01*
X-4640Y329219D01*
X-4653Y329206D01*
X-4685Y329173D01*
X-4728Y329127D01*
X-4771Y329078D01*
X-4817Y329019D01*
X-4859Y328960D01*
X-4895Y328897D01*
X-5095D01*
Y331430D01*
X-4787D01*
Y329458D01*
D02*
G37*
G36*
X5484Y224105D02*
Y224102D01*
Y224089D01*
Y224069D01*
Y224043D01*
X5481Y224010D01*
Y223974D01*
X5478Y223932D01*
X5474Y223889D01*
X5461Y223790D01*
X5448Y223689D01*
X5425Y223590D01*
X5412Y223544D01*
X5396Y223502D01*
Y223499D01*
X5393Y223492D01*
X5386Y223479D01*
X5379Y223466D01*
X5370Y223446D01*
X5356Y223423D01*
X5324Y223374D01*
X5281Y223315D01*
X5229Y223256D01*
X5163Y223194D01*
X5124Y223164D01*
X5084Y223138D01*
X5081D01*
X5074Y223131D01*
X5061Y223125D01*
X5045Y223115D01*
X5022Y223105D01*
X4996Y223095D01*
X4963Y223082D01*
X4927Y223069D01*
X4887Y223056D01*
X4842Y223043D01*
X4796Y223033D01*
X4743Y223023D01*
X4687Y223013D01*
X4628Y223007D01*
X4563Y223003D01*
X4497Y223000D01*
X4464D01*
X4438Y223003D01*
X4408D01*
X4372Y223007D01*
X4333Y223010D01*
X4290Y223016D01*
X4199Y223029D01*
X4104Y223052D01*
X4005Y223082D01*
X3917Y223121D01*
X3913D01*
X3907Y223128D01*
X3893Y223134D01*
X3880Y223144D01*
X3841Y223170D01*
X3792Y223210D01*
X3739Y223259D01*
X3687Y223321D01*
X3638Y223390D01*
X3595Y223472D01*
Y223476D01*
X3592Y223482D01*
X3585Y223495D01*
X3582Y223515D01*
X3572Y223538D01*
X3566Y223567D01*
X3556Y223600D01*
X3549Y223640D01*
X3539Y223682D01*
X3529Y223728D01*
X3523Y223781D01*
X3516Y223836D01*
X3510Y223899D01*
X3503Y223964D01*
X3500Y224033D01*
Y224105D01*
Y225565D01*
X3835D01*
Y224109D01*
Y224105D01*
Y224096D01*
Y224076D01*
Y224056D01*
X3838Y224027D01*
Y223997D01*
X3841Y223961D01*
Y223925D01*
X3848Y223846D01*
X3861Y223764D01*
X3874Y223689D01*
X3884Y223656D01*
X3893Y223623D01*
Y223620D01*
X3897Y223617D01*
X3907Y223597D01*
X3920Y223571D01*
X3943Y223535D01*
X3972Y223499D01*
X4008Y223456D01*
X4051Y223420D01*
X4104Y223384D01*
X4107D01*
X4110Y223380D01*
X4130Y223371D01*
X4163Y223358D01*
X4205Y223344D01*
X4258Y223328D01*
X4320Y223315D01*
X4389Y223305D01*
X4468Y223302D01*
X4504D01*
X4527Y223305D01*
X4556Y223308D01*
X4592Y223311D01*
X4632Y223315D01*
X4671Y223321D01*
X4756Y223341D01*
X4845Y223371D01*
X4884Y223390D01*
X4924Y223413D01*
X4960Y223436D01*
X4992Y223466D01*
X4996Y223469D01*
X4999Y223476D01*
X5006Y223485D01*
X5019Y223499D01*
X5028Y223518D01*
X5042Y223544D01*
X5058Y223574D01*
X5071Y223610D01*
X5088Y223649D01*
X5101Y223695D01*
X5114Y223748D01*
X5127Y223807D01*
X5137Y223872D01*
X5143Y223945D01*
X5147Y224023D01*
X5150Y224109D01*
Y225565D01*
X5484D01*
Y224105D01*
D02*
G37*
G36*
X8764Y225571D02*
X8797Y225568D01*
X8833Y225565D01*
X8873Y225558D01*
X8915Y225549D01*
X9007Y225526D01*
X9053Y225509D01*
X9102Y225489D01*
X9151Y225466D01*
X9197Y225437D01*
X9240Y225408D01*
X9283Y225371D01*
X9286Y225368D01*
X9292Y225361D01*
X9302Y225352D01*
X9315Y225335D01*
X9332Y225316D01*
X9352Y225293D01*
X9368Y225266D01*
X9391Y225234D01*
X9410Y225201D01*
X9427Y225162D01*
X9463Y225076D01*
X9476Y225030D01*
X9486Y224981D01*
X9493Y224929D01*
X9496Y224873D01*
Y224866D01*
Y224847D01*
X9493Y224817D01*
X9489Y224778D01*
X9479Y224735D01*
X9470Y224683D01*
X9453Y224630D01*
X9433Y224574D01*
X9430Y224568D01*
X9420Y224548D01*
X9407Y224519D01*
X9384Y224482D01*
X9355Y224437D01*
X9319Y224384D01*
X9276Y224325D01*
X9227Y224266D01*
Y224263D01*
X9220Y224259D01*
X9210Y224250D01*
X9201Y224236D01*
X9184Y224220D01*
X9165Y224200D01*
X9142Y224178D01*
X9112Y224151D01*
X9082Y224122D01*
X9046Y224089D01*
X9007Y224049D01*
X8964Y224010D01*
X8915Y223968D01*
X8866Y223925D01*
X8807Y223876D01*
X8748Y223823D01*
X8745Y223820D01*
X8735Y223813D01*
X8722Y223800D01*
X8702Y223787D01*
X8682Y223767D01*
X8656Y223745D01*
X8600Y223695D01*
X8538Y223643D01*
X8479Y223590D01*
X8453Y223567D01*
X8430Y223544D01*
X8407Y223521D01*
X8390Y223505D01*
X8387Y223502D01*
X8377Y223492D01*
X8364Y223476D01*
X8344Y223453D01*
X8325Y223430D01*
X8302Y223400D01*
X8259Y223341D01*
X9499D01*
Y223043D01*
X7830D01*
Y223049D01*
Y223062D01*
Y223082D01*
X7833Y223112D01*
X7836Y223144D01*
X7843Y223180D01*
X7852Y223216D01*
X7866Y223256D01*
Y223259D01*
X7869Y223262D01*
X7872Y223272D01*
X7879Y223285D01*
X7892Y223318D01*
X7915Y223361D01*
X7944Y223413D01*
X7977Y223469D01*
X8020Y223528D01*
X8069Y223590D01*
X8072Y223594D01*
X8076Y223597D01*
X8085Y223607D01*
X8095Y223620D01*
X8128Y223656D01*
X8174Y223702D01*
X8230Y223758D01*
X8299Y223823D01*
X8381Y223895D01*
X8476Y223974D01*
X8479Y223977D01*
X8492Y223991D01*
X8515Y224007D01*
X8541Y224030D01*
X8574Y224059D01*
X8613Y224092D01*
X8656Y224128D01*
X8699Y224168D01*
X8791Y224253D01*
X8882Y224342D01*
X8925Y224387D01*
X8964Y224430D01*
X9001Y224469D01*
X9030Y224509D01*
X9033Y224512D01*
X9037Y224519D01*
X9043Y224528D01*
X9053Y224542D01*
X9063Y224561D01*
X9076Y224581D01*
X9105Y224630D01*
X9132Y224686D01*
X9155Y224748D01*
X9171Y224817D01*
X9178Y224850D01*
Y224883D01*
Y224886D01*
Y224892D01*
Y224899D01*
X9174Y224912D01*
X9171Y224948D01*
X9161Y224991D01*
X9145Y225040D01*
X9122Y225089D01*
X9089Y225142D01*
X9043Y225191D01*
X9037Y225198D01*
X9020Y225211D01*
X8991Y225230D01*
X8951Y225257D01*
X8902Y225280D01*
X8843Y225299D01*
X8774Y225312D01*
X8699Y225319D01*
X8676D01*
X8663Y225316D01*
X8643D01*
X8620Y225312D01*
X8571Y225303D01*
X8515Y225286D01*
X8453Y225263D01*
X8394Y225230D01*
X8341Y225184D01*
X8335Y225178D01*
X8322Y225162D01*
X8299Y225129D01*
X8276Y225089D01*
X8249Y225034D01*
X8226Y224971D01*
X8213Y224899D01*
X8207Y224814D01*
X7889Y224847D01*
Y224850D01*
X7892Y224863D01*
Y224879D01*
X7895Y224906D01*
X7902Y224935D01*
X7908Y224968D01*
X7918Y225007D01*
X7931Y225047D01*
X7961Y225135D01*
X7980Y225181D01*
X8003Y225224D01*
X8030Y225270D01*
X8059Y225312D01*
X8092Y225352D01*
X8131Y225388D01*
X8135Y225391D01*
X8141Y225394D01*
X8154Y225404D01*
X8171Y225417D01*
X8194Y225430D01*
X8220Y225447D01*
X8249Y225463D01*
X8286Y225483D01*
X8325Y225499D01*
X8367Y225516D01*
X8413Y225532D01*
X8466Y225545D01*
X8518Y225558D01*
X8577Y225568D01*
X8640Y225571D01*
X8705Y225575D01*
X8741D01*
X8764Y225571D01*
D02*
G37*
G36*
X7082Y223043D02*
X6773D01*
Y225014D01*
X6767Y225011D01*
X6754Y224997D01*
X6728Y224974D01*
X6695Y224948D01*
X6652Y224916D01*
X6600Y224879D01*
X6544Y224840D01*
X6478Y224801D01*
X6475D01*
X6472Y224797D01*
X6462Y224791D01*
X6449Y224784D01*
X6413Y224765D01*
X6370Y224742D01*
X6321Y224715D01*
X6265Y224689D01*
X6209Y224663D01*
X6154Y224640D01*
Y224942D01*
X6157D01*
X6167Y224948D01*
X6180Y224955D01*
X6196Y224965D01*
X6219Y224974D01*
X6245Y224991D01*
X6308Y225024D01*
X6376Y225066D01*
X6455Y225119D01*
X6531Y225175D01*
X6606Y225237D01*
X6609Y225240D01*
X6616Y225243D01*
X6626Y225253D01*
X6639Y225266D01*
X6672Y225299D01*
X6714Y225345D01*
X6757Y225394D01*
X6803Y225453D01*
X6846Y225512D01*
X6882Y225575D01*
X7082D01*
Y223043D01*
D02*
G37*
G36*
X-82219Y445059D02*
X-82222Y445029D01*
Y444967D01*
X-82229Y444895D01*
X-82235Y444819D01*
X-82245Y444747D01*
X-82258Y444685D01*
Y444681D01*
X-82261Y444675D01*
X-82265Y444662D01*
X-82268Y444649D01*
X-82275Y444629D01*
X-82281Y444606D01*
X-82297Y444557D01*
X-82324Y444498D01*
X-82353Y444435D01*
X-82393Y444373D01*
X-82439Y444314D01*
X-82442Y444311D01*
X-82445Y444304D01*
X-82455Y444294D01*
X-82468Y444281D01*
X-82485Y444265D01*
X-82504Y444245D01*
X-82527Y444226D01*
X-82553Y444203D01*
X-82616Y444153D01*
X-82691Y444104D01*
X-82773Y444055D01*
X-82868Y444016D01*
X-82872D01*
X-82881Y444012D01*
X-82894Y444006D01*
X-82914Y443999D01*
X-82940Y443993D01*
X-82970Y443983D01*
X-83003Y443973D01*
X-83042Y443963D01*
X-83085Y443957D01*
X-83131Y443947D01*
X-83180Y443937D01*
X-83232Y443930D01*
X-83347Y443917D01*
X-83469Y443914D01*
X-83472D01*
X-83482D01*
X-83495D01*
X-83518D01*
X-83541Y443917D01*
X-83570D01*
X-83603Y443921D01*
X-83639Y443924D01*
X-83718Y443930D01*
X-83803Y443943D01*
X-83892Y443960D01*
X-83977Y443983D01*
X-83980D01*
X-83987Y443986D01*
X-84000Y443989D01*
X-84013Y443996D01*
X-84033Y444002D01*
X-84056Y444009D01*
X-84105Y444029D01*
X-84164Y444052D01*
X-84226Y444081D01*
X-84289Y444117D01*
X-84344Y444153D01*
X-84351Y444157D01*
X-84367Y444173D01*
X-84393Y444193D01*
X-84426Y444222D01*
X-84462Y444255D01*
X-84502Y444294D01*
X-84538Y444340D01*
X-84574Y444386D01*
X-84577Y444393D01*
X-84587Y444409D01*
X-84603Y444435D01*
X-84620Y444472D01*
X-84639Y444514D01*
X-84662Y444567D01*
X-84682Y444626D01*
X-84698Y444688D01*
Y444691D01*
X-84702Y444695D01*
Y444704D01*
X-84705Y444718D01*
X-84708Y444734D01*
X-84712Y444754D01*
X-84718Y444803D01*
X-84728Y444862D01*
X-84735Y444931D01*
X-84738Y445009D01*
X-84741Y445091D01*
Y446000D01*
X-82219D01*
Y445059D01*
D02*
G37*
G36*
X-84672Y443622D02*
X-84639Y443619D01*
X-84603Y443612D01*
X-84567Y443602D01*
X-84528Y443589D01*
X-84525D01*
X-84521Y443586D01*
X-84512Y443583D01*
X-84498Y443576D01*
X-84466Y443563D01*
X-84423Y443540D01*
X-84370Y443510D01*
X-84315Y443478D01*
X-84256Y443435D01*
X-84193Y443386D01*
X-84190Y443383D01*
X-84187Y443379D01*
X-84177Y443369D01*
X-84164Y443360D01*
X-84128Y443327D01*
X-84082Y443281D01*
X-84026Y443225D01*
X-83960Y443156D01*
X-83888Y443074D01*
X-83810Y442979D01*
X-83806Y442976D01*
X-83793Y442963D01*
X-83777Y442940D01*
X-83754Y442913D01*
X-83724Y442881D01*
X-83692Y442841D01*
X-83655Y442799D01*
X-83616Y442756D01*
X-83531Y442664D01*
X-83442Y442572D01*
X-83396Y442530D01*
X-83354Y442490D01*
X-83314Y442454D01*
X-83275Y442425D01*
X-83272Y442421D01*
X-83265Y442418D01*
X-83255Y442412D01*
X-83242Y442402D01*
X-83223Y442392D01*
X-83203Y442379D01*
X-83154Y442349D01*
X-83098Y442323D01*
X-83035Y442300D01*
X-82967Y442284D01*
X-82934Y442277D01*
X-82901D01*
X-82898D01*
X-82891D01*
X-82885D01*
X-82872Y442280D01*
X-82835Y442284D01*
X-82793Y442294D01*
X-82744Y442310D01*
X-82694Y442333D01*
X-82642Y442366D01*
X-82593Y442412D01*
X-82586Y442418D01*
X-82573Y442435D01*
X-82553Y442464D01*
X-82527Y442503D01*
X-82504Y442553D01*
X-82485Y442612D01*
X-82471Y442681D01*
X-82465Y442756D01*
Y442779D01*
X-82468Y442792D01*
Y442812D01*
X-82471Y442835D01*
X-82481Y442884D01*
X-82498Y442940D01*
X-82521Y443002D01*
X-82553Y443061D01*
X-82599Y443114D01*
X-82606Y443120D01*
X-82622Y443133D01*
X-82655Y443156D01*
X-82694Y443179D01*
X-82750Y443205D01*
X-82812Y443228D01*
X-82885Y443242D01*
X-82970Y443248D01*
X-82937Y443566D01*
X-82934D01*
X-82921Y443563D01*
X-82904D01*
X-82878Y443560D01*
X-82849Y443553D01*
X-82816Y443547D01*
X-82776Y443537D01*
X-82737Y443524D01*
X-82648Y443494D01*
X-82603Y443474D01*
X-82560Y443451D01*
X-82514Y443425D01*
X-82471Y443396D01*
X-82432Y443363D01*
X-82396Y443324D01*
X-82393Y443320D01*
X-82389Y443314D01*
X-82380Y443301D01*
X-82366Y443284D01*
X-82353Y443261D01*
X-82337Y443235D01*
X-82320Y443205D01*
X-82301Y443169D01*
X-82284Y443130D01*
X-82268Y443087D01*
X-82252Y443041D01*
X-82239Y442989D01*
X-82225Y442937D01*
X-82215Y442877D01*
X-82212Y442815D01*
X-82209Y442750D01*
Y442713D01*
X-82212Y442691D01*
X-82215Y442658D01*
X-82219Y442622D01*
X-82225Y442582D01*
X-82235Y442540D01*
X-82258Y442448D01*
X-82275Y442402D01*
X-82294Y442353D01*
X-82317Y442303D01*
X-82347Y442257D01*
X-82376Y442215D01*
X-82412Y442172D01*
X-82416Y442169D01*
X-82422Y442162D01*
X-82432Y442153D01*
X-82448Y442139D01*
X-82468Y442123D01*
X-82491Y442103D01*
X-82517Y442087D01*
X-82550Y442064D01*
X-82583Y442044D01*
X-82622Y442028D01*
X-82708Y441992D01*
X-82753Y441979D01*
X-82803Y441969D01*
X-82855Y441962D01*
X-82911Y441959D01*
X-82917D01*
X-82937D01*
X-82967Y441962D01*
X-83006Y441966D01*
X-83049Y441975D01*
X-83101Y441985D01*
X-83154Y442002D01*
X-83209Y442021D01*
X-83216Y442025D01*
X-83236Y442034D01*
X-83265Y442048D01*
X-83301Y442071D01*
X-83347Y442100D01*
X-83400Y442136D01*
X-83459Y442179D01*
X-83518Y442228D01*
X-83521D01*
X-83524Y442235D01*
X-83534Y442244D01*
X-83547Y442254D01*
X-83564Y442271D01*
X-83583Y442290D01*
X-83606Y442313D01*
X-83632Y442343D01*
X-83662Y442372D01*
X-83695Y442408D01*
X-83734Y442448D01*
X-83773Y442490D01*
X-83816Y442540D01*
X-83859Y442589D01*
X-83908Y442648D01*
X-83960Y442707D01*
X-83964Y442710D01*
X-83970Y442720D01*
X-83983Y442733D01*
X-83997Y442753D01*
X-84016Y442772D01*
X-84039Y442799D01*
X-84088Y442854D01*
X-84141Y442917D01*
X-84193Y442976D01*
X-84216Y443002D01*
X-84239Y443025D01*
X-84262Y443048D01*
X-84279Y443064D01*
X-84282Y443068D01*
X-84292Y443078D01*
X-84308Y443091D01*
X-84331Y443110D01*
X-84354Y443130D01*
X-84384Y443153D01*
X-84443Y443196D01*
Y441956D01*
X-84741D01*
Y443625D01*
X-84735D01*
X-84721D01*
X-84702D01*
X-84672Y443622D01*
D02*
G37*
G36*
X-168348Y428960D02*
X-167744D01*
Y428651D01*
X-168348D01*
Y427556D01*
X-168633D01*
X-170266Y428707D01*
Y428960D01*
X-168633D01*
Y429301D01*
X-168348D01*
Y428960D01*
D02*
G37*
G36*
X-168944Y427323D02*
X-168915D01*
X-168882Y427320D01*
X-168846Y427316D01*
X-168767Y427310D01*
X-168682Y427297D01*
X-168594Y427280D01*
X-168508Y427257D01*
X-168505D01*
X-168498Y427254D01*
X-168485Y427251D01*
X-168472Y427244D01*
X-168452Y427238D01*
X-168430Y427231D01*
X-168380Y427211D01*
X-168321Y427188D01*
X-168259Y427159D01*
X-168197Y427123D01*
X-168141Y427087D01*
X-168134Y427083D01*
X-168118Y427067D01*
X-168092Y427047D01*
X-168059Y427018D01*
X-168023Y426985D01*
X-167983Y426946D01*
X-167947Y426900D01*
X-167911Y426854D01*
X-167908Y426847D01*
X-167898Y426831D01*
X-167882Y426805D01*
X-167865Y426769D01*
X-167846Y426726D01*
X-167823Y426674D01*
X-167803Y426615D01*
X-167787Y426552D01*
Y426549D01*
X-167783Y426546D01*
Y426536D01*
X-167780Y426523D01*
X-167777Y426506D01*
X-167773Y426487D01*
X-167767Y426437D01*
X-167757Y426378D01*
X-167751Y426309D01*
X-167747Y426231D01*
X-167744Y426149D01*
Y425240D01*
X-170266D01*
Y426182D01*
X-170263Y426211D01*
Y426273D01*
X-170256Y426345D01*
X-170250Y426421D01*
X-170240Y426493D01*
X-170227Y426555D01*
Y426559D01*
X-170224Y426565D01*
X-170220Y426578D01*
X-170217Y426591D01*
X-170211Y426611D01*
X-170204Y426634D01*
X-170188Y426683D01*
X-170161Y426742D01*
X-170132Y426805D01*
X-170092Y426867D01*
X-170046Y426926D01*
X-170043Y426929D01*
X-170040Y426936D01*
X-170030Y426946D01*
X-170017Y426959D01*
X-170001Y426975D01*
X-169981Y426995D01*
X-169958Y427015D01*
X-169932Y427038D01*
X-169869Y427087D01*
X-169794Y427136D01*
X-169712Y427185D01*
X-169617Y427225D01*
X-169614D01*
X-169604Y427228D01*
X-169591Y427234D01*
X-169571Y427241D01*
X-169545Y427247D01*
X-169515Y427257D01*
X-169482Y427267D01*
X-169443Y427277D01*
X-169400Y427284D01*
X-169354Y427293D01*
X-169305Y427303D01*
X-169253Y427310D01*
X-169138Y427323D01*
X-169017Y427326D01*
X-169013D01*
X-169003D01*
X-168990D01*
X-168967D01*
X-168944Y427323D01*
D02*
G37*
G36*
X-107429Y459976D02*
X-107400D01*
X-107364Y459973D01*
X-107328Y459970D01*
X-107285Y459967D01*
X-107196Y459957D01*
X-107098Y459937D01*
X-107003Y459914D01*
X-106911Y459881D01*
X-106908D01*
X-106901Y459878D01*
X-106888Y459871D01*
X-106872Y459862D01*
X-106855Y459852D01*
X-106832Y459839D01*
X-106780Y459806D01*
X-106721Y459763D01*
X-106662Y459711D01*
X-106603Y459649D01*
X-106550Y459580D01*
Y459576D01*
X-106544Y459570D01*
X-106537Y459560D01*
X-106530Y459544D01*
X-106521Y459524D01*
X-106508Y459504D01*
X-106498Y459478D01*
X-106485Y459448D01*
X-106458Y459379D01*
X-106435Y459304D01*
X-106419Y459215D01*
X-106412Y459124D01*
X-106727Y459097D01*
Y459101D01*
Y459107D01*
X-106731Y459117D01*
Y459130D01*
X-106737Y459163D01*
X-106747Y459209D01*
X-106760Y459258D01*
X-106780Y459311D01*
X-106803Y459363D01*
X-106829Y459412D01*
X-106832Y459419D01*
X-106845Y459432D01*
X-106865Y459455D01*
X-106891Y459481D01*
X-106927Y459514D01*
X-106970Y459547D01*
X-107023Y459580D01*
X-107082Y459609D01*
X-107085D01*
X-107088Y459612D01*
X-107098Y459616D01*
X-107111Y459619D01*
X-107127Y459625D01*
X-107147Y459632D01*
X-107196Y459645D01*
X-107252Y459658D01*
X-107318Y459671D01*
X-107390Y459678D01*
X-107469Y459681D01*
X-107501D01*
X-107537Y459678D01*
X-107583Y459675D01*
X-107633Y459668D01*
X-107692Y459658D01*
X-107747Y459645D01*
X-107803Y459625D01*
X-107806D01*
X-107810Y459622D01*
X-107826Y459616D01*
X-107852Y459603D01*
X-107885Y459586D01*
X-107921Y459563D01*
X-107957Y459537D01*
X-107993Y459507D01*
X-108023Y459471D01*
X-108026Y459468D01*
X-108033Y459455D01*
X-108046Y459432D01*
X-108059Y459406D01*
X-108072Y459373D01*
X-108085Y459337D01*
X-108092Y459298D01*
X-108095Y459255D01*
Y459248D01*
Y459235D01*
X-108092Y459212D01*
X-108085Y459186D01*
X-108079Y459153D01*
X-108066Y459117D01*
X-108046Y459081D01*
X-108023Y459048D01*
X-108020Y459045D01*
X-108010Y459032D01*
X-107993Y459015D01*
X-107970Y458996D01*
X-107938Y458973D01*
X-107898Y458950D01*
X-107852Y458924D01*
X-107797Y458901D01*
X-107790Y458897D01*
X-107777Y458894D01*
X-107764Y458887D01*
X-107747Y458884D01*
X-107728Y458878D01*
X-107702Y458871D01*
X-107675Y458861D01*
X-107642Y458855D01*
X-107606Y458845D01*
X-107564Y458832D01*
X-107518Y458822D01*
X-107465Y458809D01*
X-107410Y458796D01*
X-107347Y458779D01*
X-107344D01*
X-107331Y458776D01*
X-107315Y458769D01*
X-107291Y458766D01*
X-107262Y458756D01*
X-107232Y458750D01*
X-107157Y458727D01*
X-107078Y458704D01*
X-106996Y458674D01*
X-106924Y458648D01*
X-106891Y458632D01*
X-106862Y458619D01*
X-106859D01*
X-106855Y458615D01*
X-106845Y458609D01*
X-106832Y458602D01*
X-106799Y458582D01*
X-106760Y458553D01*
X-106718Y458520D01*
X-106672Y458481D01*
X-106629Y458435D01*
X-106593Y458386D01*
Y458382D01*
X-106590Y458379D01*
X-106580Y458359D01*
X-106567Y458333D01*
X-106550Y458294D01*
X-106534Y458248D01*
X-106521Y458192D01*
X-106511Y458133D01*
X-106508Y458071D01*
Y458068D01*
Y458061D01*
Y458051D01*
X-106511Y458038D01*
X-106514Y458002D01*
X-106521Y457953D01*
X-106534Y457897D01*
X-106553Y457838D01*
X-106580Y457776D01*
X-106616Y457713D01*
Y457710D01*
X-106622Y457707D01*
X-106635Y457687D01*
X-106662Y457654D01*
X-106694Y457618D01*
X-106740Y457579D01*
X-106793Y457536D01*
X-106859Y457497D01*
X-106931Y457461D01*
X-106934D01*
X-106940Y457457D01*
X-106950Y457451D01*
X-106967Y457448D01*
X-106986Y457441D01*
X-107009Y457431D01*
X-107036Y457425D01*
X-107065Y457415D01*
X-107134Y457402D01*
X-107213Y457385D01*
X-107301Y457375D01*
X-107393Y457372D01*
X-107439D01*
X-107465Y457375D01*
X-107492D01*
X-107524Y457379D01*
X-107560Y457382D01*
X-107636Y457395D01*
X-107718Y457411D01*
X-107803Y457435D01*
X-107885Y457464D01*
X-107888D01*
X-107895Y457467D01*
X-107905Y457474D01*
X-107921Y457480D01*
X-107961Y457503D01*
X-108007Y457533D01*
X-108062Y457569D01*
X-108115Y457615D01*
X-108170Y457671D01*
X-108217Y457733D01*
Y457736D01*
X-108223Y457739D01*
X-108226Y457749D01*
X-108236Y457762D01*
X-108243Y457779D01*
X-108253Y457799D01*
X-108275Y457848D01*
X-108299Y457907D01*
X-108318Y457972D01*
X-108335Y458048D01*
X-108341Y458127D01*
X-108020Y458149D01*
Y458146D01*
Y458140D01*
X-108016Y458127D01*
X-108013Y458110D01*
X-108010Y458090D01*
X-108003Y458068D01*
X-107987Y458015D01*
X-107964Y457959D01*
X-107934Y457900D01*
X-107895Y457841D01*
X-107843Y457792D01*
X-107836Y457786D01*
X-107826Y457782D01*
X-107816Y457772D01*
X-107800Y457762D01*
X-107780Y457753D01*
X-107757Y457743D01*
X-107734Y457730D01*
X-107705Y457720D01*
X-107672Y457710D01*
X-107636Y457700D01*
X-107597Y457690D01*
X-107554Y457681D01*
X-107508Y457677D01*
X-107459Y457671D01*
X-107357D01*
X-107331Y457674D01*
X-107305Y457677D01*
X-107239Y457684D01*
X-107167Y457697D01*
X-107095Y457717D01*
X-107026Y457746D01*
X-106993Y457762D01*
X-106967Y457782D01*
X-106960Y457789D01*
X-106944Y457802D01*
X-106924Y457825D01*
X-106898Y457858D01*
X-106872Y457897D01*
X-106852Y457943D01*
X-106836Y457995D01*
X-106829Y458051D01*
Y458058D01*
Y458074D01*
X-106836Y458097D01*
X-106842Y458130D01*
X-106852Y458166D01*
X-106868Y458202D01*
X-106891Y458238D01*
X-106924Y458274D01*
X-106931Y458278D01*
X-106937Y458284D01*
X-106947Y458287D01*
X-106960Y458297D01*
X-106977Y458307D01*
X-107000Y458317D01*
X-107023Y458327D01*
X-107055Y458340D01*
X-107091Y458356D01*
X-107131Y458369D01*
X-107177Y458386D01*
X-107229Y458402D01*
X-107288Y458419D01*
X-107354Y458435D01*
X-107426Y458451D01*
X-107429D01*
X-107442Y458455D01*
X-107465Y458461D01*
X-107492Y458468D01*
X-107524Y458474D01*
X-107564Y458484D01*
X-107603Y458494D01*
X-107649Y458507D01*
X-107741Y458530D01*
X-107833Y458556D01*
X-107875Y458573D01*
X-107918Y458586D01*
X-107954Y458599D01*
X-107984Y458612D01*
X-107987D01*
X-107993Y458615D01*
X-108003Y458622D01*
X-108020Y458632D01*
X-108059Y458651D01*
X-108108Y458681D01*
X-108161Y458720D01*
X-108213Y458763D01*
X-108266Y458815D01*
X-108308Y458871D01*
Y458874D01*
X-108312Y458878D01*
X-108318Y458887D01*
X-108325Y458897D01*
X-108341Y458930D01*
X-108364Y458973D01*
X-108384Y459025D01*
X-108400Y459088D01*
X-108413Y459153D01*
X-108416Y459229D01*
Y459232D01*
Y459238D01*
Y459248D01*
X-108413Y459261D01*
Y459281D01*
X-108410Y459301D01*
X-108403Y459350D01*
X-108387Y459409D01*
X-108367Y459471D01*
X-108338Y459540D01*
X-108299Y459606D01*
Y459609D01*
X-108292Y459612D01*
X-108285Y459622D01*
X-108279Y459635D01*
X-108249Y459668D01*
X-108213Y459707D01*
X-108167Y459750D01*
X-108112Y459796D01*
X-108043Y459842D01*
X-107967Y459881D01*
X-107964D01*
X-107957Y459885D01*
X-107944Y459891D01*
X-107931Y459898D01*
X-107908Y459904D01*
X-107885Y459911D01*
X-107859Y459921D01*
X-107826Y459931D01*
X-107757Y459947D01*
X-107675Y459963D01*
X-107583Y459976D01*
X-107485Y459980D01*
X-107452D01*
X-107429Y459976D01*
D02*
G37*
G36*
X-108643Y457415D02*
X-108987D01*
X-109368Y459071D01*
Y459074D01*
X-109371Y459084D01*
X-109374Y459097D01*
X-109378Y459117D01*
X-109384Y459140D01*
X-109391Y459166D01*
X-109397Y459199D01*
X-109404Y459232D01*
X-109420Y459311D01*
X-109440Y459399D01*
X-109456Y459491D01*
X-109473Y459586D01*
Y459583D01*
X-109476Y459570D01*
X-109483Y459547D01*
X-109489Y459521D01*
X-109496Y459491D01*
X-109505Y459455D01*
X-109525Y459376D01*
X-109545Y459294D01*
X-109555Y459255D01*
X-109561Y459219D01*
X-109571Y459186D01*
X-109578Y459160D01*
X-109584Y459137D01*
X-109588Y459120D01*
X-110066Y457415D01*
X-110470D01*
X-110827Y458694D01*
X-110831Y458701D01*
X-110834Y458714D01*
X-110840Y458740D01*
X-110850Y458776D01*
X-110860Y458815D01*
X-110873Y458868D01*
X-110890Y458924D01*
X-110903Y458983D01*
X-110919Y459052D01*
X-110936Y459120D01*
X-110952Y459196D01*
X-110968Y459271D01*
X-111001Y459429D01*
X-111027Y459586D01*
Y459583D01*
X-111031Y459576D01*
X-111034Y459563D01*
X-111037Y459544D01*
X-111040Y459521D01*
X-111047Y459494D01*
X-111054Y459461D01*
X-111060Y459429D01*
X-111070Y459389D01*
X-111080Y459347D01*
X-111100Y459255D01*
X-111126Y459150D01*
X-111152Y459038D01*
X-111549Y457415D01*
X-111887D01*
X-111195Y459937D01*
X-110870D01*
X-110342Y458018D01*
Y458015D01*
X-110339Y458008D01*
X-110335Y457995D01*
X-110332Y457979D01*
X-110319Y457940D01*
X-110306Y457890D01*
X-110293Y457838D01*
X-110280Y457789D01*
X-110266Y457749D01*
X-110263Y457733D01*
X-110260Y457720D01*
Y457723D01*
X-110257Y457726D01*
Y457736D01*
X-110253Y457749D01*
X-110247Y457782D01*
X-110237Y457822D01*
X-110224Y457867D01*
X-110211Y457920D01*
X-110198Y457969D01*
X-110184Y458018D01*
X-109653Y459937D01*
X-109302D01*
X-108643Y457415D01*
D02*
G37*
G36*
X-112930Y457966D02*
X-112923Y457969D01*
X-112910Y457982D01*
X-112884Y458005D01*
X-112851Y458032D01*
X-112808Y458064D01*
X-112756Y458100D01*
X-112700Y458140D01*
X-112635Y458179D01*
X-112631D01*
X-112628Y458182D01*
X-112618Y458189D01*
X-112605Y458195D01*
X-112569Y458215D01*
X-112526Y458238D01*
X-112477Y458264D01*
X-112421Y458291D01*
X-112366Y458317D01*
X-112310Y458340D01*
Y458038D01*
X-112313D01*
X-112323Y458032D01*
X-112336Y458025D01*
X-112353Y458015D01*
X-112375Y458005D01*
X-112402Y457989D01*
X-112464Y457956D01*
X-112533Y457913D01*
X-112612Y457861D01*
X-112687Y457805D01*
X-112762Y457743D01*
X-112766Y457739D01*
X-112772Y457736D01*
X-112782Y457726D01*
X-112795Y457713D01*
X-112828Y457681D01*
X-112871Y457635D01*
X-112913Y457585D01*
X-112959Y457526D01*
X-113002Y457467D01*
X-113038Y457405D01*
X-113238D01*
Y459937D01*
X-112930D01*
Y457966D01*
D02*
G37*
G36*
X-12227Y429843D02*
X-14199D01*
X-14195Y429836D01*
X-14182Y429823D01*
X-14159Y429797D01*
X-14133Y429764D01*
X-14100Y429721D01*
X-14064Y429669D01*
X-14025Y429613D01*
X-13985Y429547D01*
Y429544D01*
X-13982Y429541D01*
X-13976Y429531D01*
X-13969Y429518D01*
X-13949Y429482D01*
X-13926Y429439D01*
X-13900Y429390D01*
X-13874Y429334D01*
X-13848Y429278D01*
X-13825Y429222D01*
X-14127D01*
Y429226D01*
X-14133Y429236D01*
X-14140Y429249D01*
X-14150Y429265D01*
X-14159Y429288D01*
X-14176Y429314D01*
X-14209Y429377D01*
X-14251Y429446D01*
X-14304Y429524D01*
X-14359Y429600D01*
X-14422Y429675D01*
X-14425Y429678D01*
X-14428Y429685D01*
X-14438Y429695D01*
X-14451Y429708D01*
X-14484Y429741D01*
X-14530Y429783D01*
X-14579Y429826D01*
X-14638Y429872D01*
X-14697Y429915D01*
X-14760Y429951D01*
Y430151D01*
X-12227D01*
Y429843D01*
D02*
G37*
G36*
X-14451Y427310D02*
X-13671D01*
Y428494D01*
X-13372D01*
Y427310D01*
X-12227D01*
Y426976D01*
X-14750D01*
Y428678D01*
X-14451D01*
Y427310D01*
D02*
G37*
%LPC*%
G36*
X104931Y102784D02*
Y101990D01*
X106070D01*
X104931Y102784D01*
D02*
G37*
G36*
X105712Y100705D02*
X105709D01*
X105702D01*
X105689D01*
X105673Y100701D01*
X105650D01*
X105627Y100698D01*
X105571Y100688D01*
X105509Y100669D01*
X105443Y100646D01*
X105377Y100610D01*
X105348Y100590D01*
X105318Y100564D01*
Y100560D01*
X105312Y100557D01*
X105296Y100537D01*
X105273Y100508D01*
X105246Y100465D01*
X105217Y100413D01*
X105194Y100350D01*
X105177Y100282D01*
X105174Y100242D01*
X105171Y100203D01*
Y100183D01*
X105174Y100167D01*
Y100150D01*
X105177Y100127D01*
X105191Y100078D01*
X105207Y100022D01*
X105233Y99963D01*
X105269Y99908D01*
X105292Y99878D01*
X105318Y99852D01*
X105322Y99849D01*
X105325Y99845D01*
X105335Y99839D01*
X105348Y99829D01*
X105361Y99819D01*
X105381Y99806D01*
X105427Y99780D01*
X105486Y99757D01*
X105558Y99734D01*
X105643Y99717D01*
X105689Y99711D01*
X105738D01*
X105742D01*
X105752D01*
X105765D01*
X105781Y99714D01*
X105804D01*
X105830Y99717D01*
X105893Y99727D01*
X105958Y99744D01*
X106030Y99770D01*
X106099Y99806D01*
X106132Y99826D01*
X106161Y99852D01*
X106165D01*
X106168Y99858D01*
X106188Y99878D01*
X106211Y99908D01*
X106240Y99947D01*
X106270Y99996D01*
X106296Y100055D01*
X106312Y100124D01*
X106316Y100160D01*
X106319Y100196D01*
Y100216D01*
X106316Y100232D01*
X106312Y100249D01*
X106309Y100268D01*
X106299Y100318D01*
X106276Y100373D01*
X106247Y100436D01*
X106227Y100465D01*
X106204Y100495D01*
X106178Y100524D01*
X106148Y100554D01*
X106145D01*
X106142Y100560D01*
X106132Y100567D01*
X106119Y100577D01*
X106102Y100590D01*
X106083Y100603D01*
X106056Y100616D01*
X106030Y100629D01*
X105968Y100655D01*
X105893Y100682D01*
X105807Y100698D01*
X105761Y100701D01*
X105712Y100705D01*
D02*
G37*
G36*
X123Y331131D02*
X-592D01*
X-667Y331128D01*
X-700Y331124D01*
X-730Y331121D01*
X-736D01*
X-749Y331118D01*
X-769Y331111D01*
X-795Y331105D01*
X-828Y331095D01*
X-858Y331085D01*
X-891Y331069D01*
X-920Y331052D01*
X-923Y331049D01*
X-933Y331043D01*
X-946Y331033D01*
X-966Y331016D01*
X-986Y330997D01*
X-1009Y330970D01*
X-1028Y330944D01*
X-1048Y330911D01*
X-1051Y330908D01*
X-1058Y330895D01*
X-1064Y330875D01*
X-1074Y330849D01*
X-1084Y330819D01*
X-1094Y330783D01*
X-1097Y330741D01*
X-1100Y330698D01*
Y330692D01*
Y330675D01*
X-1097Y330649D01*
X-1091Y330616D01*
X-1081Y330577D01*
X-1068Y330537D01*
X-1051Y330495D01*
X-1025Y330455D01*
X-1022Y330452D01*
X-1012Y330439D01*
X-995Y330419D01*
X-972Y330396D01*
X-943Y330373D01*
X-910Y330347D01*
X-871Y330327D01*
X-825Y330308D01*
X-818Y330305D01*
X-802Y330301D01*
X-772Y330295D01*
X-730Y330285D01*
X-681Y330278D01*
X-615Y330272D01*
X-543Y330268D01*
X-458Y330265D01*
X123D01*
Y331131D01*
D02*
G37*
G36*
Y329967D02*
X-497D01*
X-543Y329963D01*
X-595Y329960D01*
X-648Y329957D01*
X-697Y329950D01*
X-736Y329940D01*
X-743Y329937D01*
X-756Y329934D01*
X-779Y329924D01*
X-809Y329911D01*
X-841Y329891D01*
X-871Y329872D01*
X-904Y329845D01*
X-930Y329816D01*
X-933Y329813D01*
X-940Y329799D01*
X-950Y329780D01*
X-963Y329753D01*
X-976Y329724D01*
X-986Y329685D01*
X-992Y329642D01*
X-995Y329593D01*
Y329586D01*
Y329573D01*
X-992Y329547D01*
X-989Y329517D01*
X-979Y329485D01*
X-969Y329448D01*
X-953Y329409D01*
X-933Y329373D01*
X-930Y329370D01*
X-923Y329357D01*
X-910Y329340D01*
X-891Y329321D01*
X-864Y329297D01*
X-838Y329278D01*
X-802Y329258D01*
X-763Y329242D01*
X-756Y329239D01*
X-740Y329235D01*
X-713Y329229D01*
X-674Y329222D01*
X-648Y329219D01*
X-622Y329216D01*
X-589D01*
X-553Y329212D01*
X-517Y329209D01*
X-474Y329206D01*
X123D01*
Y329967D01*
D02*
G37*
G36*
X-82517Y445665D02*
X-84443D01*
Y445065D01*
X-84439Y445042D01*
X-84436Y444986D01*
X-84433Y444924D01*
X-84423Y444859D01*
X-84413Y444793D01*
X-84397Y444737D01*
Y444734D01*
X-84393Y444731D01*
X-84387Y444714D01*
X-84377Y444688D01*
X-84364Y444655D01*
X-84344Y444619D01*
X-84325Y444583D01*
X-84298Y444544D01*
X-84269Y444511D01*
X-84262Y444504D01*
X-84246Y444491D01*
X-84220Y444472D01*
X-84184Y444442D01*
X-84138Y444413D01*
X-84082Y444383D01*
X-84020Y444353D01*
X-83947Y444327D01*
X-83944D01*
X-83938Y444324D01*
X-83928Y444321D01*
X-83911Y444317D01*
X-83892Y444311D01*
X-83869Y444304D01*
X-83842Y444298D01*
X-83813Y444291D01*
X-83777Y444288D01*
X-83741Y444281D01*
X-83659Y444268D01*
X-83564Y444262D01*
X-83462Y444258D01*
X-83459D01*
X-83446D01*
X-83423D01*
X-83396Y444262D01*
X-83363D01*
X-83327Y444265D01*
X-83285Y444268D01*
X-83239Y444275D01*
X-83140Y444291D01*
X-83039Y444314D01*
X-82944Y444347D01*
X-82898Y444367D01*
X-82855Y444389D01*
X-82852D01*
X-82845Y444396D01*
X-82835Y444403D01*
X-82819Y444413D01*
X-82783Y444442D01*
X-82740Y444478D01*
X-82691Y444524D01*
X-82645Y444577D01*
X-82603Y444639D01*
X-82586Y444672D01*
X-82570Y444704D01*
X-82566Y444711D01*
X-82563Y444718D01*
X-82560Y444731D01*
X-82557Y444744D01*
X-82553Y444763D01*
X-82547Y444783D01*
X-82543Y444809D01*
X-82537Y444836D01*
X-82534Y444868D01*
X-82530Y444905D01*
X-82524Y444944D01*
X-82521Y444986D01*
Y445032D01*
X-82517Y445082D01*
Y445665D01*
D02*
G37*
G36*
X-168633Y428651D02*
X-169771D01*
X-168633Y427858D01*
Y428651D01*
D02*
G37*
G36*
X-169023Y426982D02*
X-169026D01*
X-169040D01*
X-169062D01*
X-169089Y426979D01*
X-169122D01*
X-169158Y426975D01*
X-169200Y426972D01*
X-169246Y426965D01*
X-169345Y426949D01*
X-169446Y426926D01*
X-169541Y426893D01*
X-169587Y426874D01*
X-169630Y426851D01*
X-169633D01*
X-169640Y426844D01*
X-169650Y426837D01*
X-169666Y426828D01*
X-169702Y426798D01*
X-169745Y426762D01*
X-169794Y426716D01*
X-169840Y426664D01*
X-169883Y426601D01*
X-169899Y426569D01*
X-169915Y426536D01*
X-169919Y426529D01*
X-169922Y426523D01*
X-169925Y426510D01*
X-169928Y426496D01*
X-169932Y426477D01*
X-169938Y426457D01*
X-169942Y426431D01*
X-169948Y426405D01*
X-169951Y426372D01*
X-169955Y426336D01*
X-169961Y426296D01*
X-169965Y426254D01*
Y426208D01*
X-169968Y426159D01*
Y425575D01*
X-168042D01*
Y426175D01*
X-168046Y426198D01*
X-168049Y426254D01*
X-168052Y426316D01*
X-168062Y426382D01*
X-168072Y426447D01*
X-168088Y426503D01*
Y426506D01*
X-168092Y426510D01*
X-168098Y426526D01*
X-168108Y426552D01*
X-168121Y426585D01*
X-168141Y426621D01*
X-168160Y426657D01*
X-168187Y426696D01*
X-168216Y426729D01*
X-168223Y426736D01*
X-168239Y426749D01*
X-168265Y426769D01*
X-168302Y426798D01*
X-168348Y426828D01*
X-168403Y426857D01*
X-168466Y426887D01*
X-168538Y426913D01*
X-168541D01*
X-168548Y426916D01*
X-168557Y426920D01*
X-168574Y426923D01*
X-168594Y426929D01*
X-168616Y426936D01*
X-168643Y426942D01*
X-168672Y426949D01*
X-168708Y426952D01*
X-168744Y426959D01*
X-168826Y426972D01*
X-168921Y426979D01*
X-169023Y426982D01*
D02*
G37*
%LPD*%
D12*
X99555Y114473D02*
X108445D01*
X99555Y96527D02*
Y114473D01*
Y96527D02*
X108445D01*
Y114473D01*
X-170886Y289145D02*
X171801D01*
X-170886D02*
Y372232D01*
X171801D01*
Y289145D02*
Y372232D01*
X-2602Y229102D02*
X9602D01*
Y216898D02*
Y229102D01*
X-2602Y216898D02*
X9602D01*
X-2602D02*
Y229102D01*
X-86165Y450921D02*
X-81835D01*
X-86165Y441079D02*
Y450921D01*
Y441079D02*
X-81835D01*
Y450921D01*
X-170650Y420319D02*
Y430161D01*
X-166320D01*
Y420319D02*
Y430161D01*
X-170650Y420319D02*
X-166320D01*
X-89680Y449153D02*
Y470807D01*
X-123145D02*
X-89680D01*
X-123145Y449153D02*
Y470807D01*
Y449153D02*
X-89680D01*
X-16164Y419102D02*
X-8290D01*
Y434850D01*
X-16164D02*
X-8290D01*
X-16164Y419102D02*
Y434850D01*
M02*
