G04*
G04 #@! TF.GenerationSoftware,Altium Limited,Altium Designer,23.8.1 (32)*
G04*
G04 Layer_Physical_Order=4*
G04 Layer_Color=16711680*
%FSLAX25Y25*%
%MOIN*%
G70*
G04*
G04 #@! TF.SameCoordinates,36DDD1C1-7BD6-4DAF-97DA-8CC6A3F3F012*
G04*
G04*
G04 #@! TF.FilePolarity,Positive*
G04*
G01*
G75*
%ADD12C,0.00787*%
%ADD17C,0.01968*%
%ADD18C,0.02362*%
%ADD19C,0.01575*%
%ADD21C,0.03150*%
%ADD94C,0.13583*%
%ADD95C,0.09400*%
%ADD104C,0.03543*%
%ADD105C,0.03150*%
%ADD108C,0.01181*%
%ADD109C,0.05906*%
%ADD111C,0.07874*%
%ADD114C,0.06102*%
%ADD115R,0.06890X0.06890*%
%ADD116C,0.06890*%
%ADD117R,0.10000X0.05000*%
%ADD118O,0.10000X0.05000*%
%ADD119O,0.05000X0.10000*%
%ADD120R,0.05000X0.10000*%
%ADD121C,0.23228*%
%ADD122C,0.02756*%
%ADD123O,0.04134X0.08268*%
%ADD124C,0.02362*%
%ADD125C,0.01575*%
%ADD126C,0.03937*%
D12*
X27748Y388000D02*
X29273Y386476D01*
X23000Y388000D02*
X27748D01*
X20500Y391500D02*
X20801Y391801D01*
X21902D01*
X22076Y391976D01*
X29273D01*
X-119500Y105500D02*
Y108500D01*
X-101133Y85633D02*
Y87133D01*
Y85633D02*
X-101000Y85500D01*
X-119500Y105500D02*
X-101133Y87133D01*
X-103362Y83522D02*
X-93478Y73638D01*
X-92138D01*
X-90335Y71835D02*
X-35733D01*
X-103362Y83522D02*
Y84862D01*
X-140000Y112500D02*
X-131000D01*
X-103362Y84862D01*
X-92138Y73638D02*
X-90335Y71835D01*
X-153976Y190976D02*
X-124798Y161798D01*
X-96298D01*
X-157727Y190976D02*
X-153976D01*
X-61266Y85362D02*
X-44703D01*
X-43065Y87000D01*
X-77665Y85165D02*
X-61463D01*
X-43065Y87000D02*
X-43000D01*
X-61463Y85165D02*
X-61266Y85362D01*
X-76500Y87500D02*
X-52500D01*
X-50000Y90000D01*
X-95727Y131976D02*
X-78976D01*
X-68500Y121500D01*
X12862Y31862D02*
Y41862D01*
X13000Y42000D01*
X7000Y21000D02*
X14500Y28500D01*
X4000Y23000D02*
X12862Y31862D01*
X14775Y14775D02*
X20500Y20500D01*
X17500Y42938D02*
X20500Y39938D01*
Y20500D02*
Y39938D01*
X-52500Y19500D02*
X-52159D01*
X-50659Y21000D01*
X7000D01*
X2657Y437150D02*
X8420D01*
X-119227Y126727D02*
Y143476D01*
Y126727D02*
X-77665Y85165D01*
X-121227Y118227D02*
X-86000Y83000D01*
X-79000D02*
X-79000Y83000D01*
X-86000Y83000D02*
X-79000D01*
X-79000Y83000D02*
X-48500D01*
X-121227Y118227D02*
Y140476D01*
X-123227Y115727D02*
X-86750Y79250D01*
X-123227Y115727D02*
Y139476D01*
X-86750Y79250D02*
X-61750D01*
X-3000Y32000D02*
X-1000Y34000D01*
X-70676Y32000D02*
X-3000D01*
X-96451Y57775D02*
X-70676Y32000D01*
X-62Y30000D02*
X2938Y33000D01*
X-72000Y30000D02*
X-62D01*
X-114000Y72000D02*
X-72000Y30000D01*
X-8274Y6726D02*
X39774D01*
X-8500Y6500D02*
X-8274Y6726D01*
X39774D02*
X40000Y6500D01*
X-43500Y13500D02*
X-42225Y14775D01*
X14775D01*
X-92500Y76000D02*
X-92369Y75869D01*
X-54500D01*
X-54369Y75739D01*
X-54428Y27500D02*
X2500D01*
X-54441Y27514D02*
X-54428Y27500D01*
X-30006Y73006D02*
X1000Y42000D01*
X-30500Y73680D02*
Y74000D01*
Y73680D02*
X-30006Y73187D01*
Y73006D02*
Y73187D01*
X-38500Y78000D02*
X-25000D01*
X-16500Y69500D01*
X-41726Y113226D02*
X-41500Y113000D01*
X-43226Y113226D02*
X-41726D01*
X-62000Y132000D02*
X-43226Y113226D01*
X-13500Y12000D02*
X45180D01*
X45680Y12500D01*
X46000D01*
X17500Y42938D02*
Y43000D01*
X-117227Y128227D02*
X-76500Y87500D01*
X-47500Y18000D02*
X-31000D01*
X-29835Y19165D01*
X-1116Y19000D02*
X11500D01*
X-1281Y19165D02*
X-1116Y19000D01*
X-29835Y19165D02*
X-1281D01*
X11500Y19000D02*
X17000Y24500D01*
Y33500D01*
X-117227Y128227D02*
Y144476D01*
X-92500Y68000D02*
X-57500D01*
X-108362Y83862D02*
X-92500Y68000D01*
X-61500Y23000D02*
X4000D01*
X-125531Y102469D02*
X-108362Y85299D01*
Y83862D02*
Y85299D01*
X-170476Y142976D02*
X-140000Y112500D01*
X-57500Y25305D02*
X-57039Y24844D01*
X1844D01*
X-57500Y25305D02*
Y25500D01*
X1844Y24844D02*
X10500Y33500D01*
X8941Y44059D02*
Y57559D01*
Y44059D02*
X9000Y44000D01*
X5000Y61500D02*
X8941Y57559D01*
X-43835Y109335D02*
X-42216D01*
X5000Y62119D01*
Y61500D02*
Y62119D01*
X-96298Y161798D02*
X-43835Y109335D01*
X2500Y27500D02*
X6835Y31835D01*
X-111727Y138727D02*
Y140976D01*
Y138727D02*
X-92500Y119500D01*
X6835Y33835D02*
X7000Y34000D01*
X6835Y31835D02*
Y33835D01*
X2938Y33000D02*
X3000D01*
X-96451Y57775D02*
Y59451D01*
X-120000Y83000D02*
X-96451Y59451D01*
X-35733Y71835D02*
X-9449Y45551D01*
X-112500Y83000D02*
X-75000Y45500D01*
X-14000D02*
X-11000Y42500D01*
X-75000Y45500D02*
X-14000D01*
X-90000Y55500D02*
X-77000Y42500D01*
X-26000D01*
X-92300Y153362D02*
X-30941Y92003D01*
X-121114Y153362D02*
X-92300D01*
X-144727Y176976D02*
X-121114Y153362D01*
X2750Y200250D02*
X3000Y200500D01*
X-12250Y200250D02*
X2750D01*
X-12500Y200000D02*
X-12250Y200250D01*
X-179727Y142976D02*
X-170476D01*
X-80252Y175500D02*
X-52727Y147976D01*
X-82500Y175500D02*
X-80252D01*
X-136203Y204500D02*
X-103381D01*
X-16346Y116976D02*
X-5227D01*
X-39441Y140070D02*
X-16346Y116976D01*
X-39441Y140070D02*
Y140560D01*
X-103381Y204500D02*
X-39441Y140560D01*
X-149227Y191476D02*
X-136203Y204500D01*
X-158727Y185976D02*
X-117227Y144476D01*
X-138864Y163113D02*
X-119227Y143476D01*
X-164727Y185976D02*
X-158727D01*
X-159727Y182976D02*
X-139865Y163113D01*
X-114883Y207883D02*
X-99383D01*
X-10476Y118976D01*
X3273D01*
X-56500Y186500D02*
Y186750D01*
X-105500Y235750D02*
X-56500Y186750D01*
X-105500Y235750D02*
Y236000D01*
X-154176Y170476D02*
X-151227D01*
X-155176Y169476D02*
X-154176Y170476D01*
X-155227Y169476D02*
X-155176D01*
X-139865Y163113D02*
X-138864D01*
X-151227Y170476D02*
X-121227Y140476D01*
X-137864Y153613D02*
X-137364D01*
X-152227Y167976D02*
X-137864Y153613D01*
X-137364D02*
X-123227Y139476D01*
X17273Y366976D02*
X54273D01*
X32773Y286976D02*
X120453D01*
X121453Y285976D01*
X121773D01*
X17273Y413976D02*
X37273D01*
X7773Y106476D02*
Y114476D01*
X3273Y118976D02*
X7773Y114476D01*
X-2227Y106476D02*
Y113976D01*
X-5227Y116976D02*
X-2227Y113976D01*
X-10908Y241976D02*
X-9908Y242976D01*
X106773D01*
X-11227Y241976D02*
X-10908D01*
X-8227Y236976D02*
X106773D01*
D17*
X20180Y93000D02*
X42500D01*
X19680Y93500D02*
X20180Y93000D01*
X-22000Y93500D02*
X19680D01*
D18*
X-3815Y436388D02*
X-1427Y434000D01*
X14297D02*
X16273Y435976D01*
X-1427Y434000D02*
X14297D01*
D19*
X125097Y421066D02*
X137434D01*
X125030Y421133D02*
X125097Y421066D01*
X137434D02*
X137500Y421000D01*
D21*
X-156973Y430476D02*
Y432027D01*
X-149500Y439500D02*
X-49252D01*
X-156973Y432027D02*
X-149500Y439500D01*
X-49252D02*
X-39727Y429976D01*
X-171510Y373466D02*
X-154677D01*
X-175154Y377110D02*
X-171510Y373466D01*
X84717Y167476D02*
X94773Y157421D01*
Y155476D02*
Y157421D01*
X46273Y167476D02*
X84717D01*
X-7882D02*
X46273D01*
X46216Y161232D02*
X46273Y161289D01*
Y167476D01*
X-9727Y165631D02*
X-7882Y167476D01*
X-10035Y162232D02*
X-9727Y162539D01*
Y165631D01*
D94*
X109208Y362188D02*
D03*
X-108292Y299188D02*
D03*
D95*
X-140692Y362188D02*
D03*
D104*
X-112318Y459389D02*
D03*
X-100507D02*
D03*
X-128000Y373500D02*
D03*
X153000Y441000D02*
D03*
X156812Y438027D02*
D03*
X156391Y421333D02*
D03*
X152457Y424500D02*
D03*
X-90000Y55500D02*
D03*
X70500Y248500D02*
D03*
X11500Y229500D02*
D03*
X-12500Y200000D02*
D03*
X3000Y200500D02*
D03*
X70500Y172000D02*
D03*
D105*
X108500Y89500D02*
D03*
X104500D02*
D03*
X100500D02*
D03*
X108500Y93500D02*
D03*
X104500D02*
D03*
X100500D02*
D03*
X42500Y93000D02*
D03*
X20500D02*
D03*
X-22000Y93500D02*
D03*
D108*
X-55000Y363500D02*
X88000D01*
X-106500Y435500D02*
X-55500D01*
X-55000Y435000D01*
X-110000Y432000D02*
X-106500Y435500D01*
X-41227Y188976D02*
X-26227D01*
X-44227Y185976D02*
X-41227Y188976D01*
X-26227D02*
X-22684Y185433D01*
X-46727Y172476D02*
X-5956D01*
X-2227Y176204D01*
Y182976D01*
X-22684Y185433D02*
X-13992D01*
X-12227Y183668D01*
Y182976D02*
Y183668D01*
D109*
X80773Y374476D02*
X142524D01*
X143000Y374000D01*
X-128000Y373833D02*
X-24449Y373833D01*
X-129000Y373833D02*
X-128000D01*
X70500Y170000D02*
Y172000D01*
X-24449Y373833D02*
X-24306Y373976D01*
X79773D01*
D111*
X-85758Y248742D02*
X-77081D01*
X-86000Y248500D02*
X-85758Y248742D01*
X70500Y248976D02*
X97773D01*
X-77315D02*
X-77081Y248742D01*
X70266D01*
X70500Y248976D01*
X97773D02*
X98273Y249476D01*
D114*
X81556Y417976D02*
D03*
X116989D02*
D03*
D115*
X89430Y393370D02*
D03*
D116*
Y442582D02*
D03*
X109115Y393370D02*
D03*
Y442582D02*
D03*
D117*
X160000Y245500D02*
D03*
X-157000Y235500D02*
D03*
D118*
X160000D02*
D03*
X-157000Y245500D02*
D03*
D119*
X17773Y106476D02*
D03*
X7773D02*
D03*
X-2227D02*
D03*
X-12227Y182976D02*
D03*
X-2227D02*
D03*
X7773D02*
D03*
D120*
X-12227Y106476D02*
D03*
X17773Y182976D02*
D03*
D121*
X192351Y430279D02*
D03*
X-66929Y102338D02*
D03*
X66929D02*
D03*
X-192294Y359413D02*
D03*
Y430279D02*
D03*
X192351Y359413D02*
D03*
D122*
X-4855Y447606D02*
D03*
X17900D02*
D03*
X16273Y426976D02*
D03*
X-171000Y386000D02*
D03*
Y391000D02*
D03*
X-42500Y139000D02*
D03*
X-182727Y139976D02*
D03*
X-179727Y137476D02*
D03*
X-192227Y149476D02*
D03*
X-195227Y152476D02*
D03*
X-177227Y134976D02*
D03*
X-198227Y155476D02*
D03*
X-121227Y78976D02*
D03*
X-127227Y83976D02*
D03*
X-123227Y94476D02*
D03*
X-127227Y97976D02*
D03*
X-46727Y139476D02*
D03*
X-124227Y81476D02*
D03*
X-144227Y131976D02*
D03*
X-141727Y134976D02*
D03*
X-134727Y141976D02*
D03*
X-138227Y137976D02*
D03*
X-134727Y134976D02*
D03*
X-138227Y131476D02*
D03*
X-143727Y137976D02*
D03*
X-141227Y128476D02*
D03*
X-147227Y135476D02*
D03*
X-131227Y138976D02*
D03*
X-160227Y197976D02*
D03*
X-145727Y141976D02*
D03*
X-149727Y138976D02*
D03*
X-140727Y141476D02*
D03*
X-142727Y144976D02*
D03*
X-139727Y147976D02*
D03*
X-137227Y144976D02*
D03*
X-140727Y105476D02*
D03*
X-149227Y107476D02*
D03*
X-144227Y101976D02*
D03*
X-143227Y107976D02*
D03*
X-146727Y104976D02*
D03*
X-40000Y136000D02*
D03*
X-88735Y419079D02*
D03*
X-91855Y415654D02*
D03*
X-92041Y419079D02*
D03*
X-95331Y419181D02*
D03*
X-35227Y182476D02*
D03*
X-131227Y257476D02*
D03*
Y252976D02*
D03*
X130273Y222476D02*
D03*
Y226976D02*
D03*
X-7227Y415476D02*
D03*
X-3727Y419476D02*
D03*
X-140000Y237500D02*
D03*
Y242500D02*
D03*
X-126727Y237476D02*
D03*
Y242976D02*
D03*
X126773Y237476D02*
D03*
Y242476D02*
D03*
X140500Y237500D02*
D03*
Y242500D02*
D03*
X27773Y435476D02*
D03*
X20773Y426976D02*
D03*
X-18727Y435476D02*
D03*
X-40727Y411476D02*
D03*
X-21227Y410476D02*
D03*
Y404476D02*
D03*
X-61227Y418976D02*
D03*
Y412976D02*
D03*
X-65727Y408476D02*
D03*
X-68227Y423976D02*
D03*
X-71727D02*
D03*
X-87306Y413373D02*
D03*
X-82822Y410122D02*
D03*
X-165000Y356000D02*
D03*
X15273Y84976D02*
D03*
X10773Y80976D02*
D03*
X15273Y76976D02*
D03*
Y55476D02*
D03*
X11000Y65000D02*
D03*
X-35000Y85000D02*
D03*
X11500Y57500D02*
D03*
X2065Y86302D02*
D03*
X19773Y98976D02*
D03*
X-17000Y80500D02*
D03*
X-2000Y63000D02*
D03*
X-5500Y65500D02*
D03*
X-1748Y58733D02*
D03*
X81773Y136476D02*
D03*
X82273Y139976D02*
D03*
X124773Y139476D02*
D03*
X116773Y157476D02*
D03*
X118773Y147476D02*
D03*
X118273Y152476D02*
D03*
X135273Y147976D02*
D03*
X130273D02*
D03*
X125773D02*
D03*
X134273Y143976D02*
D03*
X130273D02*
D03*
X126273D02*
D03*
X86273Y136476D02*
D03*
X82273Y144476D02*
D03*
X86773Y139976D02*
D03*
X85273Y160476D02*
D03*
X80773Y158976D02*
D03*
Y162976D02*
D03*
X32273Y136976D02*
D03*
X37273Y131976D02*
D03*
X32273Y141476D02*
D03*
X37273Y136976D02*
D03*
X20273Y162476D02*
D03*
X36273Y156976D02*
D03*
X29273Y162976D02*
D03*
X-19227Y166976D02*
D03*
X-19727Y157476D02*
D03*
X-24727Y162476D02*
D03*
Y145976D02*
D03*
X-24227Y140976D02*
D03*
X-19727D02*
D03*
X113273Y130976D02*
D03*
X116222Y134220D02*
D03*
X120773Y134476D02*
D03*
X124773Y133976D02*
D03*
X39273Y435976D02*
D03*
X-21727Y397976D02*
D03*
X49273Y381976D02*
D03*
X94773Y155476D02*
D03*
D123*
X-10485Y461976D02*
D03*
X23530D02*
D03*
X-10485Y445519D02*
D03*
X23530D02*
D03*
D124*
X23000Y388000D02*
D03*
X20500Y391500D02*
D03*
X-43000Y87000D02*
D03*
X-50000Y90000D02*
D03*
X-68500Y121500D02*
D03*
X13000Y42000D02*
D03*
X14500Y28500D02*
D03*
X-52500Y19500D02*
D03*
X8420Y437150D02*
D03*
X2657D02*
D03*
X47000Y62500D02*
D03*
X-4208Y84775D02*
D03*
X-110000Y111500D02*
D03*
X-119500Y108500D02*
D03*
X88000Y363500D02*
D03*
X-55000D02*
D03*
Y435000D02*
D03*
X-110000Y432000D02*
D03*
X143000Y374000D02*
D03*
X125030Y421133D02*
D03*
X129500Y418000D02*
D03*
X137500Y421000D02*
D03*
X-160000Y205000D02*
D03*
X-82500Y137500D02*
D03*
X-34000Y63500D02*
D03*
X-26500Y73500D02*
D03*
X-27500Y58000D02*
D03*
X-31000Y48000D02*
D03*
Y53500D02*
D03*
X53500Y67000D02*
D03*
Y63500D02*
D03*
X41000Y66000D02*
D03*
Y63000D02*
D03*
X28500Y60500D02*
D03*
Y57500D02*
D03*
X3000Y45000D02*
D03*
X32500Y19500D02*
D03*
X25500Y20000D02*
D03*
X-35500Y39500D02*
D03*
X-27500Y39000D02*
D03*
X40000Y6500D02*
D03*
X-54369Y75739D02*
D03*
X-54441Y27514D02*
D03*
X-30500Y74000D02*
D03*
X-38500Y78000D02*
D03*
X-41500Y113000D02*
D03*
X-16500Y69500D02*
D03*
X-43500Y13500D02*
D03*
X46000Y12500D02*
D03*
X-13500Y12000D02*
D03*
X-8500Y6500D02*
D03*
X17500Y43000D02*
D03*
X-48500Y83000D02*
D03*
X-47500Y18000D02*
D03*
X17000Y33500D02*
D03*
X-61750Y79250D02*
D03*
X-57500Y68000D02*
D03*
X-61500Y23000D02*
D03*
X-125531Y102469D02*
D03*
X-57500Y25500D02*
D03*
X10500Y33500D02*
D03*
X9000Y44000D02*
D03*
X-92500Y119500D02*
D03*
Y76000D02*
D03*
X7000Y34000D02*
D03*
X5000Y42000D02*
D03*
X-101000Y85500D02*
D03*
X-114000Y72000D02*
D03*
X3000Y33000D02*
D03*
X-30941Y92003D02*
D03*
X1000Y42000D02*
D03*
X-120000Y83000D02*
D03*
X-1000Y34000D02*
D03*
X-9449Y45551D02*
D03*
X-112500Y83000D02*
D03*
X-11000Y42500D02*
D03*
X-26000D02*
D03*
X-154677Y373466D02*
D03*
X-175154Y377110D02*
D03*
X-96000Y427500D02*
D03*
Y430500D02*
D03*
X-99500Y427500D02*
D03*
Y430500D02*
D03*
X-12000Y221000D02*
D03*
X-31000Y116000D02*
D03*
X-168485Y430740D02*
D03*
X-156973Y430476D02*
D03*
X-94500Y151000D02*
D03*
X-62000Y132000D02*
D03*
X-82500Y175500D02*
D03*
X-111727Y140976D02*
D03*
X-157727Y190976D02*
D03*
X-149227Y191476D02*
D03*
X-164727Y185976D02*
D03*
X-159727Y182976D02*
D03*
X-56500Y186500D02*
D03*
X-105500Y236000D02*
D03*
X-179727Y142976D02*
D03*
X-52727Y147976D02*
D03*
X-95727Y131976D02*
D03*
X-144727Y176976D02*
D03*
X-155227Y169476D02*
D03*
X-152227Y167976D02*
D03*
X-114883Y207883D02*
D03*
X-44227Y185976D02*
D03*
X54273Y366976D02*
D03*
X17273D02*
D03*
X29273Y386476D02*
D03*
Y391976D02*
D03*
X121773Y285976D02*
D03*
X32773Y286976D02*
D03*
X-39727Y429976D02*
D03*
X37273Y413976D02*
D03*
X17273D02*
D03*
X-3815Y436388D02*
D03*
X16273Y435976D02*
D03*
X-11227Y241976D02*
D03*
X106773Y242976D02*
D03*
X-8227Y236976D02*
D03*
X106773D02*
D03*
X-46727Y172476D02*
D03*
X46216Y161232D02*
D03*
X-10035Y162232D02*
D03*
D125*
X273060Y460157D02*
D03*
X279950Y446378D02*
D03*
X273060Y432598D02*
D03*
X279950Y418818D02*
D03*
X273060Y405039D02*
D03*
X279950Y391259D02*
D03*
X273060Y377480D02*
D03*
X279950Y363700D02*
D03*
X273060Y349921D02*
D03*
X279950Y336141D02*
D03*
X273060Y322362D02*
D03*
X279950Y308582D02*
D03*
X273060Y294803D02*
D03*
X279950Y281023D02*
D03*
X273060Y267244D02*
D03*
X279950Y253464D02*
D03*
X273060Y239685D02*
D03*
X259281Y460157D02*
D03*
X266170Y446378D02*
D03*
X259281Y432598D02*
D03*
X266170Y418818D02*
D03*
X259281Y405039D02*
D03*
X266170Y391259D02*
D03*
X259281Y377480D02*
D03*
X266170Y363700D02*
D03*
X259281Y349921D02*
D03*
X266170Y336141D02*
D03*
X259281Y322362D02*
D03*
X266170Y308582D02*
D03*
X259281Y294803D02*
D03*
X266170Y281023D02*
D03*
X259281Y267244D02*
D03*
X266170Y253464D02*
D03*
X259281Y239685D02*
D03*
X266170Y225905D02*
D03*
X259281Y212125D02*
D03*
X245501Y460157D02*
D03*
X252391Y446378D02*
D03*
X245501Y432598D02*
D03*
X252391Y418818D02*
D03*
X245501Y405039D02*
D03*
X252391Y391259D02*
D03*
X245501Y377480D02*
D03*
X252391Y363700D02*
D03*
X245501Y349921D02*
D03*
X252391Y336141D02*
D03*
X245501Y322362D02*
D03*
X252391Y308582D02*
D03*
X245501Y294803D02*
D03*
X252391Y281023D02*
D03*
X245501Y267244D02*
D03*
X252391Y253464D02*
D03*
X245501Y239685D02*
D03*
X252391Y225905D02*
D03*
X245501Y212125D02*
D03*
X231721Y460157D02*
D03*
X238611Y446378D02*
D03*
X231721Y432598D02*
D03*
X238611Y418818D02*
D03*
X231721Y405039D02*
D03*
X238611Y391259D02*
D03*
X231721Y377480D02*
D03*
X238611Y363700D02*
D03*
X231721Y349921D02*
D03*
X238611Y336141D02*
D03*
X231721Y322362D02*
D03*
X238611Y308582D02*
D03*
X231721Y294803D02*
D03*
X238611Y281023D02*
D03*
X231721Y267244D02*
D03*
X238611Y253464D02*
D03*
X231721Y239685D02*
D03*
X238611Y225905D02*
D03*
X231721Y212125D02*
D03*
X238611Y198346D02*
D03*
X231721Y184566D02*
D03*
X217942Y460157D02*
D03*
X224832Y446378D02*
D03*
X217942Y432598D02*
D03*
X224832Y418818D02*
D03*
X217942Y405039D02*
D03*
X224832Y391259D02*
D03*
X217942Y377480D02*
D03*
X224832Y363700D02*
D03*
X217942Y349921D02*
D03*
X224832Y336141D02*
D03*
X217942Y322362D02*
D03*
X224832Y308582D02*
D03*
X217942Y294803D02*
D03*
X224832Y281023D02*
D03*
X217942Y267244D02*
D03*
X224832Y253464D02*
D03*
X217942Y239685D02*
D03*
X224832Y225905D02*
D03*
X217942Y212125D02*
D03*
X224832Y198346D02*
D03*
X217942Y184566D02*
D03*
X204163Y460157D02*
D03*
X211052Y446378D02*
D03*
Y418818D02*
D03*
X204163Y405039D02*
D03*
X211052Y391259D02*
D03*
X204163Y377480D02*
D03*
X211052Y363700D02*
D03*
X204163Y349921D02*
D03*
X211052Y336141D02*
D03*
X204163Y322362D02*
D03*
X211052Y308582D02*
D03*
X204163Y294803D02*
D03*
X211052Y281023D02*
D03*
X204163Y267244D02*
D03*
X211052Y253464D02*
D03*
X204163Y239685D02*
D03*
X211052Y225905D02*
D03*
X204163Y212125D02*
D03*
X211052Y198346D02*
D03*
X204163Y184566D02*
D03*
X211052Y170787D02*
D03*
X204163Y157007D02*
D03*
X190383Y460157D02*
D03*
X197273Y446378D02*
D03*
X190383Y405039D02*
D03*
X197273Y391259D02*
D03*
X190383Y377480D02*
D03*
X197273Y336141D02*
D03*
X190383Y322362D02*
D03*
X197273Y308582D02*
D03*
X190383Y294803D02*
D03*
X197273Y281023D02*
D03*
X190383Y267244D02*
D03*
X197273Y253464D02*
D03*
X190383Y239685D02*
D03*
X197273Y225905D02*
D03*
X190383Y212125D02*
D03*
X197273Y198346D02*
D03*
X190383Y184566D02*
D03*
X197273Y170787D02*
D03*
X190383Y157007D02*
D03*
X176603Y460157D02*
D03*
X183493Y446378D02*
D03*
X176603Y432598D02*
D03*
X183493Y418818D02*
D03*
Y336141D02*
D03*
X176603Y322362D02*
D03*
X183493Y308582D02*
D03*
X176603Y294803D02*
D03*
X183493Y281023D02*
D03*
X176603Y267244D02*
D03*
X183493Y253464D02*
D03*
X176603Y239685D02*
D03*
X183493Y225905D02*
D03*
X176603Y212125D02*
D03*
X183493Y198346D02*
D03*
X176603Y184566D02*
D03*
X183493Y170787D02*
D03*
X176603Y157007D02*
D03*
X183493Y143228D02*
D03*
X176603Y129448D02*
D03*
X162824Y460157D02*
D03*
X169714Y446378D02*
D03*
Y308582D02*
D03*
X162824Y294803D02*
D03*
X169714Y281023D02*
D03*
X162824Y267244D02*
D03*
X169714Y253464D02*
D03*
Y225905D02*
D03*
X162824Y212125D02*
D03*
X169714Y198346D02*
D03*
X162824Y184566D02*
D03*
X169714Y170787D02*
D03*
X162824Y157007D02*
D03*
X169714Y143228D02*
D03*
X162824Y129448D02*
D03*
X149044Y460157D02*
D03*
X155934Y446378D02*
D03*
X149044Y377480D02*
D03*
X155934Y363700D02*
D03*
X149044Y349921D02*
D03*
X155934Y308582D02*
D03*
X149044Y294803D02*
D03*
X155934Y281023D02*
D03*
X149044Y267244D02*
D03*
X155934Y253464D02*
D03*
Y225905D02*
D03*
X149044Y212125D02*
D03*
X155934Y198346D02*
D03*
X149044Y184566D02*
D03*
X155934Y170787D02*
D03*
X149044Y157007D02*
D03*
X155934Y143228D02*
D03*
X149044Y129448D02*
D03*
X155934Y115669D02*
D03*
X149044Y101889D02*
D03*
X135265Y460157D02*
D03*
X142155Y446378D02*
D03*
X135265Y432598D02*
D03*
X142155Y363700D02*
D03*
X135265Y349921D02*
D03*
Y322362D02*
D03*
X142155Y308582D02*
D03*
X135265Y294803D02*
D03*
X142155Y281023D02*
D03*
X135265Y267244D02*
D03*
X142155Y253464D02*
D03*
Y225905D02*
D03*
X135265Y212125D02*
D03*
X142155Y198346D02*
D03*
X135265Y184566D02*
D03*
X142155Y170787D02*
D03*
X135265Y157007D02*
D03*
X142155Y143228D02*
D03*
X135265Y129448D02*
D03*
X142155Y115669D02*
D03*
X135265Y101889D02*
D03*
X121485Y460157D02*
D03*
X128375Y446378D02*
D03*
X121485Y432598D02*
D03*
Y405039D02*
D03*
X128375Y391259D02*
D03*
Y363700D02*
D03*
Y336141D02*
D03*
Y308582D02*
D03*
Y281023D02*
D03*
X121485Y267244D02*
D03*
X128375Y253464D02*
D03*
X121485Y239685D02*
D03*
Y212125D02*
D03*
X128375Y198346D02*
D03*
X121485Y184566D02*
D03*
X128375Y170787D02*
D03*
X121485Y157007D02*
D03*
Y129448D02*
D03*
X128375Y115669D02*
D03*
X121485Y101889D02*
D03*
X128375Y88110D02*
D03*
X121485Y74330D02*
D03*
X107706Y460157D02*
D03*
X114595Y446378D02*
D03*
X107706Y432598D02*
D03*
Y405039D02*
D03*
X114595Y391259D02*
D03*
X107706Y349921D02*
D03*
X114595Y336141D02*
D03*
X107706Y322362D02*
D03*
X114595Y308582D02*
D03*
X107706Y294803D02*
D03*
X114595Y281023D02*
D03*
X107706Y267244D02*
D03*
X114595Y253464D02*
D03*
X107706Y239685D02*
D03*
X114595Y225905D02*
D03*
X107706Y212125D02*
D03*
X114595Y198346D02*
D03*
X107706Y184566D02*
D03*
X114595Y170787D02*
D03*
Y143228D02*
D03*
Y115669D02*
D03*
Y88110D02*
D03*
X107706Y74330D02*
D03*
X93926Y460157D02*
D03*
X100816Y446378D02*
D03*
X93926Y432598D02*
D03*
X100816Y418818D02*
D03*
X93926Y405039D02*
D03*
X100816Y391259D02*
D03*
X93926Y349921D02*
D03*
X100816Y336141D02*
D03*
X93926Y322362D02*
D03*
X100816Y308582D02*
D03*
X93926Y294803D02*
D03*
X100816Y281023D02*
D03*
X93926Y267244D02*
D03*
X100816Y225905D02*
D03*
X93926Y212125D02*
D03*
X100816Y198346D02*
D03*
X93926Y184566D02*
D03*
X100816Y170787D02*
D03*
X93926Y129448D02*
D03*
Y101889D02*
D03*
Y74330D02*
D03*
X100816Y60551D02*
D03*
X93926Y46771D02*
D03*
X80147Y460157D02*
D03*
Y432598D02*
D03*
X87037Y418818D02*
D03*
X80147Y405039D02*
D03*
Y349921D02*
D03*
X87037Y336141D02*
D03*
X80147Y322362D02*
D03*
X87037Y308582D02*
D03*
X80147Y294803D02*
D03*
X87037Y281023D02*
D03*
X80147Y267244D02*
D03*
Y239685D02*
D03*
X87037Y225905D02*
D03*
X80147Y212125D02*
D03*
X87037Y198346D02*
D03*
X80147Y184566D02*
D03*
X87037Y170787D02*
D03*
X80147Y129448D02*
D03*
X87037Y115669D02*
D03*
Y88110D02*
D03*
X80147Y74330D02*
D03*
X87037Y60551D02*
D03*
X80147Y46771D02*
D03*
X66367Y460157D02*
D03*
X73257Y446378D02*
D03*
X66367Y432598D02*
D03*
X73257Y418818D02*
D03*
X66367Y405039D02*
D03*
X73257Y391259D02*
D03*
X66367Y349921D02*
D03*
X73257Y336141D02*
D03*
X66367Y322362D02*
D03*
X73257Y308582D02*
D03*
X66367Y294803D02*
D03*
X73257Y281023D02*
D03*
X66367Y267244D02*
D03*
X73257Y115669D02*
D03*
Y88110D02*
D03*
X66367Y74330D02*
D03*
X73257Y60551D02*
D03*
X66367Y46771D02*
D03*
X73257Y32992D02*
D03*
X66367Y19212D02*
D03*
X52588Y460157D02*
D03*
X59477Y446378D02*
D03*
X52588Y432598D02*
D03*
X59477Y418818D02*
D03*
Y391259D02*
D03*
X52588Y349921D02*
D03*
X59477Y336141D02*
D03*
X52588Y322362D02*
D03*
X59477Y308582D02*
D03*
X52588Y294803D02*
D03*
X59477Y281023D02*
D03*
X52588Y267244D02*
D03*
Y239685D02*
D03*
X59477Y225905D02*
D03*
X52588Y212125D02*
D03*
X59477Y198346D02*
D03*
X52588Y184566D02*
D03*
X59477Y170787D02*
D03*
Y115669D02*
D03*
X52588Y101889D02*
D03*
X59477Y88110D02*
D03*
X52588Y74330D02*
D03*
X59477Y60551D02*
D03*
X52588Y46771D02*
D03*
X59477Y32992D02*
D03*
X52588Y19212D02*
D03*
X38808Y460157D02*
D03*
X45698Y446378D02*
D03*
Y418818D02*
D03*
X38808Y349921D02*
D03*
X45698Y336141D02*
D03*
X38808Y322362D02*
D03*
X45698Y308582D02*
D03*
X38808Y294803D02*
D03*
X45698Y281023D02*
D03*
X38808Y267244D02*
D03*
Y239685D02*
D03*
X45698Y225905D02*
D03*
X38808Y212125D02*
D03*
X45698Y198346D02*
D03*
X38808Y184566D02*
D03*
X45698Y170787D02*
D03*
Y143228D02*
D03*
Y115669D02*
D03*
X38808Y101889D02*
D03*
X45698Y88110D02*
D03*
X38808Y74330D02*
D03*
X45698Y5432D02*
D03*
X38808Y-8347D02*
D03*
X25029Y432598D02*
D03*
Y405039D02*
D03*
Y322362D02*
D03*
Y294803D02*
D03*
X31918Y281023D02*
D03*
X25029Y267244D02*
D03*
Y239685D02*
D03*
X31918Y225905D02*
D03*
X25029Y212125D02*
D03*
X31918Y198346D02*
D03*
X25029Y184566D02*
D03*
X31918Y170787D02*
D03*
X25029Y129448D02*
D03*
X31918Y115669D02*
D03*
X25029Y101889D02*
D03*
X31918Y88110D02*
D03*
X25029Y74330D02*
D03*
X31918Y60551D02*
D03*
X25029Y-8347D02*
D03*
X11249Y460157D02*
D03*
X18139Y418818D02*
D03*
X11249Y349921D02*
D03*
X18139Y308582D02*
D03*
X11249Y294803D02*
D03*
Y239685D02*
D03*
X18139Y225905D02*
D03*
X11249Y212125D02*
D03*
X18139Y198346D02*
D03*
Y170787D02*
D03*
Y115669D02*
D03*
X11249Y74330D02*
D03*
Y-8347D02*
D03*
X18139Y-22127D02*
D03*
X11249Y-35906D02*
D03*
X-2530Y460157D02*
D03*
Y349921D02*
D03*
X4359Y336141D02*
D03*
X-2530Y322362D02*
D03*
X4359Y308582D02*
D03*
X-2530Y294803D02*
D03*
X4359Y281023D02*
D03*
X-2530Y267244D02*
D03*
Y239685D02*
D03*
Y212125D02*
D03*
X4359Y170787D02*
D03*
Y88110D02*
D03*
X-2530Y-8347D02*
D03*
X4359Y-22127D02*
D03*
X-16310Y460157D02*
D03*
X-9420Y391259D02*
D03*
X-16310Y349921D02*
D03*
X-9420Y336141D02*
D03*
X-16310Y322362D02*
D03*
X-9420Y281023D02*
D03*
X-16310Y267244D02*
D03*
Y212125D02*
D03*
Y157007D02*
D03*
Y-8347D02*
D03*
X-9420Y-22127D02*
D03*
X-30090Y460157D02*
D03*
X-23200Y446378D02*
D03*
X-30090Y432598D02*
D03*
Y405039D02*
D03*
X-23200Y391259D02*
D03*
X-30090Y349921D02*
D03*
X-23200Y336141D02*
D03*
X-30090Y322362D02*
D03*
X-23200Y308582D02*
D03*
X-30090Y294803D02*
D03*
X-23200Y281023D02*
D03*
X-30090Y267244D02*
D03*
Y239685D02*
D03*
Y212125D02*
D03*
X-23200Y198346D02*
D03*
X-30090Y184566D02*
D03*
Y157007D02*
D03*
Y101889D02*
D03*
X-23200Y5432D02*
D03*
X-30090Y-8347D02*
D03*
X-23200Y-22127D02*
D03*
X-43869Y460157D02*
D03*
X-36979Y446378D02*
D03*
X-43869Y405039D02*
D03*
X-36979Y391259D02*
D03*
X-43869Y349921D02*
D03*
X-36979Y336141D02*
D03*
X-43869Y322362D02*
D03*
X-36979Y308582D02*
D03*
X-43869Y294803D02*
D03*
Y239685D02*
D03*
X-36979Y198346D02*
D03*
X-43869Y157007D02*
D03*
Y129448D02*
D03*
Y101889D02*
D03*
X-36979Y60551D02*
D03*
Y5432D02*
D03*
X-57649Y460157D02*
D03*
X-50759Y446378D02*
D03*
X-57649Y432598D02*
D03*
X-50759Y418818D02*
D03*
X-57649Y405039D02*
D03*
X-50759Y391259D02*
D03*
X-57649Y349921D02*
D03*
X-50759Y336141D02*
D03*
X-57649Y322362D02*
D03*
X-50759Y308582D02*
D03*
X-57649Y294803D02*
D03*
X-50759Y281023D02*
D03*
X-57649Y267244D02*
D03*
Y239685D02*
D03*
X-50759Y225905D02*
D03*
X-57649Y212125D02*
D03*
Y19212D02*
D03*
X-50759Y5432D02*
D03*
X-71428Y460157D02*
D03*
X-64538Y446378D02*
D03*
Y391259D02*
D03*
Y363700D02*
D03*
Y336141D02*
D03*
Y308582D02*
D03*
Y281023D02*
D03*
Y225905D02*
D03*
X-71428Y212125D02*
D03*
X-64538Y115669D02*
D03*
Y60551D02*
D03*
X-85208Y460157D02*
D03*
X-78318Y446378D02*
D03*
X-85208Y432598D02*
D03*
Y349921D02*
D03*
Y322362D02*
D03*
Y294803D02*
D03*
Y267244D02*
D03*
Y239685D02*
D03*
X-78318Y225905D02*
D03*
X-85208Y212125D02*
D03*
X-78318Y198346D02*
D03*
X-85208Y129448D02*
D03*
X-78318Y115669D02*
D03*
X-85208Y101889D02*
D03*
X-78318Y60551D02*
D03*
Y32992D02*
D03*
X-92097Y446378D02*
D03*
Y363700D02*
D03*
X-98987Y349921D02*
D03*
X-92097Y336141D02*
D03*
X-98987Y322362D02*
D03*
X-92097Y308582D02*
D03*
X-98987Y294803D02*
D03*
X-92097Y281023D02*
D03*
X-98987Y267244D02*
D03*
Y239685D02*
D03*
Y184566D02*
D03*
Y101889D02*
D03*
X-105877Y446378D02*
D03*
X-112767Y405039D02*
D03*
X-105877Y363700D02*
D03*
X-112767Y349921D02*
D03*
X-105877Y336141D02*
D03*
X-112767Y322362D02*
D03*
X-105877Y308582D02*
D03*
Y281023D02*
D03*
X-112767Y267244D02*
D03*
X-105877Y225905D02*
D03*
X-112767Y212125D02*
D03*
X-105877Y198346D02*
D03*
X-112767Y184566D02*
D03*
X-105877Y170787D02*
D03*
X-112767Y157007D02*
D03*
X-105877Y60551D02*
D03*
X-126546Y460157D02*
D03*
X-119657Y336141D02*
D03*
X-126546Y322362D02*
D03*
X-119657Y308582D02*
D03*
X-126546Y294803D02*
D03*
X-119657Y281023D02*
D03*
X-126546Y267244D02*
D03*
X-119657Y225905D02*
D03*
Y170787D02*
D03*
Y88110D02*
D03*
X-140326Y460157D02*
D03*
X-133436Y391259D02*
D03*
Y336141D02*
D03*
Y308582D02*
D03*
X-140326Y294803D02*
D03*
X-133436Y281023D02*
D03*
X-140326Y267244D02*
D03*
X-133436Y225905D02*
D03*
Y115669D02*
D03*
X-154105Y460157D02*
D03*
X-147215Y446378D02*
D03*
X-154105Y405039D02*
D03*
X-147215Y363700D02*
D03*
X-154105Y349921D02*
D03*
X-147215Y308582D02*
D03*
X-154105Y294803D02*
D03*
X-147215Y281023D02*
D03*
X-154105Y267244D02*
D03*
X-147215Y253464D02*
D03*
Y225905D02*
D03*
X-154105Y212125D02*
D03*
Y129448D02*
D03*
X-147215Y115669D02*
D03*
X-167885Y460157D02*
D03*
X-160995Y446378D02*
D03*
Y418818D02*
D03*
X-167885Y405039D02*
D03*
X-160995Y363700D02*
D03*
X-167885Y349921D02*
D03*
X-160995Y308582D02*
D03*
X-167885Y294803D02*
D03*
X-160995Y281023D02*
D03*
X-167885Y267244D02*
D03*
X-160995Y253464D02*
D03*
X-167885Y239685D02*
D03*
X-160995Y225905D02*
D03*
X-167885Y212125D02*
D03*
X-160995Y143228D02*
D03*
X-167885Y129448D02*
D03*
X-160995Y115669D02*
D03*
X-181664Y460157D02*
D03*
X-174775Y446378D02*
D03*
X-181664Y405039D02*
D03*
Y377480D02*
D03*
X-174775Y363700D02*
D03*
X-181664Y349921D02*
D03*
X-174775Y336141D02*
D03*
X-181664Y322362D02*
D03*
X-174775Y308582D02*
D03*
X-181664Y294803D02*
D03*
X-174775Y281023D02*
D03*
X-181664Y267244D02*
D03*
X-174775Y253464D02*
D03*
X-181664Y239685D02*
D03*
X-174775Y225905D02*
D03*
X-181664Y212125D02*
D03*
X-174775Y198346D02*
D03*
X-181664Y184566D02*
D03*
X-195444Y460157D02*
D03*
X-188554Y446378D02*
D03*
X-195444Y405039D02*
D03*
X-188554Y391259D02*
D03*
X-195444Y377480D02*
D03*
X-188554Y336141D02*
D03*
X-195444Y322362D02*
D03*
X-188554Y308582D02*
D03*
X-195444Y294803D02*
D03*
X-188554Y281023D02*
D03*
X-195444Y267244D02*
D03*
X-188554Y253464D02*
D03*
X-195444Y239685D02*
D03*
X-188554Y225905D02*
D03*
X-195444Y212125D02*
D03*
X-188554Y198346D02*
D03*
X-195444Y184566D02*
D03*
X-188554Y170787D02*
D03*
X-195444Y157007D02*
D03*
X-209223Y460157D02*
D03*
X-202334Y446378D02*
D03*
X-209223Y432598D02*
D03*
X-202334Y418818D02*
D03*
X-209223Y405039D02*
D03*
X-202334Y391259D02*
D03*
X-209223Y377480D02*
D03*
Y349921D02*
D03*
X-202334Y336141D02*
D03*
X-209223Y322362D02*
D03*
X-202334Y308582D02*
D03*
X-209223Y294803D02*
D03*
X-202334Y281023D02*
D03*
X-209223Y267244D02*
D03*
X-202334Y253464D02*
D03*
X-209223Y239685D02*
D03*
X-202334Y225905D02*
D03*
X-209223Y212125D02*
D03*
X-202334Y198346D02*
D03*
X-209223Y184566D02*
D03*
X-223003Y460157D02*
D03*
X-216113Y446378D02*
D03*
X-223003Y432598D02*
D03*
X-216113Y418818D02*
D03*
X-223003Y405039D02*
D03*
X-216113Y391259D02*
D03*
X-223003Y377480D02*
D03*
X-216113Y363700D02*
D03*
X-223003Y349921D02*
D03*
X-216113Y336141D02*
D03*
X-223003Y322362D02*
D03*
X-216113Y308582D02*
D03*
X-223003Y294803D02*
D03*
X-216113Y281023D02*
D03*
X-223003Y267244D02*
D03*
X-216113Y253464D02*
D03*
X-223003Y239685D02*
D03*
X-216113Y225905D02*
D03*
X-223003Y212125D02*
D03*
X-216113Y198346D02*
D03*
X-223003Y184566D02*
D03*
X-216113Y170787D02*
D03*
X-236783Y460157D02*
D03*
X-229893Y446378D02*
D03*
X-236783Y432598D02*
D03*
X-229893Y418818D02*
D03*
X-236783Y405039D02*
D03*
X-229893Y391259D02*
D03*
X-236783Y377480D02*
D03*
X-229893Y363700D02*
D03*
X-236783Y349921D02*
D03*
X-229893Y336141D02*
D03*
X-236783Y322362D02*
D03*
X-229893Y308582D02*
D03*
X-236783Y294803D02*
D03*
X-229893Y281023D02*
D03*
X-236783Y267244D02*
D03*
X-229893Y253464D02*
D03*
X-236783Y239685D02*
D03*
X-229893Y225905D02*
D03*
X-236783Y212125D02*
D03*
X-229893Y198346D02*
D03*
X-250562Y460157D02*
D03*
X-243672Y446378D02*
D03*
X-250562Y432598D02*
D03*
X-243672Y418818D02*
D03*
X-250562Y405039D02*
D03*
X-243672Y391259D02*
D03*
X-250562Y377480D02*
D03*
X-243672Y363700D02*
D03*
X-250562Y349921D02*
D03*
X-243672Y336141D02*
D03*
X-250562Y322362D02*
D03*
X-243672Y308582D02*
D03*
X-250562Y294803D02*
D03*
X-243672Y281023D02*
D03*
X-250562Y267244D02*
D03*
X-243672Y253464D02*
D03*
X-250562Y239685D02*
D03*
X-243672Y225905D02*
D03*
X-250562Y212125D02*
D03*
X-243672Y198346D02*
D03*
X-264341Y460157D02*
D03*
X-257452Y446378D02*
D03*
X-264341Y432598D02*
D03*
X-257452Y418818D02*
D03*
X-264341Y405039D02*
D03*
X-257452Y391259D02*
D03*
X-264341Y377480D02*
D03*
X-257452Y363700D02*
D03*
X-264341Y349921D02*
D03*
X-257452Y336141D02*
D03*
X-264341Y322362D02*
D03*
X-257452Y308582D02*
D03*
X-264341Y294803D02*
D03*
X-257452Y281023D02*
D03*
X-264341Y267244D02*
D03*
X-257452Y253464D02*
D03*
X-264341Y239685D02*
D03*
X-257452Y225905D02*
D03*
X-278121Y460157D02*
D03*
X-271231Y446378D02*
D03*
X-278121Y432598D02*
D03*
X-271231Y418818D02*
D03*
X-278121Y405039D02*
D03*
X-271231Y391259D02*
D03*
X-278121Y377480D02*
D03*
X-271231Y363700D02*
D03*
X-278121Y349921D02*
D03*
X-271231Y336141D02*
D03*
X-278121Y322362D02*
D03*
X-271231Y308582D02*
D03*
X-278121Y294803D02*
D03*
X-271231Y281023D02*
D03*
X-278121Y267244D02*
D03*
X-271231Y253464D02*
D03*
X-278121Y239685D02*
D03*
X-271231Y225905D02*
D03*
X5500Y76000D02*
D03*
X34000Y38500D02*
D03*
X30000D02*
D03*
X26500D02*
D03*
X-37000Y35000D02*
D03*
X-31500Y39000D02*
D03*
X-20577Y34405D02*
D03*
D126*
X-86000Y248500D02*
D03*
X-77081Y248742D02*
D03*
X98273Y249476D02*
D03*
M02*
