G04*
G04 #@! TF.GenerationSoftware,Altium Limited,Altium Designer,23.8.1 (32)*
G04*
G04 Layer_Color=255*
%FSLAX25Y25*%
%MOIN*%
G70*
G04*
G04 #@! TF.SameCoordinates,36DDD1C1-7BD6-4DAF-97DA-8CC6A3F3F012*
G04*
G04*
G04 #@! TF.FilePolarity,Positive*
G04*
G01*
G75*
%ADD94C,0.13583*%
%ADD95C,0.09400*%
%ADD104C,0.03543*%
%ADD114C,0.06102*%
%ADD115R,0.06890X0.06890*%
%ADD116C,0.06890*%
%ADD117R,0.10000X0.05000*%
%ADD118O,0.10000X0.05000*%
%ADD119O,0.05000X0.10000*%
%ADD120R,0.05000X0.10000*%
%ADD121C,0.23228*%
%ADD122C,0.02756*%
%ADD123O,0.04134X0.08268*%
D94*
X109208Y362188D02*
D03*
X-108292Y299188D02*
D03*
D95*
X-140692Y362188D02*
D03*
D104*
X-112318Y459389D02*
D03*
X-100507D02*
D03*
D114*
X81556Y417976D02*
D03*
X116989D02*
D03*
D115*
X89430Y393370D02*
D03*
D116*
Y442582D02*
D03*
X109115Y393370D02*
D03*
Y442582D02*
D03*
D117*
X160000Y245500D02*
D03*
X-157000Y235500D02*
D03*
D118*
X160000D02*
D03*
X-157000Y245500D02*
D03*
D119*
X17773Y106476D02*
D03*
X7773D02*
D03*
X-2227D02*
D03*
X-12227Y182976D02*
D03*
X-2227D02*
D03*
X7773D02*
D03*
D120*
X-12227Y106476D02*
D03*
X17773Y182976D02*
D03*
D121*
X192351Y430279D02*
D03*
X-66929Y102338D02*
D03*
X66929D02*
D03*
X-192294Y359413D02*
D03*
Y430279D02*
D03*
X192351Y359413D02*
D03*
D122*
X-4855Y447606D02*
D03*
X17900D02*
D03*
D123*
X-10485Y461976D02*
D03*
X23530D02*
D03*
X-10485Y445519D02*
D03*
X23530D02*
D03*
M02*
