G04*
G04 #@! TF.GenerationSoftware,Altium Limited,Altium Designer,23.8.1 (32)*
G04*
G04 Layer_Physical_Order=2*
G04 Layer_Color=36540*
%FSLAX25Y25*%
%MOIN*%
G70*
G04*
G04 #@! TF.SameCoordinates,36DDD1C1-7BD6-4DAF-97DA-8CC6A3F3F012*
G04*
G04*
G04 #@! TF.FilePolarity,Positive*
G04*
G01*
G75*
%ADD104C,0.03543*%
%ADD105C,0.03150*%
%ADD115R,0.06890X0.06890*%
%ADD116C,0.06890*%
%ADD119O,0.05000X0.10000*%
%ADD120R,0.05000X0.10000*%
%ADD122C,0.02756*%
%ADD123O,0.04134X0.08268*%
%ADD124C,0.02362*%
%ADD125C,0.01575*%
G36*
X286932Y236228D02*
X5204Y-45500D01*
X-5252D01*
X-286727Y235976D01*
X-286729Y469677D01*
X286521Y470120D01*
X286932Y236228D01*
D02*
G37*
%LPC*%
G36*
X-9985Y467070D02*
Y462476D01*
X-7392D01*
Y464043D01*
X-7497Y464843D01*
X-7806Y465589D01*
X-8298Y466230D01*
X-8939Y466722D01*
X-9685Y467031D01*
X-9985Y467070D01*
D02*
G37*
G36*
X-10985D02*
X-11286Y467031D01*
X-12032Y466722D01*
X-12673Y466230D01*
X-13164Y465589D01*
X-13473Y464843D01*
X-13579Y464043D01*
Y462476D01*
X-10985D01*
Y467070D01*
D02*
G37*
G36*
X24030D02*
Y462476D01*
X26624D01*
Y464043D01*
X26518Y464843D01*
X26209Y465589D01*
X25718Y466230D01*
X25077Y466722D01*
X24331Y467031D01*
X24030Y467070D01*
D02*
G37*
G36*
X23030Y467070D02*
X22730Y467031D01*
X21984Y466722D01*
X21343Y466230D01*
X20852Y465589D01*
X20542Y464843D01*
X20437Y464043D01*
Y462476D01*
X23030D01*
Y467070D01*
D02*
G37*
G36*
Y461476D02*
X20437D01*
Y459909D01*
X20542Y459108D01*
X20852Y458362D01*
X21343Y457722D01*
X21984Y457230D01*
X22730Y456921D01*
X23030Y456881D01*
Y461476D01*
D02*
G37*
G36*
X-7392Y461476D02*
X-9985D01*
Y456881D01*
X-9685Y456921D01*
X-8939Y457230D01*
X-8298Y457722D01*
X-7806Y458362D01*
X-7497Y459108D01*
X-7392Y459909D01*
Y461476D01*
D02*
G37*
G36*
X-10985D02*
X-13579D01*
Y459909D01*
X-13473Y459108D01*
X-13164Y458362D01*
X-12673Y457722D01*
X-12032Y457230D01*
X-11286Y456921D01*
X-10985Y456881D01*
Y461476D01*
D02*
G37*
G36*
X26624Y461476D02*
X24030D01*
Y456881D01*
X24331Y456921D01*
X25077Y457230D01*
X25718Y457722D01*
X26209Y458362D01*
X26518Y459108D01*
X26624Y459909D01*
Y461476D01*
D02*
G37*
G36*
X-100144Y462145D02*
X-100870D01*
X-101571Y461957D01*
X-102199Y461594D01*
X-102712Y461081D01*
X-103075Y460453D01*
X-103263Y459752D01*
Y459026D01*
X-103075Y458325D01*
X-102712Y457697D01*
X-102199Y457184D01*
X-101571Y456821D01*
X-100870Y456633D01*
X-100144D01*
X-99443Y456821D01*
X-98815Y457184D01*
X-98302Y457697D01*
X-97939Y458325D01*
X-97751Y459026D01*
Y459752D01*
X-97939Y460453D01*
X-98302Y461081D01*
X-98815Y461594D01*
X-99443Y461957D01*
X-100144Y462145D01*
D02*
G37*
G36*
X-111955D02*
X-112681D01*
X-113382Y461957D01*
X-114010Y461594D01*
X-114523Y461081D01*
X-114886Y460453D01*
X-115074Y459752D01*
Y459026D01*
X-114886Y458325D01*
X-114523Y457697D01*
X-114010Y457184D01*
X-113382Y456821D01*
X-112681Y456633D01*
X-111955D01*
X-111254Y456821D01*
X-110626Y457184D01*
X-110113Y457697D01*
X-109750Y458325D01*
X-109562Y459026D01*
Y459752D01*
X-109750Y460453D01*
X-110113Y461081D01*
X-110626Y461594D01*
X-111254Y461957D01*
X-111955Y462145D01*
D02*
G37*
G36*
X23030Y450614D02*
X22730Y450574D01*
X21984Y450265D01*
X21343Y449773D01*
X20852Y449133D01*
X20609Y448547D01*
X20080Y448516D01*
X19903Y448944D01*
X19239Y449608D01*
X18370Y449968D01*
X17431D01*
X16562Y449608D01*
X15898Y448944D01*
X15538Y448076D01*
Y447136D01*
X15898Y446268D01*
X16562Y445603D01*
X17431Y445244D01*
X18370D01*
X19239Y445603D01*
X19903Y446268D01*
X19937Y446350D01*
X20437Y446250D01*
Y446019D01*
X23030D01*
Y450614D01*
D02*
G37*
G36*
X-10985Y450614D02*
X-11286Y450574D01*
X-12032Y450265D01*
X-12673Y449773D01*
X-13164Y449133D01*
X-13473Y448387D01*
X-13579Y447586D01*
Y446019D01*
X-10985D01*
Y450614D01*
D02*
G37*
G36*
X24030D02*
Y446019D01*
X26624D01*
Y447586D01*
X26518Y448387D01*
X26209Y449133D01*
X25718Y449773D01*
X25077Y450265D01*
X24331Y450574D01*
X24030Y450614D01*
D02*
G37*
G36*
X-9985D02*
Y446019D01*
X-7392D01*
Y446250D01*
X-6892Y446350D01*
X-6858Y446268D01*
X-6194Y445603D01*
X-5325Y445244D01*
X-4386D01*
X-3517Y445603D01*
X-2853Y446268D01*
X-2493Y447136D01*
Y448076D01*
X-2853Y448944D01*
X-3517Y449608D01*
X-4386Y449968D01*
X-5325D01*
X-6194Y449608D01*
X-6858Y448944D01*
X-7035Y448516D01*
X-7564Y448547D01*
X-7806Y449133D01*
X-8298Y449773D01*
X-8939Y450265D01*
X-9685Y450574D01*
X-9985Y450614D01*
D02*
G37*
G36*
X90015Y447027D02*
X89930D01*
Y443082D01*
X93875D01*
Y443167D01*
X93572Y444298D01*
X92987Y445311D01*
X92159Y446139D01*
X91146Y446724D01*
X90015Y447027D01*
D02*
G37*
G36*
X88930D02*
X88845D01*
X87714Y446724D01*
X86701Y446139D01*
X85873Y445311D01*
X85288Y444298D01*
X84985Y443167D01*
Y443082D01*
X88930D01*
Y447027D01*
D02*
G37*
G36*
X23030Y445019D02*
X20437D01*
Y443452D01*
X20542Y442652D01*
X20852Y441905D01*
X21343Y441265D01*
X21984Y440773D01*
X22730Y440464D01*
X23030Y440425D01*
Y445019D01*
D02*
G37*
G36*
X-10985Y445019D02*
X-13579D01*
Y443452D01*
X-13473Y442652D01*
X-13164Y441905D01*
X-12673Y441265D01*
X-12032Y440773D01*
X-11286Y440464D01*
X-10985Y440425D01*
Y445019D01*
D02*
G37*
G36*
X-7392D02*
X-9985D01*
Y440425D01*
X-9685Y440464D01*
X-8939Y440773D01*
X-8298Y441265D01*
X-7806Y441905D01*
X-7497Y442652D01*
X-7392Y443452D01*
Y445019D01*
D02*
G37*
G36*
X26624Y445019D02*
X24030D01*
Y440425D01*
X24331Y440464D01*
X25077Y440773D01*
X25718Y441265D01*
X26209Y441905D01*
X26518Y442652D01*
X26624Y443452D01*
Y445019D01*
D02*
G37*
G36*
X109698Y447011D02*
X108532D01*
X107405Y446709D01*
X106395Y446126D01*
X105571Y445302D01*
X104988Y444292D01*
X104686Y443165D01*
Y441999D01*
X104988Y440872D01*
X105571Y439863D01*
X106395Y439038D01*
X107405Y438455D01*
X108532Y438153D01*
X109698D01*
X110825Y438455D01*
X111835Y439038D01*
X112659Y439863D01*
X113242Y440872D01*
X113544Y441999D01*
Y443165D01*
X113242Y444292D01*
X112659Y445302D01*
X111835Y446126D01*
X110825Y446709D01*
X109698Y447011D01*
D02*
G37*
G36*
X93875Y442082D02*
X89930D01*
Y438137D01*
X90015D01*
X91146Y438440D01*
X92159Y439025D01*
X92987Y439853D01*
X93572Y440866D01*
X93875Y441997D01*
Y442082D01*
D02*
G37*
G36*
X88930D02*
X84985D01*
Y441997D01*
X85288Y440866D01*
X85873Y439853D01*
X86701Y439025D01*
X87714Y438440D01*
X88845Y438137D01*
X88930D01*
Y442082D01*
D02*
G37*
G36*
X8850Y439315D02*
X7989D01*
X7193Y438985D01*
X6584Y438376D01*
X6255Y437580D01*
Y436719D01*
X6584Y435923D01*
X7193Y435314D01*
X7989Y434984D01*
X8850D01*
X9646Y435314D01*
X10255Y435923D01*
X10585Y436719D01*
Y437580D01*
X10255Y438376D01*
X9646Y438985D01*
X8850Y439315D01*
D02*
G37*
G36*
X3087D02*
X2226D01*
X1430Y438985D01*
X821Y438376D01*
X491Y437580D01*
Y436719D01*
X821Y435923D01*
X1430Y435314D01*
X2226Y434984D01*
X3087D01*
X3883Y435314D01*
X4492Y435923D01*
X4822Y436719D01*
Y437580D01*
X4492Y438376D01*
X3883Y438985D01*
X3087Y439315D01*
D02*
G37*
G36*
X-3384Y438554D02*
X-4246D01*
X-5042Y438224D01*
X-5651Y437615D01*
X-5980Y436819D01*
Y435957D01*
X-5651Y435162D01*
X-5042Y434553D01*
X-4246Y434223D01*
X-3384D01*
X-2588Y434553D01*
X-1979Y435162D01*
X-1650Y435957D01*
Y436819D01*
X-1979Y437615D01*
X-2588Y438224D01*
X-3384Y438554D01*
D02*
G37*
G36*
X16703Y438141D02*
X15842D01*
X15046Y437812D01*
X14437Y437202D01*
X14107Y436407D01*
Y435545D01*
X14437Y434749D01*
X15046Y434140D01*
X15842Y433811D01*
X16703D01*
X17499Y434140D01*
X18108Y434749D01*
X18438Y435545D01*
Y436407D01*
X18108Y437202D01*
X17499Y437812D01*
X16703Y438141D01*
D02*
G37*
G36*
X39742Y438338D02*
X38803D01*
X37934Y437978D01*
X37270Y437314D01*
X36910Y436446D01*
Y435506D01*
X37270Y434638D01*
X37934Y433973D01*
X38803Y433614D01*
X39742D01*
X40611Y433973D01*
X41275Y434638D01*
X41635Y435506D01*
Y436446D01*
X41275Y437314D01*
X40611Y437978D01*
X39742Y438338D01*
D02*
G37*
G36*
X-54569Y437165D02*
X-55431D01*
X-56227Y436836D01*
X-56836Y436227D01*
X-57165Y435431D01*
Y434569D01*
X-56836Y433773D01*
X-56227Y433164D01*
X-55431Y432835D01*
X-54569D01*
X-53773Y433164D01*
X-53164Y433773D01*
X-52835Y434569D01*
Y435431D01*
X-53164Y436227D01*
X-53773Y436836D01*
X-54569Y437165D01*
D02*
G37*
G36*
X-109569Y434165D02*
X-110431D01*
X-111227Y433836D01*
X-111836Y433227D01*
X-112165Y432431D01*
Y431569D01*
X-111836Y430773D01*
X-111227Y430164D01*
X-110431Y429835D01*
X-109569D01*
X-108773Y430164D01*
X-108164Y430773D01*
X-107835Y431569D01*
Y432431D01*
X-108164Y433227D01*
X-108773Y433836D01*
X-109569Y434165D01*
D02*
G37*
G36*
X-168054Y432905D02*
X-168916D01*
X-169712Y432576D01*
X-170321Y431967D01*
X-170650Y431171D01*
Y430309D01*
X-170321Y429514D01*
X-169712Y428904D01*
X-168916Y428575D01*
X-168054D01*
X-167259Y428904D01*
X-166649Y429514D01*
X-166320Y430309D01*
Y431171D01*
X-166649Y431967D01*
X-167259Y432576D01*
X-168054Y432905D01*
D02*
G37*
G36*
X-156543Y432641D02*
X-157404D01*
X-158200Y432311D01*
X-158809Y431702D01*
X-159139Y430906D01*
Y430045D01*
X-158809Y429249D01*
X-158200Y428640D01*
X-157404Y428310D01*
X-156543D01*
X-155747Y428640D01*
X-155138Y429249D01*
X-154808Y430045D01*
Y430906D01*
X-155138Y431702D01*
X-155747Y432311D01*
X-156543Y432641D01*
D02*
G37*
G36*
X-39297Y432141D02*
X-40158D01*
X-40954Y431812D01*
X-41563Y431202D01*
X-41893Y430407D01*
Y429545D01*
X-41563Y428749D01*
X-40954Y428140D01*
X-40158Y427810D01*
X-39297D01*
X-38501Y428140D01*
X-37892Y428749D01*
X-37562Y429545D01*
Y430407D01*
X-37892Y431202D01*
X-38501Y431812D01*
X-39297Y432141D01*
D02*
G37*
G36*
X125461Y423298D02*
X124600D01*
X123804Y422968D01*
X123195Y422359D01*
X122865Y421563D01*
Y420702D01*
X123195Y419906D01*
X123804Y419297D01*
X124600Y418967D01*
X125461D01*
X126257Y419297D01*
X126866Y419906D01*
X127196Y420702D01*
Y421563D01*
X126866Y422359D01*
X126257Y422968D01*
X125461Y423298D01*
D02*
G37*
G36*
X137931Y423165D02*
X137069D01*
X136273Y422836D01*
X135664Y422227D01*
X135335Y421431D01*
Y420569D01*
X135664Y419773D01*
X136273Y419164D01*
X137069Y418835D01*
X137931D01*
X138727Y419164D01*
X139336Y419773D01*
X139665Y420569D01*
Y421431D01*
X139336Y422227D01*
X138727Y422836D01*
X137931Y423165D01*
D02*
G37*
G36*
X193343Y442878D02*
X191360D01*
X189401Y442568D01*
X187515Y441955D01*
X185748Y441055D01*
X184144Y439889D01*
X182742Y438487D01*
X181576Y436882D01*
X180676Y435116D01*
X180063Y433230D01*
X179753Y431271D01*
Y429288D01*
X180063Y427329D01*
X180676Y425443D01*
X181576Y423676D01*
X182742Y422072D01*
X184144Y420670D01*
X185748Y419504D01*
X187515Y418604D01*
X189401Y417991D01*
X191360Y417681D01*
X193343D01*
X195301Y417991D01*
X197187Y418604D01*
X198954Y419504D01*
X200559Y420670D01*
X201961Y422072D01*
X203126Y423676D01*
X204027Y425443D01*
X204640Y427329D01*
X204950Y429288D01*
Y431271D01*
X204640Y433230D01*
X204027Y435116D01*
X203126Y436882D01*
X201961Y438487D01*
X200559Y439889D01*
X198954Y441055D01*
X197187Y441955D01*
X195301Y442568D01*
X193343Y442878D01*
D02*
G37*
G36*
X-191303D02*
X-193286D01*
X-195245Y442568D01*
X-197131Y441955D01*
X-198897Y441055D01*
X-200502Y439889D01*
X-201904Y438487D01*
X-203069Y436882D01*
X-203970Y435116D01*
X-204583Y433230D01*
X-204893Y431271D01*
Y429288D01*
X-204583Y427329D01*
X-203970Y425443D01*
X-203069Y423676D01*
X-201904Y422072D01*
X-200502Y420670D01*
X-198897Y419504D01*
X-197131Y418604D01*
X-195245Y417991D01*
X-193286Y417681D01*
X-191303D01*
X-189344Y417991D01*
X-187458Y418604D01*
X-185691Y419504D01*
X-184087Y420670D01*
X-182685Y422072D01*
X-181519Y423676D01*
X-180619Y425443D01*
X-180006Y427329D01*
X-179696Y429288D01*
Y431271D01*
X-180006Y433230D01*
X-180619Y435116D01*
X-181519Y436882D01*
X-182685Y438487D01*
X-184087Y439889D01*
X-185691Y441055D01*
X-187458Y441955D01*
X-189344Y442568D01*
X-191303Y442878D01*
D02*
G37*
G36*
X117598Y422602D02*
X116380D01*
X115203Y422287D01*
X114149Y421677D01*
X113287Y420816D01*
X112678Y419761D01*
X112363Y418585D01*
Y417367D01*
X112678Y416190D01*
X113287Y415135D01*
X114149Y414274D01*
X115203Y413665D01*
X116380Y413350D01*
X117598D01*
X118775Y413665D01*
X119829Y414274D01*
X120691Y415135D01*
X121300Y416190D01*
X121615Y417367D01*
Y418585D01*
X121300Y419761D01*
X120691Y420816D01*
X119829Y421677D01*
X118775Y422287D01*
X117598Y422602D01*
D02*
G37*
G36*
X82165D02*
X80947D01*
X79770Y422287D01*
X78716Y421677D01*
X77854Y420816D01*
X77245Y419761D01*
X76930Y418585D01*
Y417367D01*
X77245Y416190D01*
X77854Y415135D01*
X78716Y414274D01*
X79770Y413665D01*
X80947Y413350D01*
X82165D01*
X83342Y413665D01*
X84396Y414274D01*
X85258Y415135D01*
X85867Y416190D01*
X86182Y417367D01*
Y418585D01*
X85867Y419761D01*
X85258Y420816D01*
X84396Y421677D01*
X83342Y422287D01*
X82165Y422602D01*
D02*
G37*
G36*
X37703Y416141D02*
X36842D01*
X36046Y415811D01*
X35437Y415202D01*
X35107Y414406D01*
Y413545D01*
X35437Y412749D01*
X36046Y412140D01*
X36842Y411810D01*
X37703D01*
X38499Y412140D01*
X39108Y412749D01*
X39438Y413545D01*
Y414406D01*
X39108Y415202D01*
X38499Y415811D01*
X37703Y416141D01*
D02*
G37*
G36*
X17703D02*
X16842D01*
X16046Y415811D01*
X15437Y415202D01*
X15107Y414406D01*
Y413545D01*
X15437Y412749D01*
X16046Y412140D01*
X16842Y411810D01*
X17703D01*
X18499Y412140D01*
X19108Y412749D01*
X19438Y413545D01*
Y414406D01*
X19108Y415202D01*
X18499Y415811D01*
X17703Y416141D01*
D02*
G37*
G36*
X-21258Y400338D02*
X-22197D01*
X-23065Y399978D01*
X-23730Y399314D01*
X-24090Y398446D01*
Y397506D01*
X-23730Y396638D01*
X-23065Y395973D01*
X-22197Y395614D01*
X-21258D01*
X-20389Y395973D01*
X-19725Y396638D01*
X-19365Y397506D01*
Y398446D01*
X-19725Y399314D01*
X-20389Y399978D01*
X-21258Y400338D01*
D02*
G37*
G36*
X93875Y397814D02*
X89930D01*
Y393869D01*
X93875D01*
Y397814D01*
D02*
G37*
G36*
X88930D02*
X84985D01*
Y393869D01*
X88930D01*
Y397814D01*
D02*
G37*
G36*
X29703Y394141D02*
X28842D01*
X28046Y393811D01*
X27437Y393202D01*
X27107Y392407D01*
Y391545D01*
X27437Y390749D01*
X28046Y390140D01*
X28842Y389810D01*
X29703D01*
X30499Y390140D01*
X31108Y390749D01*
X31438Y391545D01*
Y392407D01*
X31108Y393202D01*
X30499Y393811D01*
X29703Y394141D01*
D02*
G37*
G36*
X109698Y397799D02*
X108532D01*
X107405Y397497D01*
X106395Y396914D01*
X105571Y396089D01*
X104988Y395079D01*
X104686Y393953D01*
Y392786D01*
X104988Y391660D01*
X105571Y390650D01*
X106395Y389825D01*
X107405Y389242D01*
X108532Y388940D01*
X109698D01*
X110825Y389242D01*
X111835Y389825D01*
X112659Y390650D01*
X113242Y391660D01*
X113544Y392786D01*
Y393953D01*
X113242Y395079D01*
X112659Y396089D01*
X111835Y396914D01*
X110825Y397497D01*
X109698Y397799D01*
D02*
G37*
G36*
X93875Y392869D02*
X89930D01*
Y388925D01*
X93875D01*
Y392869D01*
D02*
G37*
G36*
X88930D02*
X84985D01*
Y388925D01*
X88930D01*
Y392869D01*
D02*
G37*
G36*
X20931Y393665D02*
X20069D01*
X19273Y393336D01*
X18664Y392727D01*
X18335Y391931D01*
Y391069D01*
X18664Y390273D01*
X19273Y389664D01*
X20069Y389335D01*
X20668D01*
X21017Y388870D01*
X20835Y388431D01*
Y387569D01*
X21164Y386773D01*
X21773Y386164D01*
X22569Y385835D01*
X23431D01*
X24227Y386164D01*
X24836Y386773D01*
X25165Y387569D01*
Y388431D01*
X24836Y389227D01*
X24227Y389836D01*
X23431Y390165D01*
X22832D01*
X22483Y390630D01*
X22665Y391069D01*
Y391931D01*
X22336Y392727D01*
X21727Y393336D01*
X20931Y393665D01*
D02*
G37*
G36*
X29703Y388641D02*
X28842D01*
X28046Y388312D01*
X27437Y387702D01*
X27107Y386907D01*
Y386045D01*
X27437Y385249D01*
X28046Y384640D01*
X28842Y384310D01*
X29703D01*
X30499Y384640D01*
X31108Y385249D01*
X31438Y386045D01*
Y386907D01*
X31108Y387702D01*
X30499Y388312D01*
X29703Y388641D01*
D02*
G37*
G36*
X49742Y384338D02*
X48803D01*
X47934Y383978D01*
X47270Y383314D01*
X46910Y382446D01*
Y381506D01*
X47270Y380638D01*
X47934Y379973D01*
X48803Y379614D01*
X49742D01*
X50611Y379973D01*
X51275Y380638D01*
X51635Y381506D01*
Y382446D01*
X51275Y383314D01*
X50611Y383978D01*
X49742Y384338D01*
D02*
G37*
G36*
X-174724Y379275D02*
X-175585D01*
X-176381Y378945D01*
X-176990Y378336D01*
X-177320Y377540D01*
Y376679D01*
X-176990Y375883D01*
X-176381Y375274D01*
X-175585Y374944D01*
X-174724D01*
X-173928Y375274D01*
X-173319Y375883D01*
X-172989Y376679D01*
Y377540D01*
X-173319Y378336D01*
X-173928Y378945D01*
X-174724Y379275D01*
D02*
G37*
G36*
X143431Y376165D02*
X142569D01*
X141773Y375836D01*
X141164Y375227D01*
X140835Y374431D01*
Y373569D01*
X141164Y372773D01*
X141773Y372164D01*
X142569Y371835D01*
X143431D01*
X144227Y372164D01*
X144836Y372773D01*
X145165Y373569D01*
Y374431D01*
X144836Y375227D01*
X144227Y375836D01*
X143431Y376165D01*
D02*
G37*
G36*
X-154246Y375631D02*
X-155107D01*
X-155903Y375301D01*
X-156512Y374692D01*
X-156842Y373896D01*
Y373035D01*
X-156512Y372239D01*
X-155903Y371630D01*
X-155107Y371300D01*
X-154246D01*
X-153450Y371630D01*
X-152841Y372239D01*
X-152511Y373035D01*
Y373896D01*
X-152841Y374692D01*
X-153450Y375301D01*
X-154246Y375631D01*
D02*
G37*
G36*
X-127637Y376256D02*
X-128363D01*
X-129064Y376068D01*
X-129692Y375705D01*
X-130205Y375192D01*
X-130568Y374564D01*
X-130756Y373863D01*
Y373137D01*
X-130568Y372436D01*
X-130205Y371808D01*
X-129692Y371295D01*
X-129064Y370932D01*
X-128363Y370744D01*
X-127637D01*
X-126936Y370932D01*
X-126308Y371295D01*
X-125795Y371808D01*
X-125432Y372436D01*
X-125244Y373137D01*
Y373863D01*
X-125432Y374564D01*
X-125795Y375192D01*
X-126308Y375705D01*
X-126936Y376068D01*
X-127637Y376256D01*
D02*
G37*
G36*
X54703Y369141D02*
X53842D01*
X53046Y368811D01*
X52437Y368202D01*
X52107Y367407D01*
Y366545D01*
X52437Y365749D01*
X53046Y365140D01*
X53842Y364810D01*
X54703D01*
X55499Y365140D01*
X56108Y365749D01*
X56438Y366545D01*
Y367407D01*
X56108Y368202D01*
X55499Y368811D01*
X54703Y369141D01*
D02*
G37*
G36*
X17703D02*
X16842D01*
X16046Y368811D01*
X15437Y368202D01*
X15107Y367407D01*
Y366545D01*
X15437Y365749D01*
X16046Y365140D01*
X16842Y364810D01*
X17703D01*
X18499Y365140D01*
X19108Y365749D01*
X19438Y366545D01*
Y367407D01*
X19108Y368202D01*
X18499Y368811D01*
X17703Y369141D01*
D02*
G37*
G36*
X88431Y365665D02*
X87569D01*
X86773Y365336D01*
X86164Y364727D01*
X85835Y363931D01*
Y363069D01*
X86164Y362273D01*
X86773Y361664D01*
X87569Y361335D01*
X88431D01*
X89227Y361664D01*
X89836Y362273D01*
X90165Y363069D01*
Y363931D01*
X89836Y364727D01*
X89227Y365336D01*
X88431Y365665D01*
D02*
G37*
G36*
X-54569D02*
X-55431D01*
X-56227Y365336D01*
X-56836Y364727D01*
X-57165Y363931D01*
Y363069D01*
X-56836Y362273D01*
X-56227Y361664D01*
X-55431Y361335D01*
X-54569D01*
X-53773Y361664D01*
X-53164Y362273D01*
X-52835Y363069D01*
Y363931D01*
X-53164Y364727D01*
X-53773Y365336D01*
X-54569Y365665D01*
D02*
G37*
G36*
X-139944Y367873D02*
X-141441D01*
X-142886Y367485D01*
X-144183Y366737D01*
X-145241Y365679D01*
X-145989Y364382D01*
X-146377Y362937D01*
Y361440D01*
X-145989Y359994D01*
X-145241Y358698D01*
X-144183Y357640D01*
X-142886Y356891D01*
X-141441Y356504D01*
X-139944D01*
X-138498Y356891D01*
X-137202Y357640D01*
X-136144Y358698D01*
X-135396Y359994D01*
X-135008Y361440D01*
Y362937D01*
X-135396Y364382D01*
X-136144Y365679D01*
X-137202Y366737D01*
X-138498Y367485D01*
X-139944Y367873D01*
D02*
G37*
G36*
X109973Y369964D02*
X108442D01*
X106940Y369665D01*
X105525Y369079D01*
X104251Y368228D01*
X103168Y367145D01*
X102317Y365872D01*
X101731Y364456D01*
X101432Y362954D01*
Y361423D01*
X101731Y359920D01*
X102317Y358505D01*
X103168Y357232D01*
X104251Y356149D01*
X105525Y355298D01*
X106940Y354712D01*
X108442Y354413D01*
X109973D01*
X111476Y354712D01*
X112891Y355298D01*
X114164Y356149D01*
X115247Y357232D01*
X116098Y358505D01*
X116684Y359920D01*
X116983Y361423D01*
Y362954D01*
X116684Y364456D01*
X116098Y365872D01*
X115247Y367145D01*
X114164Y368228D01*
X112891Y369079D01*
X111476Y369665D01*
X109973Y369964D01*
D02*
G37*
G36*
X193343Y372012D02*
X191360D01*
X189401Y371702D01*
X187515Y371089D01*
X185748Y370188D01*
X184144Y369023D01*
X182742Y367621D01*
X181576Y366016D01*
X180676Y364249D01*
X180063Y362364D01*
X179753Y360405D01*
Y358422D01*
X180063Y356463D01*
X180676Y354577D01*
X181576Y352810D01*
X182742Y351206D01*
X184144Y349804D01*
X185748Y348638D01*
X187515Y347738D01*
X189401Y347125D01*
X191360Y346815D01*
X193343D01*
X195301Y347125D01*
X197187Y347738D01*
X198954Y348638D01*
X200559Y349804D01*
X201961Y351206D01*
X203126Y352810D01*
X204027Y354577D01*
X204640Y356463D01*
X204950Y358422D01*
Y360405D01*
X204640Y362364D01*
X204027Y364249D01*
X203126Y366016D01*
X201961Y367621D01*
X200559Y369023D01*
X198954Y370188D01*
X197187Y371089D01*
X195301Y371702D01*
X193343Y372012D01*
D02*
G37*
G36*
X-191303D02*
X-193286D01*
X-195245Y371702D01*
X-197131Y371089D01*
X-198897Y370188D01*
X-200502Y369023D01*
X-201904Y367621D01*
X-203069Y366016D01*
X-203970Y364249D01*
X-204583Y362364D01*
X-204893Y360405D01*
Y358422D01*
X-204583Y356463D01*
X-203970Y354577D01*
X-203069Y352810D01*
X-201904Y351206D01*
X-200502Y349804D01*
X-198897Y348638D01*
X-197131Y347738D01*
X-195245Y347125D01*
X-193286Y346815D01*
X-191303D01*
X-189344Y347125D01*
X-187458Y347738D01*
X-185691Y348638D01*
X-184087Y349804D01*
X-182685Y351206D01*
X-181519Y352810D01*
X-180619Y354577D01*
X-180006Y356463D01*
X-179696Y358422D01*
Y360405D01*
X-180006Y362364D01*
X-180619Y364249D01*
X-181519Y366016D01*
X-182685Y367621D01*
X-184087Y369023D01*
X-185691Y370188D01*
X-187458Y371089D01*
X-189344Y371702D01*
X-191303Y372012D01*
D02*
G37*
G36*
X-107527Y306964D02*
X-109058D01*
X-110560Y306665D01*
X-111976Y306079D01*
X-113249Y305228D01*
X-114332Y304145D01*
X-115183Y302871D01*
X-115769Y301456D01*
X-116068Y299954D01*
Y298423D01*
X-115769Y296920D01*
X-115183Y295505D01*
X-114332Y294232D01*
X-113249Y293149D01*
X-111976Y292298D01*
X-110560Y291712D01*
X-109058Y291413D01*
X-107527D01*
X-106024Y291712D01*
X-104609Y292298D01*
X-103336Y293149D01*
X-102253Y294232D01*
X-101402Y295505D01*
X-100816Y296920D01*
X-100517Y298423D01*
Y299954D01*
X-100816Y301456D01*
X-101402Y302871D01*
X-102253Y304145D01*
X-103336Y305228D01*
X-104609Y306079D01*
X-106024Y306665D01*
X-107527Y306964D01*
D02*
G37*
G36*
X33203Y289141D02*
X32342D01*
X31546Y288811D01*
X30937Y288202D01*
X30607Y287406D01*
Y286545D01*
X30937Y285749D01*
X31546Y285140D01*
X32342Y284810D01*
X33203D01*
X33999Y285140D01*
X34608Y285749D01*
X34938Y286545D01*
Y287406D01*
X34608Y288202D01*
X33999Y288811D01*
X33203Y289141D01*
D02*
G37*
G36*
X122203Y288141D02*
X121342D01*
X120546Y287811D01*
X119937Y287202D01*
X119607Y286406D01*
Y285545D01*
X119937Y284749D01*
X120546Y284140D01*
X121342Y283810D01*
X122203D01*
X122999Y284140D01*
X123608Y284749D01*
X123938Y285545D01*
Y286406D01*
X123608Y287202D01*
X122999Y287811D01*
X122203Y288141D01*
D02*
G37*
G36*
X98661Y252429D02*
X97884D01*
X97133Y252227D01*
X96460Y251839D01*
X95910Y251289D01*
X95521Y250616D01*
X95320Y249865D01*
Y249087D01*
X95521Y248336D01*
X95910Y247663D01*
X96460Y247113D01*
X97133Y246724D01*
X97884Y246523D01*
X98661D01*
X99412Y246724D01*
X100086Y247113D01*
X100635Y247663D01*
X101024Y248336D01*
X101225Y249087D01*
Y249865D01*
X101024Y250616D01*
X100635Y251289D01*
X100086Y251839D01*
X99412Y252227D01*
X98661Y252429D01*
D02*
G37*
G36*
X-76692Y251694D02*
X-77469D01*
X-78220Y251493D01*
X-78894Y251104D01*
X-79443Y250555D01*
X-79832Y249881D01*
X-80033Y249130D01*
Y248353D01*
X-79832Y247602D01*
X-79443Y246929D01*
X-78894Y246379D01*
X-78220Y245990D01*
X-77469Y245789D01*
X-76692D01*
X-75941Y245990D01*
X-75267Y246379D01*
X-74718Y246929D01*
X-74329Y247602D01*
X-74128Y248353D01*
Y249130D01*
X-74329Y249881D01*
X-74718Y250555D01*
X-75267Y251104D01*
X-75941Y251493D01*
X-76692Y251694D01*
D02*
G37*
G36*
X70863Y251256D02*
X70137D01*
X69436Y251068D01*
X68808Y250705D01*
X68295Y250192D01*
X67932Y249564D01*
X67744Y248863D01*
Y248137D01*
X67932Y247436D01*
X68295Y246808D01*
X68808Y246295D01*
X69436Y245932D01*
X70137Y245744D01*
X70863D01*
X71564Y245932D01*
X72192Y246295D01*
X72705Y246808D01*
X73068Y247436D01*
X73256Y248137D01*
Y248863D01*
X73068Y249564D01*
X72705Y250192D01*
X72192Y250705D01*
X71564Y251068D01*
X70863Y251256D01*
D02*
G37*
G36*
X-85611Y251453D02*
X-86389D01*
X-87140Y251252D01*
X-87813Y250863D01*
X-88363Y250313D01*
X-88752Y249640D01*
X-88953Y248889D01*
Y248111D01*
X-88752Y247360D01*
X-88363Y246687D01*
X-87813Y246137D01*
X-87140Y245748D01*
X-86389Y245547D01*
X-85611D01*
X-84860Y245748D01*
X-84187Y246137D01*
X-83637Y246687D01*
X-83249Y247360D01*
X-83047Y248111D01*
Y248889D01*
X-83249Y249640D01*
X-83637Y250313D01*
X-84187Y250863D01*
X-84860Y251252D01*
X-85611Y251453D01*
D02*
G37*
G36*
X165984Y248984D02*
X154016D01*
Y242016D01*
X165984D01*
Y248984D01*
D02*
G37*
G36*
X-154500Y249014D02*
X-159500D01*
X-160410Y248895D01*
X-161257Y248544D01*
X-161985Y247985D01*
X-162543Y247257D01*
X-162895Y246410D01*
X-163014Y245500D01*
X-162895Y244590D01*
X-162543Y243743D01*
X-161985Y243015D01*
X-161257Y242457D01*
X-160410Y242105D01*
X-159500Y241986D01*
X-154500D01*
X-153590Y242105D01*
X-152743Y242457D01*
X-152015Y243015D01*
X-151456Y243743D01*
X-151105Y244590D01*
X-150986Y245500D01*
X-151105Y246410D01*
X-151456Y247257D01*
X-152015Y247985D01*
X-152743Y248544D01*
X-153590Y248895D01*
X-154500Y249014D01*
D02*
G37*
G36*
X107203Y245141D02*
X106342D01*
X105546Y244812D01*
X104937Y244202D01*
X104607Y243407D01*
Y242545D01*
X104937Y241749D01*
X105546Y241140D01*
X106342Y240810D01*
X107203D01*
X107999Y241140D01*
X108608Y241749D01*
X108938Y242545D01*
Y243407D01*
X108608Y244202D01*
X107999Y244812D01*
X107203Y245141D01*
D02*
G37*
G36*
X-10797Y244141D02*
X-11658D01*
X-12454Y243811D01*
X-13063Y243202D01*
X-13393Y242407D01*
Y241545D01*
X-13063Y240749D01*
X-12454Y240140D01*
X-11658Y239810D01*
X-10797D01*
X-10001Y240140D01*
X-9392Y240749D01*
X-9062Y241545D01*
Y242407D01*
X-9392Y243202D01*
X-10001Y243811D01*
X-10797Y244141D01*
D02*
G37*
G36*
X107203Y239141D02*
X106342D01*
X105546Y238811D01*
X104937Y238202D01*
X104607Y237406D01*
Y236545D01*
X104937Y235749D01*
X105546Y235140D01*
X106342Y234810D01*
X107203D01*
X107999Y235140D01*
X108608Y235749D01*
X108938Y236545D01*
Y237406D01*
X108608Y238202D01*
X107999Y238811D01*
X107203Y239141D01*
D02*
G37*
G36*
X-7797D02*
X-8658D01*
X-9454Y238811D01*
X-10063Y238202D01*
X-10393Y237406D01*
Y236545D01*
X-10063Y235749D01*
X-9454Y235140D01*
X-8658Y234810D01*
X-7797D01*
X-7001Y235140D01*
X-6392Y235749D01*
X-6062Y236545D01*
Y237406D01*
X-6392Y238202D01*
X-7001Y238811D01*
X-7797Y239141D01*
D02*
G37*
G36*
X-105069Y238165D02*
X-105931D01*
X-106727Y237836D01*
X-107336Y237227D01*
X-107665Y236431D01*
Y235569D01*
X-107336Y234773D01*
X-106727Y234164D01*
X-105931Y233835D01*
X-105069D01*
X-104273Y234164D01*
X-103664Y234773D01*
X-103335Y235569D01*
Y236431D01*
X-103664Y237227D01*
X-104273Y237836D01*
X-105069Y238165D01*
D02*
G37*
G36*
X-151016Y238984D02*
X-162984D01*
Y232016D01*
X-151016D01*
Y238984D01*
D02*
G37*
G36*
X162500Y239014D02*
X157500D01*
X156590Y238895D01*
X155743Y238544D01*
X155015Y237985D01*
X154456Y237257D01*
X154105Y236410D01*
X153986Y235500D01*
X154105Y234590D01*
X154456Y233743D01*
X155015Y233015D01*
X155743Y232456D01*
X156590Y232105D01*
X157500Y231986D01*
X162500D01*
X163410Y232105D01*
X164257Y232456D01*
X164985Y233015D01*
X165543Y233743D01*
X165895Y234590D01*
X166014Y235500D01*
X165895Y236410D01*
X165543Y237257D01*
X164985Y237985D01*
X164257Y238544D01*
X163410Y238895D01*
X162500Y239014D01*
D02*
G37*
G36*
X11863Y232256D02*
X11137D01*
X10436Y232068D01*
X9808Y231705D01*
X9295Y231192D01*
X8932Y230564D01*
X8744Y229863D01*
Y229137D01*
X8932Y228436D01*
X9295Y227808D01*
X9808Y227295D01*
X10436Y226932D01*
X11137Y226744D01*
X11863D01*
X12564Y226932D01*
X13192Y227295D01*
X13705Y227808D01*
X14068Y228436D01*
X14256Y229137D01*
Y229863D01*
X14068Y230564D01*
X13705Y231192D01*
X13192Y231705D01*
X12564Y232068D01*
X11863Y232256D01*
D02*
G37*
G36*
X-11569Y223165D02*
X-12431D01*
X-13227Y222836D01*
X-13836Y222227D01*
X-14165Y221431D01*
Y220569D01*
X-13836Y219773D01*
X-13227Y219164D01*
X-12431Y218835D01*
X-11569D01*
X-10773Y219164D01*
X-10164Y219773D01*
X-9835Y220569D01*
Y221431D01*
X-10164Y222227D01*
X-10773Y222836D01*
X-11569Y223165D01*
D02*
G37*
G36*
X-114452Y210048D02*
X-115313D01*
X-116109Y209718D01*
X-116718Y209109D01*
X-117048Y208313D01*
Y207452D01*
X-116718Y206656D01*
X-116109Y206047D01*
X-115313Y205717D01*
X-114452D01*
X-113656Y206047D01*
X-113047Y206656D01*
X-112717Y207452D01*
Y208313D01*
X-113047Y209109D01*
X-113656Y209718D01*
X-114452Y210048D01*
D02*
G37*
G36*
X3363Y203256D02*
X2637D01*
X1936Y203068D01*
X1308Y202705D01*
X795Y202192D01*
X432Y201564D01*
X244Y200863D01*
Y200137D01*
X432Y199436D01*
X795Y198808D01*
X1308Y198295D01*
X1936Y197932D01*
X2637Y197744D01*
X3363D01*
X4064Y197932D01*
X4692Y198295D01*
X5205Y198808D01*
X5568Y199436D01*
X5756Y200137D01*
Y200863D01*
X5568Y201564D01*
X5205Y202192D01*
X4692Y202705D01*
X4064Y203068D01*
X3363Y203256D01*
D02*
G37*
G36*
X-12137Y202756D02*
X-12863D01*
X-13564Y202568D01*
X-14192Y202205D01*
X-14705Y201692D01*
X-15068Y201064D01*
X-15256Y200363D01*
Y199637D01*
X-15068Y198936D01*
X-14705Y198308D01*
X-14192Y197795D01*
X-13564Y197432D01*
X-12863Y197244D01*
X-12137D01*
X-11436Y197432D01*
X-10808Y197795D01*
X-10295Y198308D01*
X-9932Y198936D01*
X-9744Y199637D01*
Y200363D01*
X-9932Y201064D01*
X-10295Y201692D01*
X-10808Y202205D01*
X-11436Y202568D01*
X-12137Y202756D01*
D02*
G37*
G36*
X-159758Y200338D02*
X-160697D01*
X-161565Y199978D01*
X-162230Y199314D01*
X-162590Y198446D01*
Y197506D01*
X-162230Y196638D01*
X-161565Y195973D01*
X-160697Y195614D01*
X-159758D01*
X-158889Y195973D01*
X-158225Y196638D01*
X-157865Y197506D01*
Y198446D01*
X-158225Y199314D01*
X-158889Y199978D01*
X-159758Y200338D01*
D02*
G37*
G36*
X-148797Y193641D02*
X-149658D01*
X-150454Y193312D01*
X-151063Y192702D01*
X-151393Y191906D01*
Y191045D01*
X-151063Y190249D01*
X-150454Y189640D01*
X-149658Y189310D01*
X-148797D01*
X-148001Y189640D01*
X-147392Y190249D01*
X-147062Y191045D01*
Y191906D01*
X-147392Y192702D01*
X-148001Y193312D01*
X-148797Y193641D01*
D02*
G37*
G36*
X-157297Y193141D02*
X-158158D01*
X-158954Y192812D01*
X-159563Y192202D01*
X-159893Y191407D01*
Y190545D01*
X-159563Y189749D01*
X-158954Y189140D01*
X-158158Y188810D01*
X-157297D01*
X-156501Y189140D01*
X-155892Y189749D01*
X-155562Y190545D01*
Y191407D01*
X-155892Y192202D01*
X-156501Y192812D01*
X-157297Y193141D01*
D02*
G37*
G36*
X-56069Y188665D02*
X-56931D01*
X-57727Y188336D01*
X-58336Y187727D01*
X-58665Y186931D01*
Y186069D01*
X-58336Y185273D01*
X-57727Y184664D01*
X-56931Y184335D01*
X-56069D01*
X-55273Y184664D01*
X-54664Y185273D01*
X-54335Y186069D01*
Y186931D01*
X-54664Y187727D01*
X-55273Y188336D01*
X-56069Y188665D01*
D02*
G37*
G36*
X-43797Y188141D02*
X-44658D01*
X-45454Y187812D01*
X-46063Y187202D01*
X-46393Y186407D01*
Y185545D01*
X-46063Y184749D01*
X-45454Y184140D01*
X-44658Y183810D01*
X-43797D01*
X-43001Y184140D01*
X-42392Y184749D01*
X-42062Y185545D01*
Y186407D01*
X-42392Y187202D01*
X-43001Y187812D01*
X-43797Y188141D01*
D02*
G37*
G36*
X-164297D02*
X-165158D01*
X-165954Y187812D01*
X-166563Y187202D01*
X-166893Y186407D01*
Y185545D01*
X-166563Y184749D01*
X-165954Y184140D01*
X-165158Y183810D01*
X-164297D01*
X-163501Y184140D01*
X-162892Y184749D01*
X-162562Y185545D01*
Y186407D01*
X-162892Y187202D01*
X-163501Y187812D01*
X-164297Y188141D01*
D02*
G37*
G36*
X21273Y188976D02*
X18273D01*
Y183476D01*
X21273D01*
Y188976D01*
D02*
G37*
G36*
X17273D02*
X14273D01*
Y183476D01*
X17273D01*
Y188976D01*
D02*
G37*
G36*
X-159297Y185141D02*
X-160158D01*
X-160954Y184811D01*
X-161563Y184202D01*
X-161893Y183406D01*
Y182545D01*
X-161563Y181749D01*
X-160954Y181140D01*
X-160158Y180810D01*
X-159297D01*
X-158501Y181140D01*
X-157892Y181749D01*
X-157562Y182545D01*
Y183406D01*
X-157892Y184202D01*
X-158501Y184811D01*
X-159297Y185141D01*
D02*
G37*
G36*
X-34758Y184838D02*
X-35697D01*
X-36566Y184478D01*
X-37230Y183814D01*
X-37590Y182946D01*
Y182006D01*
X-37230Y181138D01*
X-36566Y180473D01*
X-35697Y180114D01*
X-34758D01*
X-33889Y180473D01*
X-33225Y181138D01*
X-32865Y182006D01*
Y182946D01*
X-33225Y183814D01*
X-33889Y184478D01*
X-34758Y184838D01*
D02*
G37*
G36*
X21273Y182476D02*
X18273D01*
Y176976D01*
X21273D01*
Y182476D01*
D02*
G37*
G36*
X17273D02*
X14273D01*
Y176976D01*
X17273D01*
Y182476D01*
D02*
G37*
G36*
X7773Y188990D02*
X6863Y188870D01*
X6015Y188519D01*
X5288Y187961D01*
X4729Y187233D01*
X4378Y186385D01*
X4258Y185476D01*
Y180476D01*
X4378Y179566D01*
X4729Y178719D01*
X5288Y177991D01*
X6015Y177432D01*
X6863Y177081D01*
X7773Y176962D01*
X8682Y177081D01*
X9530Y177432D01*
X10258Y177991D01*
X10816Y178719D01*
X11167Y179566D01*
X11287Y180476D01*
Y185476D01*
X11167Y186385D01*
X10816Y187233D01*
X10258Y187961D01*
X9530Y188519D01*
X8682Y188870D01*
X7773Y188990D01*
D02*
G37*
G36*
X-2227D02*
X-3137Y188870D01*
X-3985Y188519D01*
X-4712Y187961D01*
X-5271Y187233D01*
X-5622Y186385D01*
X-5742Y185476D01*
Y180476D01*
X-5622Y179566D01*
X-5271Y178719D01*
X-4712Y177991D01*
X-3985Y177432D01*
X-3137Y177081D01*
X-2227Y176962D01*
X-1318Y177081D01*
X-470Y177432D01*
X258Y177991D01*
X816Y178719D01*
X1167Y179566D01*
X1287Y180476D01*
Y185476D01*
X1167Y186385D01*
X816Y187233D01*
X258Y187961D01*
X-470Y188519D01*
X-1318Y188870D01*
X-2227Y188990D01*
D02*
G37*
G36*
X-12227D02*
X-13137Y188870D01*
X-13985Y188519D01*
X-14712Y187961D01*
X-15271Y187233D01*
X-15622Y186385D01*
X-15742Y185476D01*
Y180476D01*
X-15622Y179566D01*
X-15271Y178719D01*
X-14712Y177991D01*
X-13985Y177432D01*
X-13137Y177081D01*
X-12227Y176962D01*
X-11318Y177081D01*
X-10470Y177432D01*
X-9742Y177991D01*
X-9184Y178719D01*
X-8833Y179566D01*
X-8713Y180476D01*
Y185476D01*
X-8833Y186385D01*
X-9184Y187233D01*
X-9742Y187961D01*
X-10470Y188519D01*
X-11318Y188870D01*
X-12227Y188990D01*
D02*
G37*
G36*
X-144297Y179141D02*
X-145158D01*
X-145954Y178812D01*
X-146563Y178202D01*
X-146893Y177407D01*
Y176545D01*
X-146563Y175749D01*
X-145954Y175140D01*
X-145158Y174810D01*
X-144297D01*
X-143501Y175140D01*
X-142892Y175749D01*
X-142562Y176545D01*
Y177407D01*
X-142892Y178202D01*
X-143501Y178812D01*
X-144297Y179141D01*
D02*
G37*
G36*
X-82069Y177665D02*
X-82931D01*
X-83727Y177336D01*
X-84336Y176727D01*
X-84665Y175931D01*
Y175069D01*
X-84336Y174273D01*
X-83727Y173664D01*
X-82931Y173335D01*
X-82069D01*
X-81273Y173664D01*
X-80664Y174273D01*
X-80335Y175069D01*
Y175931D01*
X-80664Y176727D01*
X-81273Y177336D01*
X-82069Y177665D01*
D02*
G37*
G36*
X-46297Y174641D02*
X-47158D01*
X-47954Y174311D01*
X-48563Y173702D01*
X-48893Y172906D01*
Y172045D01*
X-48563Y171249D01*
X-47954Y170640D01*
X-47158Y170310D01*
X-46297D01*
X-45501Y170640D01*
X-44892Y171249D01*
X-44562Y172045D01*
Y172906D01*
X-44892Y173702D01*
X-45501Y174311D01*
X-46297Y174641D01*
D02*
G37*
G36*
X70863Y174756D02*
X70137D01*
X69436Y174568D01*
X68808Y174205D01*
X68295Y173692D01*
X67932Y173064D01*
X67744Y172363D01*
Y171637D01*
X67932Y170936D01*
X68295Y170308D01*
X68808Y169795D01*
X69436Y169432D01*
X70137Y169244D01*
X70863D01*
X71564Y169432D01*
X72192Y169795D01*
X72705Y170308D01*
X73068Y170936D01*
X73256Y171637D01*
Y172363D01*
X73068Y173064D01*
X72705Y173692D01*
X72192Y174205D01*
X71564Y174568D01*
X70863Y174756D01*
D02*
G37*
G36*
X-154797Y171641D02*
X-155658D01*
X-156454Y171311D01*
X-157063Y170702D01*
X-157393Y169906D01*
Y169045D01*
X-157063Y168249D01*
X-156454Y167640D01*
X-155658Y167310D01*
X-154797D01*
X-154369Y167488D01*
X-154063Y166749D01*
X-153454Y166140D01*
X-152658Y165810D01*
X-151797D01*
X-151001Y166140D01*
X-150392Y166749D01*
X-150062Y167545D01*
Y168406D01*
X-150392Y169202D01*
X-151001Y169811D01*
X-151797Y170141D01*
X-152658D01*
X-153086Y169964D01*
X-153392Y170702D01*
X-154001Y171311D01*
X-154797Y171641D01*
D02*
G37*
G36*
X-9604Y164397D02*
X-10465D01*
X-11261Y164067D01*
X-11870Y163458D01*
X-12200Y162662D01*
Y161801D01*
X-11870Y161005D01*
X-11261Y160396D01*
X-10465Y160066D01*
X-9604D01*
X-8808Y160396D01*
X-8199Y161005D01*
X-7869Y161801D01*
Y162662D01*
X-8199Y163458D01*
X-8808Y164067D01*
X-9604Y164397D01*
D02*
G37*
G36*
X46646Y163397D02*
X45785D01*
X44989Y163067D01*
X44380Y162458D01*
X44050Y161662D01*
Y160801D01*
X44380Y160005D01*
X44989Y159396D01*
X45785Y159066D01*
X46646D01*
X47442Y159396D01*
X48051Y160005D01*
X48381Y160801D01*
Y161662D01*
X48051Y162458D01*
X47442Y163067D01*
X46646Y163397D01*
D02*
G37*
G36*
X95242Y157838D02*
X94303D01*
X93435Y157478D01*
X92770Y156814D01*
X92410Y155946D01*
Y155006D01*
X92770Y154138D01*
X93435Y153473D01*
X94303Y153114D01*
X95242D01*
X96111Y153473D01*
X96775Y154138D01*
X97135Y155006D01*
Y155946D01*
X96775Y156814D01*
X96111Y157478D01*
X95242Y157838D01*
D02*
G37*
G36*
X-52297Y150141D02*
X-53158D01*
X-53954Y149811D01*
X-54563Y149202D01*
X-54893Y148407D01*
Y147545D01*
X-54563Y146749D01*
X-53954Y146140D01*
X-53158Y145810D01*
X-52297D01*
X-51501Y146140D01*
X-50892Y146749D01*
X-50562Y147545D01*
Y148407D01*
X-50892Y149202D01*
X-51501Y149811D01*
X-52297Y150141D01*
D02*
G37*
G36*
X-179297Y145141D02*
X-180158D01*
X-180954Y144811D01*
X-181563Y144202D01*
X-181893Y143406D01*
Y142545D01*
X-181563Y141749D01*
X-180954Y141140D01*
X-180158Y140810D01*
X-179297D01*
X-178501Y141140D01*
X-177892Y141749D01*
X-177562Y142545D01*
Y143406D01*
X-177892Y144202D01*
X-178501Y144811D01*
X-179297Y145141D01*
D02*
G37*
G36*
X-111297Y143141D02*
X-112158D01*
X-112954Y142812D01*
X-113563Y142202D01*
X-113893Y141407D01*
Y140545D01*
X-113563Y139749D01*
X-112954Y139140D01*
X-112158Y138810D01*
X-111297D01*
X-110501Y139140D01*
X-109892Y139749D01*
X-109562Y140545D01*
Y141407D01*
X-109892Y142202D01*
X-110501Y142812D01*
X-111297Y143141D01*
D02*
G37*
G36*
X-46258Y141838D02*
X-47197D01*
X-48066Y141478D01*
X-48730Y140814D01*
X-49090Y139946D01*
Y139006D01*
X-48730Y138138D01*
X-48066Y137473D01*
X-47197Y137114D01*
X-46258D01*
X-45389Y137473D01*
X-44725Y138138D01*
X-44365Y139006D01*
Y139946D01*
X-44725Y140814D01*
X-45389Y141478D01*
X-46258Y141838D01*
D02*
G37*
G36*
X121242Y136838D02*
X120303D01*
X119434Y136478D01*
X118770Y135814D01*
X118694Y135631D01*
X118153Y135630D01*
X117560Y136223D01*
X116692Y136582D01*
X115752D01*
X114884Y136223D01*
X114220Y135558D01*
X113860Y134690D01*
Y133800D01*
X113842Y133730D01*
X113489Y133338D01*
X112803D01*
X111934Y132978D01*
X111270Y132314D01*
X110910Y131446D01*
Y130506D01*
X111270Y129638D01*
X111934Y128973D01*
X112803Y128614D01*
X113742D01*
X114611Y128973D01*
X115275Y129638D01*
X115635Y130506D01*
Y131396D01*
X115653Y131465D01*
X116005Y131858D01*
X116692D01*
X117560Y132217D01*
X118225Y132882D01*
X118300Y133064D01*
X118842Y133066D01*
X119434Y132473D01*
X120303Y132114D01*
X121242D01*
X122111Y132473D01*
X122357Y132720D01*
X122770Y132638D01*
X123434Y131973D01*
X124303Y131614D01*
X125242D01*
X126111Y131973D01*
X126775Y132638D01*
X127135Y133506D01*
Y134446D01*
X126775Y135314D01*
X126111Y135978D01*
X125242Y136338D01*
X124303D01*
X123434Y135978D01*
X123188Y135732D01*
X122775Y135814D01*
X122111Y136478D01*
X121242Y136838D01*
D02*
G37*
G36*
X-61569Y134165D02*
X-62431D01*
X-63227Y133836D01*
X-63836Y133227D01*
X-64165Y132431D01*
Y131569D01*
X-63836Y130773D01*
X-63227Y130164D01*
X-62431Y129835D01*
X-61569D01*
X-60773Y130164D01*
X-60164Y130773D01*
X-59835Y131569D01*
Y132431D01*
X-60164Y133227D01*
X-60773Y133836D01*
X-61569Y134165D01*
D02*
G37*
G36*
X-95297Y134141D02*
X-96158D01*
X-96954Y133811D01*
X-97563Y133202D01*
X-97893Y132406D01*
Y131545D01*
X-97563Y130749D01*
X-96954Y130140D01*
X-96158Y129810D01*
X-95297D01*
X-94501Y130140D01*
X-93892Y130749D01*
X-93562Y131545D01*
Y132406D01*
X-93892Y133202D01*
X-94501Y133811D01*
X-95297Y134141D01*
D02*
G37*
G36*
X-68069Y123665D02*
X-68931D01*
X-69727Y123336D01*
X-70336Y122727D01*
X-70665Y121931D01*
Y121069D01*
X-70336Y120273D01*
X-69727Y119664D01*
X-68931Y119335D01*
X-68069D01*
X-67273Y119664D01*
X-66664Y120273D01*
X-66335Y121069D01*
Y121931D01*
X-66664Y122727D01*
X-67273Y123336D01*
X-68069Y123665D01*
D02*
G37*
G36*
X-92069Y121665D02*
X-92931D01*
X-93727Y121336D01*
X-94336Y120727D01*
X-94665Y119931D01*
Y119069D01*
X-94336Y118273D01*
X-93727Y117664D01*
X-92931Y117335D01*
X-92069D01*
X-91273Y117664D01*
X-90664Y118273D01*
X-90335Y119069D01*
Y119931D01*
X-90664Y120727D01*
X-91273Y121336D01*
X-92069Y121665D01*
D02*
G37*
G36*
X-30569Y118165D02*
X-31431D01*
X-32227Y117836D01*
X-32836Y117227D01*
X-33165Y116431D01*
Y115569D01*
X-32836Y114773D01*
X-32227Y114164D01*
X-31431Y113835D01*
X-30569D01*
X-29773Y114164D01*
X-29164Y114773D01*
X-28835Y115569D01*
Y116431D01*
X-29164Y117227D01*
X-29773Y117836D01*
X-30569Y118165D01*
D02*
G37*
G36*
X-41069Y115165D02*
X-41931D01*
X-42727Y114836D01*
X-43336Y114227D01*
X-43665Y113431D01*
Y112569D01*
X-43336Y111773D01*
X-42727Y111164D01*
X-41931Y110835D01*
X-41069D01*
X-40273Y111164D01*
X-39664Y111773D01*
X-39335Y112569D01*
Y113431D01*
X-39664Y114227D01*
X-40273Y114836D01*
X-41069Y115165D01*
D02*
G37*
G36*
X18273Y112440D02*
Y106976D01*
X21303D01*
Y108976D01*
X21182Y109889D01*
X20830Y110741D01*
X20269Y111472D01*
X19538Y112033D01*
X18686Y112386D01*
X18273Y112440D01*
D02*
G37*
G36*
X17273D02*
X16859Y112386D01*
X16007Y112033D01*
X15276Y111472D01*
X14715Y110741D01*
X14363Y109889D01*
X14242Y108976D01*
Y106976D01*
X17273D01*
Y112440D01*
D02*
G37*
G36*
X-119069Y110665D02*
X-119931D01*
X-120727Y110336D01*
X-121336Y109727D01*
X-121665Y108931D01*
Y108069D01*
X-121336Y107273D01*
X-120727Y106664D01*
X-119931Y106335D01*
X-119069D01*
X-118273Y106664D01*
X-117664Y107273D01*
X-117335Y108069D01*
Y108931D01*
X-117664Y109727D01*
X-118273Y110336D01*
X-119069Y110665D01*
D02*
G37*
G36*
X-142758Y110338D02*
X-143697D01*
X-144565Y109978D01*
X-145230Y109314D01*
X-145590Y108446D01*
Y107506D01*
X-145230Y106638D01*
X-144565Y105973D01*
X-143697Y105614D01*
X-143090D01*
Y105006D01*
X-142730Y104138D01*
X-142066Y103473D01*
X-141197Y103114D01*
X-140258D01*
X-139389Y103473D01*
X-138725Y104138D01*
X-138365Y105006D01*
Y105946D01*
X-138725Y106814D01*
X-139389Y107478D01*
X-140258Y107838D01*
X-140865D01*
Y108446D01*
X-141225Y109314D01*
X-141889Y109978D01*
X-142758Y110338D01*
D02*
G37*
G36*
X21303Y105976D02*
X18273D01*
Y100511D01*
X18686Y100566D01*
X19538Y100919D01*
X20269Y101480D01*
X20830Y102211D01*
X21182Y103062D01*
X21303Y103976D01*
Y105976D01*
D02*
G37*
G36*
X17273D02*
X14242D01*
Y103976D01*
X14363Y103062D01*
X14715Y102211D01*
X15276Y101480D01*
X16007Y100919D01*
X16859Y100566D01*
X17273Y100511D01*
Y105976D01*
D02*
G37*
G36*
X-8743Y112460D02*
X-15712D01*
Y100491D01*
X-8743D01*
Y112460D01*
D02*
G37*
G36*
X7773Y112490D02*
X6863Y112370D01*
X6015Y112019D01*
X5288Y111461D01*
X4729Y110733D01*
X4378Y109885D01*
X4258Y108976D01*
Y103976D01*
X4378Y103066D01*
X4729Y102219D01*
X5288Y101491D01*
X6015Y100932D01*
X6863Y100581D01*
X7773Y100461D01*
X8682Y100581D01*
X9530Y100932D01*
X10258Y101491D01*
X10816Y102219D01*
X11167Y103066D01*
X11287Y103976D01*
Y108976D01*
X11167Y109885D01*
X10816Y110733D01*
X10258Y111461D01*
X9530Y112019D01*
X8682Y112370D01*
X7773Y112490D01*
D02*
G37*
G36*
X-2227D02*
X-3137Y112370D01*
X-3985Y112019D01*
X-4712Y111461D01*
X-5271Y110733D01*
X-5622Y109885D01*
X-5742Y108976D01*
Y103976D01*
X-5622Y103066D01*
X-5271Y102219D01*
X-4712Y101491D01*
X-3985Y100932D01*
X-3137Y100581D01*
X-2227Y100461D01*
X-1318Y100581D01*
X-470Y100932D01*
X258Y101491D01*
X816Y102219D01*
X1167Y103066D01*
X1287Y103976D01*
Y108976D01*
X1167Y109885D01*
X816Y110733D01*
X258Y111461D01*
X-470Y112019D01*
X-1318Y112370D01*
X-2227Y112490D01*
D02*
G37*
G36*
X-125100Y104634D02*
X-125962D01*
X-126758Y104305D01*
X-127367Y103695D01*
X-127697Y102900D01*
Y102038D01*
X-127367Y101242D01*
X-126962Y100838D01*
X-127170Y100338D01*
X-127697D01*
X-128566Y99978D01*
X-129230Y99314D01*
X-129590Y98446D01*
Y97506D01*
X-129230Y96638D01*
X-128566Y95973D01*
X-127697Y95614D01*
X-126758D01*
X-125889Y95973D01*
X-125225Y96638D01*
X-124865Y97506D01*
Y98446D01*
X-125225Y99314D01*
X-125715Y99804D01*
X-125507Y100303D01*
X-125100D01*
X-124305Y100633D01*
X-123695Y101242D01*
X-123366Y102038D01*
Y102900D01*
X-123695Y103695D01*
X-124305Y104305D01*
X-125100Y104634D01*
D02*
G37*
G36*
X-122758Y96838D02*
X-123697D01*
X-124565Y96478D01*
X-125230Y95814D01*
X-125590Y94946D01*
Y94006D01*
X-125230Y93138D01*
X-124565Y92473D01*
X-123697Y92114D01*
X-122758D01*
X-121889Y92473D01*
X-121225Y93138D01*
X-120865Y94006D01*
Y94946D01*
X-121225Y95814D01*
X-121889Y96478D01*
X-122758Y96838D01*
D02*
G37*
G36*
X-21663Y96059D02*
X-22337D01*
X-22988Y95885D01*
X-23571Y95548D01*
X-24048Y95071D01*
X-24385Y94488D01*
X-24559Y93837D01*
Y93163D01*
X-24385Y92512D01*
X-24048Y91929D01*
X-23571Y91452D01*
X-22988Y91115D01*
X-22337Y90941D01*
X-21663D01*
X-21012Y91115D01*
X-20429Y91452D01*
X-19952Y91929D01*
X-19615Y92512D01*
X-19441Y93163D01*
Y93837D01*
X-19615Y94488D01*
X-19952Y95071D01*
X-20429Y95548D01*
X-21012Y95885D01*
X-21663Y96059D01*
D02*
G37*
G36*
X42837Y95559D02*
X42163D01*
X41512Y95385D01*
X40929Y95048D01*
X40452Y94571D01*
X40115Y93988D01*
X39941Y93337D01*
Y92663D01*
X40115Y92012D01*
X40452Y91429D01*
X40929Y90952D01*
X41512Y90615D01*
X42163Y90441D01*
X42837D01*
X43488Y90615D01*
X44071Y90952D01*
X44548Y91429D01*
X44885Y92012D01*
X45059Y92663D01*
Y93337D01*
X44885Y93988D01*
X44548Y94571D01*
X44071Y95048D01*
X43488Y95385D01*
X42837Y95559D01*
D02*
G37*
G36*
X20837D02*
X20163D01*
X19512Y95385D01*
X18929Y95048D01*
X18452Y94571D01*
X18115Y93988D01*
X17941Y93337D01*
Y92663D01*
X18115Y92012D01*
X18452Y91429D01*
X18929Y90952D01*
X19512Y90615D01*
X20163Y90441D01*
X20837D01*
X21488Y90615D01*
X22071Y90952D01*
X22548Y91429D01*
X22885Y92012D01*
X23059Y92663D01*
Y93337D01*
X22885Y93988D01*
X22548Y94571D01*
X22071Y95048D01*
X21488Y95385D01*
X20837Y95559D01*
D02*
G37*
G36*
X-30510Y94169D02*
X-31372D01*
X-32168Y93839D01*
X-32777Y93230D01*
X-33106Y92434D01*
Y91572D01*
X-32777Y90777D01*
X-32168Y90167D01*
X-31372Y89838D01*
X-30510D01*
X-29714Y90167D01*
X-29105Y90777D01*
X-28776Y91572D01*
Y92434D01*
X-29105Y93230D01*
X-29714Y93839D01*
X-30510Y94169D01*
D02*
G37*
G36*
X67921Y114936D02*
X65938D01*
X63979Y114626D01*
X62093Y114013D01*
X60326Y113113D01*
X58722Y111948D01*
X57320Y110545D01*
X56154Y108941D01*
X55254Y107174D01*
X54641Y105288D01*
X54331Y103330D01*
Y101347D01*
X54641Y99388D01*
X55254Y97502D01*
X56154Y95735D01*
X57320Y94131D01*
X58722Y92729D01*
X60326Y91563D01*
X62093Y90663D01*
X63979Y90050D01*
X65938Y89740D01*
X67921D01*
X69879Y90050D01*
X71765Y90663D01*
X73532Y91563D01*
X75137Y92729D01*
X76539Y94131D01*
X77704Y95735D01*
X78605Y97502D01*
X79217Y99388D01*
X79527Y101347D01*
Y103330D01*
X79217Y105288D01*
X78605Y107174D01*
X77704Y108941D01*
X76539Y110545D01*
X75137Y111948D01*
X73532Y113113D01*
X71765Y114013D01*
X69879Y114626D01*
X67921Y114936D01*
D02*
G37*
G36*
X-65938D02*
X-67921D01*
X-69879Y114626D01*
X-71765Y114013D01*
X-73532Y113113D01*
X-75137Y111948D01*
X-76539Y110545D01*
X-77704Y108941D01*
X-78605Y107174D01*
X-79217Y105288D01*
X-79527Y103330D01*
Y101347D01*
X-79217Y99388D01*
X-78605Y97502D01*
X-77704Y95735D01*
X-76539Y94131D01*
X-75137Y92729D01*
X-73532Y91563D01*
X-71765Y90663D01*
X-69879Y90050D01*
X-67921Y89740D01*
X-65938D01*
X-63979Y90050D01*
X-62093Y90663D01*
X-60326Y91563D01*
X-58722Y92729D01*
X-57320Y94131D01*
X-56154Y95735D01*
X-55254Y97502D01*
X-54641Y99388D01*
X-54331Y101347D01*
Y103330D01*
X-54641Y105288D01*
X-55254Y107174D01*
X-56154Y108941D01*
X-57320Y110545D01*
X-58722Y111948D01*
X-60326Y113113D01*
X-62093Y114013D01*
X-63979Y114626D01*
X-65938Y114936D01*
D02*
G37*
G36*
X-49569Y92165D02*
X-50431D01*
X-51227Y91836D01*
X-51836Y91227D01*
X-52165Y90431D01*
Y89569D01*
X-51836Y88773D01*
X-51227Y88164D01*
X-50431Y87835D01*
X-49569D01*
X-48773Y88164D01*
X-48164Y88773D01*
X-47835Y89569D01*
Y90431D01*
X-48164Y91227D01*
X-48773Y91836D01*
X-49569Y92165D01*
D02*
G37*
G36*
X-42569Y89165D02*
X-43431D01*
X-44227Y88836D01*
X-44836Y88227D01*
X-45165Y87431D01*
Y86569D01*
X-44836Y85773D01*
X-44227Y85164D01*
X-43431Y84835D01*
X-42569D01*
X-41773Y85164D01*
X-41164Y85773D01*
X-40835Y86569D01*
Y87431D01*
X-41164Y88227D01*
X-41773Y88836D01*
X-42569Y89165D01*
D02*
G37*
G36*
X-100569Y87665D02*
X-101431D01*
X-102227Y87336D01*
X-102836Y86727D01*
X-103165Y85931D01*
Y85069D01*
X-102836Y84273D01*
X-102227Y83664D01*
X-101431Y83335D01*
X-100569D01*
X-99773Y83664D01*
X-99164Y84273D01*
X-98835Y85069D01*
Y85931D01*
X-99164Y86727D01*
X-99773Y87336D01*
X-100569Y87665D01*
D02*
G37*
G36*
X-3778Y86940D02*
X-4639D01*
X-5435Y86610D01*
X-6044Y86001D01*
X-6374Y85205D01*
Y84344D01*
X-6044Y83548D01*
X-5435Y82939D01*
X-4639Y82609D01*
X-3778D01*
X-2982Y82939D01*
X-2373Y83548D01*
X-2043Y84344D01*
Y85205D01*
X-2373Y86001D01*
X-2982Y86610D01*
X-3778Y86940D01*
D02*
G37*
G36*
X-48069Y85165D02*
X-48931D01*
X-49727Y84836D01*
X-50336Y84227D01*
X-50665Y83431D01*
Y82569D01*
X-50336Y81773D01*
X-49727Y81164D01*
X-48931Y80835D01*
X-48069D01*
X-47273Y81164D01*
X-46664Y81773D01*
X-46335Y82569D01*
Y83431D01*
X-46664Y84227D01*
X-47273Y84836D01*
X-48069Y85165D01*
D02*
G37*
G36*
X-112069D02*
X-112931D01*
X-113727Y84836D01*
X-114336Y84227D01*
X-114665Y83431D01*
Y82569D01*
X-114336Y81773D01*
X-113727Y81164D01*
X-112931Y80835D01*
X-112069D01*
X-111273Y81164D01*
X-110664Y81773D01*
X-110335Y82569D01*
Y83431D01*
X-110664Y84227D01*
X-111273Y84836D01*
X-112069Y85165D01*
D02*
G37*
G36*
X-119569D02*
X-120431D01*
X-121227Y84836D01*
X-121836Y84227D01*
X-122165Y83431D01*
Y82569D01*
X-121836Y81773D01*
X-121227Y81164D01*
X-120431Y80835D01*
X-119569D01*
X-118773Y81164D01*
X-118164Y81773D01*
X-117835Y82569D01*
Y83431D01*
X-118164Y84227D01*
X-118773Y84836D01*
X-119569Y85165D01*
D02*
G37*
G36*
X-61319Y81415D02*
X-62181D01*
X-62977Y81086D01*
X-63586Y80477D01*
X-63915Y79681D01*
Y78819D01*
X-63586Y78023D01*
X-62977Y77414D01*
X-62181Y77085D01*
X-61319D01*
X-60523Y77414D01*
X-59914Y78023D01*
X-59585Y78819D01*
Y79681D01*
X-59914Y80477D01*
X-60523Y81086D01*
X-61319Y81415D01*
D02*
G37*
G36*
X-38069Y80165D02*
X-38931D01*
X-39727Y79836D01*
X-40336Y79227D01*
X-40665Y78431D01*
Y77569D01*
X-40336Y76773D01*
X-39727Y76164D01*
X-38931Y75835D01*
X-38069D01*
X-37273Y76164D01*
X-36664Y76773D01*
X-36335Y77569D01*
Y78431D01*
X-36664Y79227D01*
X-37273Y79836D01*
X-38069Y80165D01*
D02*
G37*
G36*
X-92069Y78165D02*
X-92931D01*
X-93727Y77836D01*
X-94336Y77227D01*
X-94665Y76431D01*
Y75569D01*
X-94336Y74773D01*
X-93727Y74164D01*
X-92931Y73835D01*
X-92069D01*
X-91273Y74164D01*
X-90664Y74773D01*
X-90335Y75569D01*
Y76431D01*
X-90664Y77227D01*
X-91273Y77836D01*
X-92069Y78165D01*
D02*
G37*
G36*
X-53938Y77904D02*
X-54800D01*
X-55595Y77574D01*
X-56205Y76965D01*
X-56534Y76169D01*
Y75308D01*
X-56205Y74512D01*
X-55595Y73903D01*
X-54800Y73573D01*
X-53938D01*
X-53142Y73903D01*
X-52533Y74512D01*
X-52204Y75308D01*
Y76169D01*
X-52533Y76965D01*
X-53142Y77574D01*
X-53938Y77904D01*
D02*
G37*
G36*
X-30069Y76165D02*
X-30931D01*
X-31727Y75836D01*
X-32336Y75227D01*
X-32665Y74431D01*
Y73569D01*
X-32336Y72773D01*
X-31727Y72164D01*
X-30931Y71835D01*
X-30069D01*
X-29273Y72164D01*
X-28664Y72773D01*
X-28335Y73569D01*
Y74431D01*
X-28664Y75227D01*
X-29273Y75836D01*
X-30069Y76165D01*
D02*
G37*
G36*
X-113569Y74165D02*
X-114431D01*
X-115227Y73836D01*
X-115836Y73227D01*
X-116165Y72431D01*
Y71569D01*
X-115836Y70773D01*
X-115227Y70164D01*
X-114431Y69835D01*
X-113569D01*
X-112773Y70164D01*
X-112164Y70773D01*
X-111835Y71569D01*
Y72431D01*
X-112164Y73227D01*
X-112773Y73836D01*
X-113569Y74165D01*
D02*
G37*
G36*
X-16069Y71665D02*
X-16931D01*
X-17727Y71336D01*
X-18336Y70727D01*
X-18665Y69931D01*
Y69069D01*
X-18336Y68273D01*
X-17727Y67664D01*
X-16931Y67335D01*
X-16069D01*
X-15273Y67664D01*
X-14664Y68273D01*
X-14335Y69069D01*
Y69931D01*
X-14664Y70727D01*
X-15273Y71336D01*
X-16069Y71665D01*
D02*
G37*
G36*
X-57069Y70165D02*
X-57931D01*
X-58727Y69836D01*
X-59336Y69227D01*
X-59665Y68431D01*
Y67569D01*
X-59336Y66773D01*
X-58727Y66164D01*
X-57931Y65835D01*
X-57069D01*
X-56273Y66164D01*
X-55664Y66773D01*
X-55335Y67569D01*
Y68431D01*
X-55664Y69227D01*
X-56273Y69836D01*
X-57069Y70165D01*
D02*
G37*
G36*
X47431Y64665D02*
X46569D01*
X45773Y64336D01*
X45164Y63727D01*
X44835Y62931D01*
Y62069D01*
X45164Y61273D01*
X45773Y60664D01*
X46569Y60335D01*
X47431D01*
X48227Y60664D01*
X48836Y61273D01*
X49165Y62069D01*
Y62931D01*
X48836Y63727D01*
X48227Y64336D01*
X47431Y64665D01*
D02*
G37*
G36*
X-89637Y58256D02*
X-90363D01*
X-91064Y58068D01*
X-91692Y57705D01*
X-92205Y57192D01*
X-92568Y56564D01*
X-92756Y55863D01*
Y55137D01*
X-92568Y54436D01*
X-92205Y53808D01*
X-91692Y53295D01*
X-91064Y52932D01*
X-90363Y52744D01*
X-89637D01*
X-88936Y52932D01*
X-88308Y53295D01*
X-87795Y53808D01*
X-87432Y54436D01*
X-87244Y55137D01*
Y55863D01*
X-87432Y56564D01*
X-87795Y57192D01*
X-88308Y57705D01*
X-88936Y58068D01*
X-89637Y58256D01*
D02*
G37*
G36*
X9431Y46165D02*
X8569D01*
X7773Y45836D01*
X7164Y45227D01*
X6835Y44431D01*
Y43569D01*
X7164Y42773D01*
X7773Y42164D01*
X8569Y41835D01*
X9431D01*
X10227Y42164D01*
X10335Y42272D01*
X10835Y42065D01*
Y41569D01*
X11164Y40773D01*
X11773Y40164D01*
X12569Y39835D01*
X13431D01*
X14227Y40164D01*
X14836Y40773D01*
X15165Y41569D01*
Y41671D01*
X15659Y41772D01*
X15665Y41772D01*
X16273Y41164D01*
X17069Y40835D01*
X17931D01*
X18727Y41164D01*
X19336Y41773D01*
X19665Y42569D01*
Y43431D01*
X19336Y44227D01*
X18727Y44836D01*
X17931Y45165D01*
X17069D01*
X16273Y44836D01*
X15664Y44227D01*
X15335Y43431D01*
Y43328D01*
X14841Y43228D01*
X14835Y43228D01*
X14227Y43836D01*
X13431Y44165D01*
X12569D01*
X11773Y43836D01*
X11665Y43728D01*
X11165Y43935D01*
Y44431D01*
X10836Y45227D01*
X10227Y45836D01*
X9431Y46165D01*
D02*
G37*
G36*
X-9018Y47716D02*
X-9880D01*
X-10676Y47387D01*
X-11285Y46777D01*
X-11614Y45982D01*
Y45120D01*
X-11889Y44476D01*
X-12227Y44336D01*
X-12836Y43727D01*
X-13165Y42931D01*
Y42069D01*
X-12836Y41273D01*
X-12227Y40664D01*
X-11431Y40335D01*
X-10569D01*
X-9773Y40664D01*
X-9164Y41273D01*
X-8835Y42069D01*
Y42931D01*
X-8560Y43575D01*
X-8223Y43715D01*
X-7613Y44324D01*
X-7284Y45120D01*
Y45982D01*
X-7613Y46777D01*
X-8223Y47387D01*
X-9018Y47716D01*
D02*
G37*
G36*
X-25569Y44665D02*
X-26431D01*
X-27227Y44336D01*
X-27836Y43727D01*
X-28165Y42931D01*
Y42069D01*
X-27836Y41273D01*
X-27227Y40664D01*
X-26431Y40335D01*
X-25569D01*
X-24773Y40664D01*
X-24164Y41273D01*
X-23835Y42069D01*
Y42931D01*
X-24164Y43727D01*
X-24773Y44336D01*
X-25569Y44665D01*
D02*
G37*
G36*
X1431Y44165D02*
X569D01*
X-227Y43836D01*
X-836Y43227D01*
X-1165Y42431D01*
Y41569D01*
X-836Y40773D01*
X-227Y40164D01*
X569Y39835D01*
X1431D01*
X2227Y40164D01*
X2836Y40773D01*
X3165Y41569D01*
Y42431D01*
X2836Y43227D01*
X2227Y43836D01*
X1431Y44165D01*
D02*
G37*
G36*
X7431Y36165D02*
X6569D01*
X5773Y35836D01*
X5164Y35227D01*
X4982Y34787D01*
X4392Y34670D01*
X4227Y34836D01*
X3431Y35165D01*
X2569D01*
X1773Y34836D01*
X1608Y34670D01*
X1018Y34787D01*
X836Y35227D01*
X227Y35836D01*
X-569Y36165D01*
X-1431D01*
X-2227Y35836D01*
X-2836Y35227D01*
X-3165Y34431D01*
Y33569D01*
X-2836Y32773D01*
X-2227Y32164D01*
X-1431Y31835D01*
X-569D01*
X227Y32164D01*
X392Y32330D01*
X982Y32213D01*
X1164Y31773D01*
X1773Y31164D01*
X2569Y30835D01*
X3431D01*
X4227Y31164D01*
X4836Y31773D01*
X5018Y32213D01*
X5607Y32330D01*
X5773Y32164D01*
X6569Y31835D01*
X7431D01*
X8227Y32164D01*
X8390Y32328D01*
X8664Y32273D01*
X9273Y31664D01*
X10069Y31335D01*
X10931D01*
X11727Y31664D01*
X12336Y32273D01*
X12665Y33069D01*
Y33931D01*
X12336Y34727D01*
X11727Y35336D01*
X10931Y35665D01*
X10069D01*
X9273Y35336D01*
X9110Y35172D01*
X8836Y35227D01*
X8227Y35836D01*
X7431Y36165D01*
D02*
G37*
G36*
X17431Y35665D02*
X16569D01*
X15773Y35336D01*
X15164Y34727D01*
X14835Y33931D01*
Y33069D01*
X15164Y32273D01*
X15773Y31664D01*
X16569Y31335D01*
X17431D01*
X18227Y31664D01*
X18836Y32273D01*
X19165Y33069D01*
Y33931D01*
X18836Y34727D01*
X18227Y35336D01*
X17431Y35665D01*
D02*
G37*
G36*
X-54011Y29679D02*
X-54872D01*
X-55668Y29349D01*
X-56277Y28740D01*
X-56607Y27944D01*
Y27924D01*
X-57022Y27646D01*
X-57069Y27665D01*
X-57931D01*
X-58727Y27336D01*
X-59336Y26727D01*
X-59665Y25931D01*
Y25069D01*
X-59570Y24840D01*
X-59994Y24556D01*
X-60273Y24836D01*
X-61069Y25165D01*
X-61931D01*
X-62727Y24836D01*
X-63336Y24227D01*
X-63665Y23431D01*
Y22569D01*
X-63336Y21773D01*
X-62727Y21164D01*
X-61931Y20835D01*
X-61069D01*
X-60273Y21164D01*
X-59664Y21773D01*
X-59335Y22569D01*
Y23431D01*
X-59430Y23660D01*
X-59006Y23944D01*
X-58727Y23664D01*
X-57931Y23335D01*
X-57069D01*
X-56273Y23664D01*
X-55664Y24273D01*
X-55335Y25069D01*
Y25090D01*
X-54919Y25368D01*
X-54872Y25348D01*
X-54011D01*
X-53215Y25678D01*
X-52606Y26287D01*
X-52276Y27083D01*
Y27944D01*
X-52606Y28740D01*
X-53215Y29349D01*
X-54011Y29679D01*
D02*
G37*
G36*
X14931Y30665D02*
X14069D01*
X13273Y30336D01*
X12664Y29727D01*
X12335Y28931D01*
Y28069D01*
X12664Y27273D01*
X13273Y26664D01*
X14069Y26335D01*
X14931D01*
X15727Y26664D01*
X16336Y27273D01*
X16665Y28069D01*
Y28931D01*
X16336Y29727D01*
X15727Y30336D01*
X14931Y30665D01*
D02*
G37*
G36*
X-52069Y21665D02*
X-52931D01*
X-53727Y21336D01*
X-54336Y20727D01*
X-54665Y19931D01*
Y19069D01*
X-54336Y18273D01*
X-53727Y17664D01*
X-52931Y17335D01*
X-52069D01*
X-51273Y17664D01*
X-50664Y18273D01*
X-50335Y19069D01*
Y19931D01*
X-50664Y20727D01*
X-51273Y21336D01*
X-52069Y21665D01*
D02*
G37*
G36*
X-47069Y20165D02*
X-47931D01*
X-48727Y19836D01*
X-49336Y19227D01*
X-49665Y18431D01*
Y17569D01*
X-49336Y16773D01*
X-48727Y16164D01*
X-47931Y15835D01*
X-47069D01*
X-46273Y16164D01*
X-45664Y16773D01*
X-45335Y17569D01*
Y18431D01*
X-45664Y19227D01*
X-46273Y19836D01*
X-47069Y20165D01*
D02*
G37*
G36*
X-43069Y15665D02*
X-43931D01*
X-44727Y15336D01*
X-45336Y14727D01*
X-45665Y13931D01*
Y13069D01*
X-45336Y12273D01*
X-44727Y11664D01*
X-43931Y11335D01*
X-43069D01*
X-42273Y11664D01*
X-41664Y12273D01*
X-41335Y13069D01*
Y13931D01*
X-41664Y14727D01*
X-42273Y15336D01*
X-43069Y15665D01*
D02*
G37*
G36*
X46431Y14665D02*
X45569D01*
X44773Y14336D01*
X44164Y13727D01*
X43835Y12931D01*
Y12069D01*
X44164Y11273D01*
X44773Y10664D01*
X45569Y10335D01*
X46431D01*
X47227Y10664D01*
X47836Y11273D01*
X48165Y12069D01*
Y12931D01*
X47836Y13727D01*
X47227Y14336D01*
X46431Y14665D01*
D02*
G37*
G36*
X-13069Y14165D02*
X-13931D01*
X-14727Y13836D01*
X-15336Y13227D01*
X-15665Y12431D01*
Y11569D01*
X-15336Y10773D01*
X-14727Y10164D01*
X-13931Y9835D01*
X-13069D01*
X-12273Y10164D01*
X-11664Y10773D01*
X-11335Y11569D01*
Y12431D01*
X-11664Y13227D01*
X-12273Y13836D01*
X-13069Y14165D01*
D02*
G37*
G36*
X40431Y8665D02*
X39569D01*
X38773Y8336D01*
X38164Y7727D01*
X37835Y6931D01*
Y6069D01*
X38164Y5273D01*
X38773Y4664D01*
X39569Y4335D01*
X40431D01*
X41227Y4664D01*
X41836Y5273D01*
X42165Y6069D01*
Y6931D01*
X41836Y7727D01*
X41227Y8336D01*
X40431Y8665D01*
D02*
G37*
G36*
X-8069D02*
X-8931D01*
X-9727Y8336D01*
X-10336Y7727D01*
X-10665Y6931D01*
Y6069D01*
X-10336Y5273D01*
X-9727Y4664D01*
X-8931Y4335D01*
X-8069D01*
X-7273Y4664D01*
X-6664Y5273D01*
X-6335Y6069D01*
Y6931D01*
X-6664Y7727D01*
X-7273Y8336D01*
X-8069Y8665D01*
D02*
G37*
%LPD*%
D104*
X153000Y441000D02*
D03*
X156812Y438027D02*
D03*
X156391Y421333D02*
D03*
X152457Y424500D02*
D03*
D105*
X108500Y89500D02*
D03*
X104500D02*
D03*
X100500D02*
D03*
X108500Y93500D02*
D03*
X104500D02*
D03*
X100500D02*
D03*
D115*
X89430Y393370D02*
D03*
D116*
Y442582D02*
D03*
D119*
X17773Y106476D02*
D03*
D120*
Y182976D02*
D03*
D122*
X16273Y426976D02*
D03*
X-171000Y386000D02*
D03*
Y391000D02*
D03*
X-42500Y139000D02*
D03*
X-182727Y139976D02*
D03*
X-179727Y137476D02*
D03*
X-192227Y149476D02*
D03*
X-195227Y152476D02*
D03*
X-177227Y134976D02*
D03*
X-198227Y155476D02*
D03*
X-121227Y78976D02*
D03*
X-127227Y83976D02*
D03*
X-124227Y81476D02*
D03*
X-144227Y131976D02*
D03*
X-141727Y134976D02*
D03*
X-134727Y141976D02*
D03*
X-138227Y137976D02*
D03*
X-134727Y134976D02*
D03*
X-138227Y131476D02*
D03*
X-143727Y137976D02*
D03*
X-141227Y128476D02*
D03*
X-147227Y135476D02*
D03*
X-131227Y138976D02*
D03*
X-145727Y141976D02*
D03*
X-149727Y138976D02*
D03*
X-140727Y141476D02*
D03*
X-142727Y144976D02*
D03*
X-139727Y147976D02*
D03*
X-137227Y144976D02*
D03*
X-149227Y107476D02*
D03*
X-144227Y101976D02*
D03*
X-146727Y104976D02*
D03*
X-40000Y136000D02*
D03*
X-88735Y419079D02*
D03*
X-91855Y415654D02*
D03*
X-92041Y419079D02*
D03*
X-95331Y419181D02*
D03*
X-131227Y257476D02*
D03*
Y252976D02*
D03*
X130273Y222476D02*
D03*
Y226976D02*
D03*
X-7227Y415476D02*
D03*
X-3727Y419476D02*
D03*
X-140000Y237500D02*
D03*
Y242500D02*
D03*
X-126727Y237476D02*
D03*
Y242976D02*
D03*
X126773Y237476D02*
D03*
Y242476D02*
D03*
X140500Y237500D02*
D03*
Y242500D02*
D03*
X27773Y435476D02*
D03*
X20773Y426976D02*
D03*
X-18727Y435476D02*
D03*
X-40727Y411476D02*
D03*
X-21227Y410476D02*
D03*
Y404476D02*
D03*
X-61227Y418976D02*
D03*
Y412976D02*
D03*
X-65727Y408476D02*
D03*
X-68227Y423976D02*
D03*
X-71727D02*
D03*
X-87306Y413373D02*
D03*
X-82822Y410122D02*
D03*
X-165000Y356000D02*
D03*
X15273Y84976D02*
D03*
X10773Y80976D02*
D03*
X15273Y76976D02*
D03*
Y55476D02*
D03*
X11000Y65000D02*
D03*
X-35000Y85000D02*
D03*
X11500Y57500D02*
D03*
X2065Y86302D02*
D03*
X19773Y98976D02*
D03*
X-17000Y80500D02*
D03*
X-2000Y63000D02*
D03*
X-5500Y65500D02*
D03*
X-1748Y58733D02*
D03*
X81773Y136476D02*
D03*
X82273Y139976D02*
D03*
X124773Y139476D02*
D03*
X116773Y157476D02*
D03*
X118773Y147476D02*
D03*
X118273Y152476D02*
D03*
X135273Y147976D02*
D03*
X130273D02*
D03*
X125773D02*
D03*
X134273Y143976D02*
D03*
X130273D02*
D03*
X126273D02*
D03*
X86273Y136476D02*
D03*
X82273Y144476D02*
D03*
X86773Y139976D02*
D03*
X85273Y160476D02*
D03*
X80773Y158976D02*
D03*
Y162976D02*
D03*
X32273Y136976D02*
D03*
X37273Y131976D02*
D03*
X32273Y141476D02*
D03*
X37273Y136976D02*
D03*
X20273Y162476D02*
D03*
X36273Y156976D02*
D03*
X29273Y162976D02*
D03*
X-19227Y166976D02*
D03*
X-19727Y157476D02*
D03*
X-24727Y162476D02*
D03*
Y145976D02*
D03*
X-24227Y140976D02*
D03*
X-19727D02*
D03*
D123*
X-10485Y461976D02*
D03*
X23530D02*
D03*
X-10485Y445519D02*
D03*
X23530D02*
D03*
D124*
X-110000Y111500D02*
D03*
X129500Y418000D02*
D03*
X-160000Y205000D02*
D03*
X-82500Y137500D02*
D03*
X-34000Y63500D02*
D03*
X-26500Y73500D02*
D03*
X-27500Y58000D02*
D03*
X-31000Y48000D02*
D03*
Y53500D02*
D03*
X53500Y67000D02*
D03*
Y63500D02*
D03*
X41000Y66000D02*
D03*
Y63000D02*
D03*
X28500Y60500D02*
D03*
Y57500D02*
D03*
X3000Y45000D02*
D03*
X32500Y19500D02*
D03*
X25500Y20000D02*
D03*
X-35500Y39500D02*
D03*
X-27500Y39000D02*
D03*
X5000Y42000D02*
D03*
X-96000Y427500D02*
D03*
Y430500D02*
D03*
X-99500Y427500D02*
D03*
Y430500D02*
D03*
X-94500Y151000D02*
D03*
D125*
X273060Y460157D02*
D03*
X279950Y446378D02*
D03*
X273060Y432598D02*
D03*
X279950Y418818D02*
D03*
X273060Y405039D02*
D03*
X279950Y391259D02*
D03*
X273060Y377480D02*
D03*
X279950Y363700D02*
D03*
X273060Y349921D02*
D03*
X279950Y336141D02*
D03*
X273060Y322362D02*
D03*
X279950Y308582D02*
D03*
X273060Y294803D02*
D03*
X279950Y281023D02*
D03*
X273060Y267244D02*
D03*
X279950Y253464D02*
D03*
X273060Y239685D02*
D03*
X259281Y460157D02*
D03*
X266170Y446378D02*
D03*
X259281Y432598D02*
D03*
X266170Y418818D02*
D03*
X259281Y405039D02*
D03*
X266170Y391259D02*
D03*
X259281Y377480D02*
D03*
X266170Y363700D02*
D03*
X259281Y349921D02*
D03*
X266170Y336141D02*
D03*
X259281Y322362D02*
D03*
X266170Y308582D02*
D03*
X259281Y294803D02*
D03*
X266170Y281023D02*
D03*
X259281Y267244D02*
D03*
X266170Y253464D02*
D03*
X259281Y239685D02*
D03*
X266170Y225905D02*
D03*
X259281Y212125D02*
D03*
X245501Y460157D02*
D03*
X252391Y446378D02*
D03*
X245501Y432598D02*
D03*
X252391Y418818D02*
D03*
X245501Y405039D02*
D03*
X252391Y391259D02*
D03*
X245501Y377480D02*
D03*
X252391Y363700D02*
D03*
X245501Y349921D02*
D03*
X252391Y336141D02*
D03*
X245501Y322362D02*
D03*
X252391Y308582D02*
D03*
X245501Y294803D02*
D03*
X252391Y281023D02*
D03*
X245501Y267244D02*
D03*
X252391Y253464D02*
D03*
X245501Y239685D02*
D03*
X252391Y225905D02*
D03*
X245501Y212125D02*
D03*
X231721Y460157D02*
D03*
X238611Y446378D02*
D03*
X231721Y432598D02*
D03*
X238611Y418818D02*
D03*
X231721Y405039D02*
D03*
X238611Y391259D02*
D03*
X231721Y377480D02*
D03*
X238611Y363700D02*
D03*
X231721Y349921D02*
D03*
X238611Y336141D02*
D03*
X231721Y322362D02*
D03*
X238611Y308582D02*
D03*
X231721Y294803D02*
D03*
X238611Y281023D02*
D03*
X231721Y267244D02*
D03*
X238611Y253464D02*
D03*
X231721Y239685D02*
D03*
X238611Y225905D02*
D03*
X231721Y212125D02*
D03*
X238611Y198346D02*
D03*
X231721Y184566D02*
D03*
X217942Y460157D02*
D03*
X224832Y446378D02*
D03*
X217942Y432598D02*
D03*
X224832Y418818D02*
D03*
X217942Y405039D02*
D03*
X224832Y391259D02*
D03*
X217942Y377480D02*
D03*
X224832Y363700D02*
D03*
X217942Y349921D02*
D03*
X224832Y336141D02*
D03*
X217942Y322362D02*
D03*
X224832Y308582D02*
D03*
X217942Y294803D02*
D03*
X224832Y281023D02*
D03*
X217942Y267244D02*
D03*
X224832Y253464D02*
D03*
X217942Y239685D02*
D03*
X224832Y225905D02*
D03*
X217942Y212125D02*
D03*
X224832Y198346D02*
D03*
X217942Y184566D02*
D03*
X204163Y460157D02*
D03*
X211052Y446378D02*
D03*
Y418818D02*
D03*
X204163Y405039D02*
D03*
X211052Y391259D02*
D03*
X204163Y377480D02*
D03*
X211052Y363700D02*
D03*
X204163Y349921D02*
D03*
X211052Y336141D02*
D03*
X204163Y322362D02*
D03*
X211052Y308582D02*
D03*
X204163Y294803D02*
D03*
X211052Y281023D02*
D03*
X204163Y267244D02*
D03*
X211052Y253464D02*
D03*
X204163Y239685D02*
D03*
X211052Y225905D02*
D03*
X204163Y212125D02*
D03*
X211052Y198346D02*
D03*
X204163Y184566D02*
D03*
X211052Y170787D02*
D03*
X204163Y157007D02*
D03*
X190383Y460157D02*
D03*
X197273Y446378D02*
D03*
X190383Y405039D02*
D03*
X197273Y391259D02*
D03*
X190383Y377480D02*
D03*
X197273Y336141D02*
D03*
X190383Y322362D02*
D03*
X197273Y308582D02*
D03*
X190383Y294803D02*
D03*
X197273Y281023D02*
D03*
X190383Y267244D02*
D03*
X197273Y253464D02*
D03*
X190383Y239685D02*
D03*
X197273Y225905D02*
D03*
X190383Y212125D02*
D03*
X197273Y198346D02*
D03*
X190383Y184566D02*
D03*
X197273Y170787D02*
D03*
X190383Y157007D02*
D03*
X176603Y460157D02*
D03*
X183493Y446378D02*
D03*
X176603Y432598D02*
D03*
X183493Y418818D02*
D03*
Y336141D02*
D03*
X176603Y322362D02*
D03*
X183493Y308582D02*
D03*
X176603Y294803D02*
D03*
X183493Y281023D02*
D03*
X176603Y267244D02*
D03*
X183493Y253464D02*
D03*
X176603Y239685D02*
D03*
X183493Y225905D02*
D03*
X176603Y212125D02*
D03*
X183493Y198346D02*
D03*
X176603Y184566D02*
D03*
X183493Y170787D02*
D03*
X176603Y157007D02*
D03*
X183493Y143228D02*
D03*
X176603Y129448D02*
D03*
X162824Y460157D02*
D03*
X169714Y446378D02*
D03*
Y308582D02*
D03*
X162824Y294803D02*
D03*
X169714Y281023D02*
D03*
X162824Y267244D02*
D03*
X169714Y253464D02*
D03*
Y225905D02*
D03*
X162824Y212125D02*
D03*
X169714Y198346D02*
D03*
X162824Y184566D02*
D03*
X169714Y170787D02*
D03*
X162824Y157007D02*
D03*
X169714Y143228D02*
D03*
X162824Y129448D02*
D03*
X149044Y460157D02*
D03*
X155934Y446378D02*
D03*
X149044Y377480D02*
D03*
X155934Y363700D02*
D03*
X149044Y349921D02*
D03*
X155934Y308582D02*
D03*
X149044Y294803D02*
D03*
X155934Y281023D02*
D03*
X149044Y267244D02*
D03*
X155934Y253464D02*
D03*
Y225905D02*
D03*
X149044Y212125D02*
D03*
X155934Y198346D02*
D03*
X149044Y184566D02*
D03*
X155934Y170787D02*
D03*
X149044Y157007D02*
D03*
X155934Y143228D02*
D03*
X149044Y129448D02*
D03*
X155934Y115669D02*
D03*
X149044Y101889D02*
D03*
X135265Y460157D02*
D03*
X142155Y446378D02*
D03*
X135265Y432598D02*
D03*
X142155Y363700D02*
D03*
X135265Y349921D02*
D03*
Y322362D02*
D03*
X142155Y308582D02*
D03*
X135265Y294803D02*
D03*
X142155Y281023D02*
D03*
X135265Y267244D02*
D03*
X142155Y253464D02*
D03*
Y225905D02*
D03*
X135265Y212125D02*
D03*
X142155Y198346D02*
D03*
X135265Y184566D02*
D03*
X142155Y170787D02*
D03*
X135265Y157007D02*
D03*
X142155Y143228D02*
D03*
X135265Y129448D02*
D03*
X142155Y115669D02*
D03*
X135265Y101889D02*
D03*
X121485Y460157D02*
D03*
X128375Y446378D02*
D03*
X121485Y432598D02*
D03*
Y405039D02*
D03*
X128375Y391259D02*
D03*
Y363700D02*
D03*
Y336141D02*
D03*
Y308582D02*
D03*
Y281023D02*
D03*
X121485Y267244D02*
D03*
X128375Y253464D02*
D03*
X121485Y239685D02*
D03*
Y212125D02*
D03*
X128375Y198346D02*
D03*
X121485Y184566D02*
D03*
X128375Y170787D02*
D03*
X121485Y157007D02*
D03*
Y129448D02*
D03*
X128375Y115669D02*
D03*
X121485Y101889D02*
D03*
X128375Y88110D02*
D03*
X121485Y74330D02*
D03*
X107706Y460157D02*
D03*
X114595Y446378D02*
D03*
X107706Y432598D02*
D03*
Y405039D02*
D03*
X114595Y391259D02*
D03*
X107706Y349921D02*
D03*
X114595Y336141D02*
D03*
X107706Y322362D02*
D03*
X114595Y308582D02*
D03*
X107706Y294803D02*
D03*
X114595Y281023D02*
D03*
X107706Y267244D02*
D03*
X114595Y253464D02*
D03*
X107706Y239685D02*
D03*
X114595Y225905D02*
D03*
X107706Y212125D02*
D03*
X114595Y198346D02*
D03*
X107706Y184566D02*
D03*
X114595Y170787D02*
D03*
Y143228D02*
D03*
Y115669D02*
D03*
Y88110D02*
D03*
X107706Y74330D02*
D03*
X93926Y460157D02*
D03*
X100816Y446378D02*
D03*
X93926Y432598D02*
D03*
X100816Y418818D02*
D03*
X93926Y405039D02*
D03*
X100816Y391259D02*
D03*
X93926Y349921D02*
D03*
X100816Y336141D02*
D03*
X93926Y322362D02*
D03*
X100816Y308582D02*
D03*
X93926Y294803D02*
D03*
X100816Y281023D02*
D03*
X93926Y267244D02*
D03*
X100816Y225905D02*
D03*
X93926Y212125D02*
D03*
X100816Y198346D02*
D03*
X93926Y184566D02*
D03*
X100816Y170787D02*
D03*
X93926Y129448D02*
D03*
Y101889D02*
D03*
Y74330D02*
D03*
X100816Y60551D02*
D03*
X93926Y46771D02*
D03*
X80147Y460157D02*
D03*
Y432598D02*
D03*
X87037Y418818D02*
D03*
X80147Y405039D02*
D03*
Y349921D02*
D03*
X87037Y336141D02*
D03*
X80147Y322362D02*
D03*
X87037Y308582D02*
D03*
X80147Y294803D02*
D03*
X87037Y281023D02*
D03*
X80147Y267244D02*
D03*
Y239685D02*
D03*
X87037Y225905D02*
D03*
X80147Y212125D02*
D03*
X87037Y198346D02*
D03*
X80147Y184566D02*
D03*
X87037Y170787D02*
D03*
X80147Y129448D02*
D03*
X87037Y115669D02*
D03*
Y88110D02*
D03*
X80147Y74330D02*
D03*
X87037Y60551D02*
D03*
X80147Y46771D02*
D03*
X66367Y460157D02*
D03*
X73257Y446378D02*
D03*
X66367Y432598D02*
D03*
X73257Y418818D02*
D03*
X66367Y405039D02*
D03*
X73257Y391259D02*
D03*
X66367Y349921D02*
D03*
X73257Y336141D02*
D03*
X66367Y322362D02*
D03*
X73257Y308582D02*
D03*
X66367Y294803D02*
D03*
X73257Y281023D02*
D03*
X66367Y267244D02*
D03*
X73257Y115669D02*
D03*
Y88110D02*
D03*
X66367Y74330D02*
D03*
X73257Y60551D02*
D03*
X66367Y46771D02*
D03*
X73257Y32992D02*
D03*
X66367Y19212D02*
D03*
X52588Y460157D02*
D03*
X59477Y446378D02*
D03*
X52588Y432598D02*
D03*
X59477Y418818D02*
D03*
Y391259D02*
D03*
X52588Y349921D02*
D03*
X59477Y336141D02*
D03*
X52588Y322362D02*
D03*
X59477Y308582D02*
D03*
X52588Y294803D02*
D03*
X59477Y281023D02*
D03*
X52588Y267244D02*
D03*
Y239685D02*
D03*
X59477Y225905D02*
D03*
X52588Y212125D02*
D03*
X59477Y198346D02*
D03*
X52588Y184566D02*
D03*
X59477Y170787D02*
D03*
Y115669D02*
D03*
X52588Y101889D02*
D03*
X59477Y88110D02*
D03*
X52588Y74330D02*
D03*
X59477Y60551D02*
D03*
X52588Y46771D02*
D03*
X59477Y32992D02*
D03*
X52588Y19212D02*
D03*
X38808Y460157D02*
D03*
X45698Y446378D02*
D03*
Y418818D02*
D03*
X38808Y349921D02*
D03*
X45698Y336141D02*
D03*
X38808Y322362D02*
D03*
X45698Y308582D02*
D03*
X38808Y294803D02*
D03*
X45698Y281023D02*
D03*
X38808Y267244D02*
D03*
Y239685D02*
D03*
X45698Y225905D02*
D03*
X38808Y212125D02*
D03*
X45698Y198346D02*
D03*
X38808Y184566D02*
D03*
X45698Y170787D02*
D03*
Y143228D02*
D03*
Y115669D02*
D03*
X38808Y101889D02*
D03*
X45698Y88110D02*
D03*
X38808Y74330D02*
D03*
X45698Y5432D02*
D03*
X38808Y-8347D02*
D03*
X25029Y432598D02*
D03*
Y405039D02*
D03*
Y322362D02*
D03*
Y294803D02*
D03*
X31918Y281023D02*
D03*
X25029Y267244D02*
D03*
Y239685D02*
D03*
X31918Y225905D02*
D03*
X25029Y212125D02*
D03*
X31918Y198346D02*
D03*
X25029Y184566D02*
D03*
X31918Y170787D02*
D03*
X25029Y129448D02*
D03*
X31918Y115669D02*
D03*
X25029Y101889D02*
D03*
X31918Y88110D02*
D03*
X25029Y74330D02*
D03*
X31918Y60551D02*
D03*
X25029Y-8347D02*
D03*
X11249Y460157D02*
D03*
X18139Y418818D02*
D03*
X11249Y349921D02*
D03*
X18139Y308582D02*
D03*
X11249Y294803D02*
D03*
Y239685D02*
D03*
X18139Y225905D02*
D03*
X11249Y212125D02*
D03*
X18139Y198346D02*
D03*
Y170787D02*
D03*
Y115669D02*
D03*
X11249Y74330D02*
D03*
Y-8347D02*
D03*
X18139Y-22127D02*
D03*
X11249Y-35906D02*
D03*
X-2530Y460157D02*
D03*
Y349921D02*
D03*
X4359Y336141D02*
D03*
X-2530Y322362D02*
D03*
X4359Y308582D02*
D03*
X-2530Y294803D02*
D03*
X4359Y281023D02*
D03*
X-2530Y267244D02*
D03*
Y239685D02*
D03*
Y212125D02*
D03*
X4359Y170787D02*
D03*
Y88110D02*
D03*
X-2530Y-8347D02*
D03*
X4359Y-22127D02*
D03*
X-16310Y460157D02*
D03*
X-9420Y391259D02*
D03*
X-16310Y349921D02*
D03*
X-9420Y336141D02*
D03*
X-16310Y322362D02*
D03*
X-9420Y281023D02*
D03*
X-16310Y267244D02*
D03*
Y212125D02*
D03*
Y157007D02*
D03*
Y-8347D02*
D03*
X-9420Y-22127D02*
D03*
X-30090Y460157D02*
D03*
X-23200Y446378D02*
D03*
X-30090Y432598D02*
D03*
Y405039D02*
D03*
X-23200Y391259D02*
D03*
X-30090Y349921D02*
D03*
X-23200Y336141D02*
D03*
X-30090Y322362D02*
D03*
X-23200Y308582D02*
D03*
X-30090Y294803D02*
D03*
X-23200Y281023D02*
D03*
X-30090Y267244D02*
D03*
Y239685D02*
D03*
Y212125D02*
D03*
X-23200Y198346D02*
D03*
X-30090Y184566D02*
D03*
Y157007D02*
D03*
Y101889D02*
D03*
X-23200Y5432D02*
D03*
X-30090Y-8347D02*
D03*
X-23200Y-22127D02*
D03*
X-43869Y460157D02*
D03*
X-36979Y446378D02*
D03*
X-43869Y405039D02*
D03*
X-36979Y391259D02*
D03*
X-43869Y349921D02*
D03*
X-36979Y336141D02*
D03*
X-43869Y322362D02*
D03*
X-36979Y308582D02*
D03*
X-43869Y294803D02*
D03*
Y239685D02*
D03*
X-36979Y198346D02*
D03*
X-43869Y157007D02*
D03*
Y129448D02*
D03*
Y101889D02*
D03*
X-36979Y60551D02*
D03*
Y5432D02*
D03*
X-57649Y460157D02*
D03*
X-50759Y446378D02*
D03*
X-57649Y432598D02*
D03*
X-50759Y418818D02*
D03*
X-57649Y405039D02*
D03*
X-50759Y391259D02*
D03*
X-57649Y349921D02*
D03*
X-50759Y336141D02*
D03*
X-57649Y322362D02*
D03*
X-50759Y308582D02*
D03*
X-57649Y294803D02*
D03*
X-50759Y281023D02*
D03*
X-57649Y267244D02*
D03*
Y239685D02*
D03*
X-50759Y225905D02*
D03*
X-57649Y212125D02*
D03*
Y19212D02*
D03*
X-50759Y5432D02*
D03*
X-71428Y460157D02*
D03*
X-64538Y446378D02*
D03*
Y391259D02*
D03*
Y363700D02*
D03*
Y336141D02*
D03*
Y308582D02*
D03*
Y281023D02*
D03*
Y225905D02*
D03*
X-71428Y212125D02*
D03*
X-64538Y115669D02*
D03*
Y60551D02*
D03*
X-85208Y460157D02*
D03*
X-78318Y446378D02*
D03*
X-85208Y432598D02*
D03*
Y349921D02*
D03*
Y322362D02*
D03*
Y294803D02*
D03*
Y267244D02*
D03*
Y239685D02*
D03*
X-78318Y225905D02*
D03*
X-85208Y212125D02*
D03*
X-78318Y198346D02*
D03*
X-85208Y129448D02*
D03*
X-78318Y115669D02*
D03*
X-85208Y101889D02*
D03*
X-78318Y60551D02*
D03*
Y32992D02*
D03*
X-92097Y446378D02*
D03*
Y363700D02*
D03*
X-98987Y349921D02*
D03*
X-92097Y336141D02*
D03*
X-98987Y322362D02*
D03*
X-92097Y308582D02*
D03*
X-98987Y294803D02*
D03*
X-92097Y281023D02*
D03*
X-98987Y267244D02*
D03*
Y239685D02*
D03*
Y184566D02*
D03*
Y101889D02*
D03*
X-105877Y446378D02*
D03*
X-112767Y405039D02*
D03*
X-105877Y363700D02*
D03*
X-112767Y349921D02*
D03*
X-105877Y336141D02*
D03*
X-112767Y322362D02*
D03*
X-105877Y308582D02*
D03*
Y281023D02*
D03*
X-112767Y267244D02*
D03*
X-105877Y225905D02*
D03*
X-112767Y212125D02*
D03*
X-105877Y198346D02*
D03*
X-112767Y184566D02*
D03*
X-105877Y170787D02*
D03*
X-112767Y157007D02*
D03*
X-105877Y60551D02*
D03*
X-126546Y460157D02*
D03*
X-119657Y336141D02*
D03*
X-126546Y322362D02*
D03*
X-119657Y308582D02*
D03*
X-126546Y294803D02*
D03*
X-119657Y281023D02*
D03*
X-126546Y267244D02*
D03*
X-119657Y225905D02*
D03*
Y170787D02*
D03*
Y88110D02*
D03*
X-140326Y460157D02*
D03*
X-133436Y391259D02*
D03*
Y336141D02*
D03*
Y308582D02*
D03*
X-140326Y294803D02*
D03*
X-133436Y281023D02*
D03*
X-140326Y267244D02*
D03*
X-133436Y225905D02*
D03*
Y115669D02*
D03*
X-154105Y460157D02*
D03*
X-147215Y446378D02*
D03*
X-154105Y405039D02*
D03*
X-147215Y363700D02*
D03*
X-154105Y349921D02*
D03*
X-147215Y308582D02*
D03*
X-154105Y294803D02*
D03*
X-147215Y281023D02*
D03*
X-154105Y267244D02*
D03*
X-147215Y253464D02*
D03*
Y225905D02*
D03*
X-154105Y212125D02*
D03*
Y129448D02*
D03*
X-147215Y115669D02*
D03*
X-167885Y460157D02*
D03*
X-160995Y446378D02*
D03*
Y418818D02*
D03*
X-167885Y405039D02*
D03*
X-160995Y363700D02*
D03*
X-167885Y349921D02*
D03*
X-160995Y308582D02*
D03*
X-167885Y294803D02*
D03*
X-160995Y281023D02*
D03*
X-167885Y267244D02*
D03*
X-160995Y253464D02*
D03*
X-167885Y239685D02*
D03*
X-160995Y225905D02*
D03*
X-167885Y212125D02*
D03*
X-160995Y143228D02*
D03*
X-167885Y129448D02*
D03*
X-160995Y115669D02*
D03*
X-181664Y460157D02*
D03*
X-174775Y446378D02*
D03*
X-181664Y405039D02*
D03*
Y377480D02*
D03*
X-174775Y363700D02*
D03*
X-181664Y349921D02*
D03*
X-174775Y336141D02*
D03*
X-181664Y322362D02*
D03*
X-174775Y308582D02*
D03*
X-181664Y294803D02*
D03*
X-174775Y281023D02*
D03*
X-181664Y267244D02*
D03*
X-174775Y253464D02*
D03*
X-181664Y239685D02*
D03*
X-174775Y225905D02*
D03*
X-181664Y212125D02*
D03*
X-174775Y198346D02*
D03*
X-181664Y184566D02*
D03*
X-195444Y460157D02*
D03*
X-188554Y446378D02*
D03*
X-195444Y405039D02*
D03*
X-188554Y391259D02*
D03*
X-195444Y377480D02*
D03*
X-188554Y336141D02*
D03*
X-195444Y322362D02*
D03*
X-188554Y308582D02*
D03*
X-195444Y294803D02*
D03*
X-188554Y281023D02*
D03*
X-195444Y267244D02*
D03*
X-188554Y253464D02*
D03*
X-195444Y239685D02*
D03*
X-188554Y225905D02*
D03*
X-195444Y212125D02*
D03*
X-188554Y198346D02*
D03*
X-195444Y184566D02*
D03*
X-188554Y170787D02*
D03*
X-195444Y157007D02*
D03*
X-209223Y460157D02*
D03*
X-202334Y446378D02*
D03*
X-209223Y432598D02*
D03*
X-202334Y418818D02*
D03*
X-209223Y405039D02*
D03*
X-202334Y391259D02*
D03*
X-209223Y377480D02*
D03*
Y349921D02*
D03*
X-202334Y336141D02*
D03*
X-209223Y322362D02*
D03*
X-202334Y308582D02*
D03*
X-209223Y294803D02*
D03*
X-202334Y281023D02*
D03*
X-209223Y267244D02*
D03*
X-202334Y253464D02*
D03*
X-209223Y239685D02*
D03*
X-202334Y225905D02*
D03*
X-209223Y212125D02*
D03*
X-202334Y198346D02*
D03*
X-209223Y184566D02*
D03*
X-223003Y460157D02*
D03*
X-216113Y446378D02*
D03*
X-223003Y432598D02*
D03*
X-216113Y418818D02*
D03*
X-223003Y405039D02*
D03*
X-216113Y391259D02*
D03*
X-223003Y377480D02*
D03*
X-216113Y363700D02*
D03*
X-223003Y349921D02*
D03*
X-216113Y336141D02*
D03*
X-223003Y322362D02*
D03*
X-216113Y308582D02*
D03*
X-223003Y294803D02*
D03*
X-216113Y281023D02*
D03*
X-223003Y267244D02*
D03*
X-216113Y253464D02*
D03*
X-223003Y239685D02*
D03*
X-216113Y225905D02*
D03*
X-223003Y212125D02*
D03*
X-216113Y198346D02*
D03*
X-223003Y184566D02*
D03*
X-216113Y170787D02*
D03*
X-236783Y460157D02*
D03*
X-229893Y446378D02*
D03*
X-236783Y432598D02*
D03*
X-229893Y418818D02*
D03*
X-236783Y405039D02*
D03*
X-229893Y391259D02*
D03*
X-236783Y377480D02*
D03*
X-229893Y363700D02*
D03*
X-236783Y349921D02*
D03*
X-229893Y336141D02*
D03*
X-236783Y322362D02*
D03*
X-229893Y308582D02*
D03*
X-236783Y294803D02*
D03*
X-229893Y281023D02*
D03*
X-236783Y267244D02*
D03*
X-229893Y253464D02*
D03*
X-236783Y239685D02*
D03*
X-229893Y225905D02*
D03*
X-236783Y212125D02*
D03*
X-229893Y198346D02*
D03*
X-250562Y460157D02*
D03*
X-243672Y446378D02*
D03*
X-250562Y432598D02*
D03*
X-243672Y418818D02*
D03*
X-250562Y405039D02*
D03*
X-243672Y391259D02*
D03*
X-250562Y377480D02*
D03*
X-243672Y363700D02*
D03*
X-250562Y349921D02*
D03*
X-243672Y336141D02*
D03*
X-250562Y322362D02*
D03*
X-243672Y308582D02*
D03*
X-250562Y294803D02*
D03*
X-243672Y281023D02*
D03*
X-250562Y267244D02*
D03*
X-243672Y253464D02*
D03*
X-250562Y239685D02*
D03*
X-243672Y225905D02*
D03*
X-250562Y212125D02*
D03*
X-243672Y198346D02*
D03*
X-264341Y460157D02*
D03*
X-257452Y446378D02*
D03*
X-264341Y432598D02*
D03*
X-257452Y418818D02*
D03*
X-264341Y405039D02*
D03*
X-257452Y391259D02*
D03*
X-264341Y377480D02*
D03*
X-257452Y363700D02*
D03*
X-264341Y349921D02*
D03*
X-257452Y336141D02*
D03*
X-264341Y322362D02*
D03*
X-257452Y308582D02*
D03*
X-264341Y294803D02*
D03*
X-257452Y281023D02*
D03*
X-264341Y267244D02*
D03*
X-257452Y253464D02*
D03*
X-264341Y239685D02*
D03*
X-257452Y225905D02*
D03*
X-278121Y460157D02*
D03*
X-271231Y446378D02*
D03*
X-278121Y432598D02*
D03*
X-271231Y418818D02*
D03*
X-278121Y405039D02*
D03*
X-271231Y391259D02*
D03*
X-278121Y377480D02*
D03*
X-271231Y363700D02*
D03*
X-278121Y349921D02*
D03*
X-271231Y336141D02*
D03*
X-278121Y322362D02*
D03*
X-271231Y308582D02*
D03*
X-278121Y294803D02*
D03*
X-271231Y281023D02*
D03*
X-278121Y267244D02*
D03*
X-271231Y253464D02*
D03*
X-278121Y239685D02*
D03*
X-271231Y225905D02*
D03*
X5500Y76000D02*
D03*
X34000Y38500D02*
D03*
X30000D02*
D03*
X26500D02*
D03*
X-37000Y35000D02*
D03*
X-31500Y39000D02*
D03*
X-20577Y34405D02*
D03*
M02*
